%TF.GenerationSoftware,KiCad,Pcbnew,9.0.0*%
%TF.CreationDate,2025-08-04T22:37:53+02:00*%
%TF.ProjectId,Self balancing cube,53656c66-2062-4616-9c61-6e63696e6720,rev?*%
%TF.SameCoordinates,Original*%
%TF.FileFunction,Soldermask,Bot*%
%TF.FilePolarity,Negative*%
%FSLAX46Y46*%
G04 Gerber Fmt 4.6, Leading zero omitted, Abs format (unit mm)*
G04 Created by KiCad (PCBNEW 9.0.0) date 2025-08-04 22:37:53*
%MOMM*%
%LPD*%
G01*
G04 APERTURE LIST*
G04 Aperture macros list*
%AMRoundRect*
0 Rectangle with rounded corners*
0 $1 Rounding radius*
0 $2 $3 $4 $5 $6 $7 $8 $9 X,Y pos of 4 corners*
0 Add a 4 corners polygon primitive as box body*
4,1,4,$2,$3,$4,$5,$6,$7,$8,$9,$2,$3,0*
0 Add four circle primitives for the rounded corners*
1,1,$1+$1,$2,$3*
1,1,$1+$1,$4,$5*
1,1,$1+$1,$6,$7*
1,1,$1+$1,$8,$9*
0 Add four rect primitives between the rounded corners*
20,1,$1+$1,$2,$3,$4,$5,0*
20,1,$1+$1,$4,$5,$6,$7,0*
20,1,$1+$1,$6,$7,$8,$9,0*
20,1,$1+$1,$8,$9,$2,$3,0*%
G04 Aperture macros list end*
%ADD10C,1.600000*%
%ADD11RoundRect,0.250002X-1.699998X-1.699998X1.699998X-1.699998X1.699998X1.699998X-1.699998X1.699998X0*%
%ADD12RoundRect,0.250000X-0.265000X-0.615000X0.265000X-0.615000X0.265000X0.615000X-0.265000X0.615000X0*%
%ADD13O,1.030000X1.730000*%
%ADD14C,6.000000*%
%ADD15C,1.400000*%
%ADD16O,1.400000X1.400000*%
%ADD17RoundRect,0.250000X0.265000X0.615000X-0.265000X0.615000X-0.265000X-0.615000X0.265000X-0.615000X0*%
%ADD18R,1.500000X1.050000*%
%ADD19O,1.500000X1.050000*%
%ADD20R,2.000000X1.905000*%
%ADD21O,2.000000X1.905000*%
%ADD22C,2.000000*%
%ADD23RoundRect,0.250001X-0.799999X-0.799999X0.799999X-0.799999X0.799999X0.799999X-0.799999X0.799999X0*%
%ADD24R,2.000000X2.000000*%
G04 APERTURE END LIST*
D10*
%TO.C,U2*%
X132750000Y-74300000D03*
X132750000Y-76840000D03*
X132750000Y-79380000D03*
X132750000Y-81920000D03*
X132750000Y-84460000D03*
X132750000Y-87000000D03*
X132750000Y-89540000D03*
X132750000Y-92080000D03*
X132750000Y-94620000D03*
X132750000Y-97160000D03*
X132750000Y-99700000D03*
X132750000Y-102240000D03*
X132750000Y-104780000D03*
X132750000Y-107320000D03*
X132750000Y-109860000D03*
X158150000Y-109860000D03*
X158150000Y-107320000D03*
X158150000Y-104780000D03*
X158150000Y-102240000D03*
X158150000Y-99700000D03*
X158150000Y-97160000D03*
X158150000Y-94620000D03*
X158150000Y-92080000D03*
X158150000Y-89540000D03*
X158150000Y-87000000D03*
X158150000Y-84460000D03*
X158150000Y-81920000D03*
X158150000Y-79380000D03*
X158150000Y-76840000D03*
X158150000Y-74300000D03*
%TD*%
%TO.C,C1*%
X122224800Y-106883200D03*
X119724800Y-106883200D03*
%TD*%
D11*
%TO.C,J1*%
X127609600Y-113131600D03*
%TD*%
D12*
%TO.C,J8*%
X165658800Y-109220000D03*
D13*
X167158800Y-109220000D03*
X168658800Y-109220000D03*
X170158800Y-109220000D03*
X171658800Y-109220000D03*
X173158800Y-109220000D03*
X174658800Y-109220000D03*
X176158800Y-109220000D03*
%TD*%
D10*
%TO.C,C2*%
X166257600Y-74269600D03*
X168757600Y-74269600D03*
%TD*%
D14*
%TO.C,*%
X183896000Y-117144800D03*
%TD*%
D12*
%TO.C,J7*%
X165658800Y-102819200D03*
D13*
X167158800Y-102819200D03*
X168658800Y-102819200D03*
X170158800Y-102819200D03*
X171658800Y-102819200D03*
X173158800Y-102819200D03*
X174658800Y-102819200D03*
X176158800Y-102819200D03*
%TD*%
D15*
%TO.C,R2*%
X126085600Y-109321600D03*
D16*
X126085600Y-104241600D03*
%TD*%
D15*
%TO.C,R5*%
X164846000Y-76962000D03*
D16*
X169926000Y-76962000D03*
%TD*%
D10*
%TO.C,C3*%
X126085600Y-92902400D03*
X126085600Y-95402400D03*
%TD*%
D17*
%TO.C,J14*%
X176532800Y-71424800D03*
D13*
X175032800Y-71424800D03*
X173532800Y-71424800D03*
%TD*%
D18*
%TO.C,Q1*%
X117144800Y-86258400D03*
D19*
X117144800Y-84988400D03*
X117144800Y-83718400D03*
%TD*%
D20*
%TO.C,U1*%
X119024400Y-96977200D03*
D21*
X119024400Y-94437200D03*
X119024400Y-91897200D03*
%TD*%
D15*
%TO.C,R4*%
X172669200Y-77012800D03*
D16*
X177749200Y-77012800D03*
%TD*%
D14*
%TO.C,1*%
X117043200Y-71628000D03*
%TD*%
D22*
%TO.C,SW2*%
X184759600Y-84560800D03*
X178259600Y-84560800D03*
X184759600Y-80060800D03*
X178259600Y-80060800D03*
%TD*%
D12*
%TO.C,J6*%
X165656000Y-96418400D03*
D13*
X167156000Y-96418400D03*
X168656000Y-96418400D03*
X170156000Y-96418400D03*
X171656000Y-96418400D03*
X173156000Y-96418400D03*
X174656000Y-96418400D03*
X176156000Y-96418400D03*
%TD*%
D23*
%TO.C,J5*%
X118567200Y-112268000D03*
%TD*%
D11*
%TO.C,J2*%
X122631200Y-113131600D03*
%TD*%
%TO.C,J3*%
X122631200Y-117906800D03*
%TD*%
D15*
%TO.C,R3*%
X125984000Y-102108000D03*
D16*
X120904000Y-102108000D03*
%TD*%
D15*
%TO.C,R1*%
X129336800Y-86360000D03*
D16*
X124256800Y-86360000D03*
%TD*%
D14*
%TO.C,1*%
X117043200Y-117144800D03*
%TD*%
D17*
%TO.C,J12*%
X179252000Y-91186000D03*
D13*
X177752000Y-91186000D03*
X176252000Y-91186000D03*
X174752000Y-91186000D03*
%TD*%
D17*
%TO.C,J13*%
X168784400Y-91186000D03*
D13*
X167284400Y-91186000D03*
X165784400Y-91186000D03*
%TD*%
D14*
%TO.C,*%
X183896000Y-71678800D03*
%TD*%
D11*
%TO.C,J4*%
X127609600Y-117906800D03*
%TD*%
D24*
%TO.C,BZ1*%
X127955200Y-78130400D03*
D22*
X120355200Y-78130400D03*
%TD*%
M02*
