%TF.GenerationSoftware,KiCad,Pcbnew,9.0.0*%
%TF.CreationDate,2025-08-04T22:37:53+02:00*%
%TF.ProjectId,Self balancing cube,53656c66-2062-4616-9c61-6e63696e6720,rev?*%
%TF.SameCoordinates,Original*%
%TF.FileFunction,Copper,L1,Top*%
%TF.FilePolarity,Positive*%
%FSLAX46Y46*%
G04 Gerber Fmt 4.6, Leading zero omitted, Abs format (unit mm)*
G04 Created by KiCad (PCBNEW 9.0.0) date 2025-08-04 22:37:53*
%MOMM*%
%LPD*%
G01*
G04 APERTURE LIST*
G04 Aperture macros list*
%AMRoundRect*
0 Rectangle with rounded corners*
0 $1 Rounding radius*
0 $2 $3 $4 $5 $6 $7 $8 $9 X,Y pos of 4 corners*
0 Add a 4 corners polygon primitive as box body*
4,1,4,$2,$3,$4,$5,$6,$7,$8,$9,$2,$3,0*
0 Add four circle primitives for the rounded corners*
1,1,$1+$1,$2,$3*
1,1,$1+$1,$4,$5*
1,1,$1+$1,$6,$7*
1,1,$1+$1,$8,$9*
0 Add four rect primitives between the rounded corners*
20,1,$1+$1,$2,$3,$4,$5,0*
20,1,$1+$1,$4,$5,$6,$7,0*
20,1,$1+$1,$6,$7,$8,$9,0*
20,1,$1+$1,$8,$9,$2,$3,0*%
G04 Aperture macros list end*
%TA.AperFunction,ComponentPad*%
%ADD10C,1.600000*%
%TD*%
%TA.AperFunction,ComponentPad*%
%ADD11RoundRect,0.250002X-1.699998X-1.699998X1.699998X-1.699998X1.699998X1.699998X-1.699998X1.699998X0*%
%TD*%
%TA.AperFunction,ComponentPad*%
%ADD12RoundRect,0.250000X-0.265000X-0.615000X0.265000X-0.615000X0.265000X0.615000X-0.265000X0.615000X0*%
%TD*%
%TA.AperFunction,ComponentPad*%
%ADD13O,1.030000X1.730000*%
%TD*%
%TA.AperFunction,ComponentPad*%
%ADD14C,6.000000*%
%TD*%
%TA.AperFunction,ComponentPad*%
%ADD15C,1.400000*%
%TD*%
%TA.AperFunction,ComponentPad*%
%ADD16O,1.400000X1.400000*%
%TD*%
%TA.AperFunction,ComponentPad*%
%ADD17RoundRect,0.250000X0.265000X0.615000X-0.265000X0.615000X-0.265000X-0.615000X0.265000X-0.615000X0*%
%TD*%
%TA.AperFunction,ComponentPad*%
%ADD18R,1.500000X1.050000*%
%TD*%
%TA.AperFunction,ComponentPad*%
%ADD19O,1.500000X1.050000*%
%TD*%
%TA.AperFunction,ComponentPad*%
%ADD20R,2.000000X1.905000*%
%TD*%
%TA.AperFunction,ComponentPad*%
%ADD21O,2.000000X1.905000*%
%TD*%
%TA.AperFunction,ComponentPad*%
%ADD22C,2.000000*%
%TD*%
%TA.AperFunction,ComponentPad*%
%ADD23RoundRect,0.250001X-0.799999X-0.799999X0.799999X-0.799999X0.799999X0.799999X-0.799999X0.799999X0*%
%TD*%
%TA.AperFunction,ComponentPad*%
%ADD24R,2.000000X2.000000*%
%TD*%
%TA.AperFunction,ViaPad*%
%ADD25C,0.600000*%
%TD*%
%TA.AperFunction,Conductor*%
%ADD26C,0.160000*%
%TD*%
%TA.AperFunction,Conductor*%
%ADD27C,0.630000*%
%TD*%
%TA.AperFunction,Conductor*%
%ADD28C,0.950000*%
%TD*%
%TA.AperFunction,Conductor*%
%ADD29C,2.540000*%
%TD*%
%TA.AperFunction,Conductor*%
%ADD30C,0.200000*%
%TD*%
G04 APERTURE END LIST*
D10*
%TO.P,U2,1,EN*%
%TO.N,unconnected-(U2-EN-Pad1)*%
X132750000Y-74300000D03*
%TO.P,U2,2,VP*%
%TO.N,unconnected-(U2-VP-Pad2)*%
X132750000Y-76840000D03*
%TO.P,U2,3,VN*%
%TO.N,Push_Led*%
X132750000Y-79380000D03*
%TO.P,U2,4,D34*%
%TO.N,Adc batt*%
X132750000Y-81920000D03*
%TO.P,U2,5,D35*%
%TO.N,Net-(J6-Pin_1)*%
X132750000Y-84460000D03*
%TO.P,U2,6,D32*%
%TO.N,Net-(J6-Pin_5)*%
X132750000Y-87000000D03*
%TO.P,U2,7,D33*%
%TO.N,Net-(J6-Pin_2)*%
X132750000Y-89540000D03*
%TO.P,U2,8,D25*%
%TO.N,Net-(J7-Pin_5)*%
X132750000Y-92080000D03*
%TO.P,U2,9,D26*%
%TO.N,Net-(J6-Pin_6)*%
X132750000Y-94620000D03*
%TO.P,U2,10,D27*%
%TO.N,cmd buzzer*%
X132750000Y-97160000D03*
%TO.P,U2,11,D14*%
%TO.N,Net-(J7-Pin_2)*%
X132750000Y-99700000D03*
%TO.P,U2,12,D12*%
%TO.N,unconnected-(U2-D12-Pad12)*%
X132750000Y-102240000D03*
%TO.P,U2,13,D13*%
%TO.N,Net-(J7-Pin_1)*%
X132750000Y-104780000D03*
%TO.P,U2,14,GND*%
%TO.N,-BATT*%
X132750000Y-107320000D03*
%TO.P,U2,15,VIN*%
%TO.N,+5V*%
X132750000Y-109860000D03*
%TO.P,U2,16,3V3*%
%TO.N,+3.3V*%
X158150000Y-109860000D03*
%TO.P,U2,17,GND*%
%TO.N,unconnected-(U2-GND-Pad17)*%
X158150000Y-107320000D03*
%TO.P,U2,18,D15*%
%TO.N,Net-(J7-Pin_4)*%
X158150000Y-104780000D03*
%TO.P,U2,19,D2*%
%TO.N,unconnected-(U2-D2-Pad19)*%
X158150000Y-102240000D03*
%TO.P,U2,20,D4*%
%TO.N,Net-(J6-Pin_4)*%
X158150000Y-99700000D03*
%TO.P,U2,21,RX2*%
%TO.N,Net-(J8-Pin_1)*%
X158150000Y-97160000D03*
%TO.P,U2,22,TX2*%
%TO.N,Net-(J8-Pin_2)*%
X158150000Y-94620000D03*
%TO.P,U2,23,D5*%
%TO.N,Net-(J8-Pin_4)*%
X158150000Y-92080000D03*
%TO.P,U2,24,D18*%
%TO.N,Net-(J8-Pin_5)*%
X158150000Y-89540000D03*
%TO.P,U2,25,D19*%
%TO.N,unconnected-(U2-D19-Pad25)*%
X158150000Y-87000000D03*
%TO.P,U2,26,D21*%
%TO.N,SDA*%
X158150000Y-84460000D03*
%TO.P,U2,27,RX0*%
%TO.N,unconnected-(U2-RX0-Pad27)*%
X158150000Y-81920000D03*
%TO.P,U2,28,TX0*%
%TO.N,unconnected-(U2-TX0-Pad28)*%
X158150000Y-79380000D03*
%TO.P,U2,29,D22*%
%TO.N,SCL*%
X158150000Y-76840000D03*
%TO.P,U2,30,D23*%
%TO.N,WS2812*%
X158150000Y-74300000D03*
%TD*%
%TO.P,C1,1*%
%TO.N,Adc batt*%
X122224800Y-106883200D03*
%TO.P,C1,2*%
%TO.N,-BATT*%
X119724800Y-106883200D03*
%TD*%
D11*
%TO.P,J1,1,Pin_1*%
%TO.N,+BATT*%
X127609600Y-113131600D03*
%TD*%
D12*
%TO.P,J8,1,Pin_1*%
%TO.N,Net-(J8-Pin_1)*%
X165658800Y-109220000D03*
D13*
%TO.P,J8,2,Pin_2*%
%TO.N,Net-(J8-Pin_2)*%
X167158800Y-109220000D03*
%TO.P,J8,3,Pin_3*%
%TO.N,+3.3V*%
X168658800Y-109220000D03*
%TO.P,J8,4,Pin_4*%
%TO.N,Net-(J8-Pin_4)*%
X170158800Y-109220000D03*
%TO.P,J8,5,Pin_5*%
%TO.N,Net-(J8-Pin_5)*%
X171658800Y-109220000D03*
%TO.P,J8,6,Pin_6*%
%TO.N,Net-(J6-Pin_6)*%
X173158800Y-109220000D03*
%TO.P,J8,7,Pin_7*%
%TO.N,-BATT*%
X174658800Y-109220000D03*
%TO.P,J8,8,Pin_8*%
%TO.N,+BATT*%
X176158800Y-109220000D03*
%TD*%
D10*
%TO.P,C2,1*%
%TO.N,Push_Led*%
X166257600Y-74269600D03*
%TO.P,C2,2*%
%TO.N,-BATT*%
X168757600Y-74269600D03*
%TD*%
D14*
%TO.P,,1*%
%TO.N,-BATT*%
X183896000Y-117144800D03*
%TD*%
D12*
%TO.P,J7,1,Pin_1*%
%TO.N,Net-(J7-Pin_1)*%
X165658800Y-102819200D03*
D13*
%TO.P,J7,2,Pin_2*%
%TO.N,Net-(J7-Pin_2)*%
X167158800Y-102819200D03*
%TO.P,J7,3,Pin_3*%
%TO.N,+3.3V*%
X168658800Y-102819200D03*
%TO.P,J7,4,Pin_4*%
%TO.N,Net-(J7-Pin_4)*%
X170158800Y-102819200D03*
%TO.P,J7,5,Pin_5*%
%TO.N,Net-(J7-Pin_5)*%
X171658800Y-102819200D03*
%TO.P,J7,6,Pin_6*%
%TO.N,Net-(J6-Pin_6)*%
X173158800Y-102819200D03*
%TO.P,J7,7,Pin_7*%
%TO.N,-BATT*%
X174658800Y-102819200D03*
%TO.P,J7,8,Pin_8*%
%TO.N,+BATT*%
X176158800Y-102819200D03*
%TD*%
D15*
%TO.P,R2,1*%
%TO.N,+BATT*%
X126085600Y-109321600D03*
D16*
%TO.P,R2,2*%
%TO.N,Adc batt*%
X126085600Y-104241600D03*
%TD*%
D15*
%TO.P,R5,1*%
%TO.N,Push_Led*%
X164846000Y-76962000D03*
D16*
%TO.P,R5,2*%
%TO.N,Net-(J14-Pin_2)*%
X169926000Y-76962000D03*
%TD*%
D10*
%TO.P,C3,1*%
%TO.N,+5V*%
X126085600Y-92902400D03*
%TO.P,C3,2*%
%TO.N,-BATT*%
X126085600Y-95402400D03*
%TD*%
D17*
%TO.P,J14,1,Pin_1*%
%TO.N,+3.3V*%
X176532800Y-71424800D03*
D13*
%TO.P,J14,2,Pin_2*%
%TO.N,Net-(J14-Pin_2)*%
X175032800Y-71424800D03*
%TO.P,J14,3,Pin_3*%
%TO.N,-BATT*%
X173532800Y-71424800D03*
%TD*%
D18*
%TO.P,Q1,1,E*%
%TO.N,-BATT*%
X117144800Y-86258400D03*
D19*
%TO.P,Q1,2,B*%
%TO.N,Net-(Q1-B)*%
X117144800Y-84988400D03*
%TO.P,Q1,3,C*%
%TO.N,Net-(BZ1--)*%
X117144800Y-83718400D03*
%TD*%
D20*
%TO.P,U1,1,VI*%
%TO.N,+BATT*%
X119024400Y-96977200D03*
D21*
%TO.P,U1,2,GND*%
%TO.N,-BATT*%
X119024400Y-94437200D03*
%TO.P,U1,3,VO*%
%TO.N,+5V*%
X119024400Y-91897200D03*
%TD*%
D15*
%TO.P,R4,1*%
%TO.N,Push_Led*%
X172669200Y-77012800D03*
D16*
%TO.P,R4,2*%
%TO.N,+3.3V*%
X177749200Y-77012800D03*
%TD*%
D14*
%TO.P,1,1*%
%TO.N,-BATT*%
X117043200Y-71628000D03*
%TD*%
D22*
%TO.P,SW2,1,1*%
%TO.N,-BATT*%
X184759600Y-84560800D03*
X178259600Y-84560800D03*
%TO.P,SW2,2,2*%
%TO.N,Push_Led*%
X184759600Y-80060800D03*
X178259600Y-80060800D03*
%TD*%
D12*
%TO.P,J6,1,Pin_1*%
%TO.N,Net-(J6-Pin_1)*%
X165656000Y-96418400D03*
D13*
%TO.P,J6,2,Pin_2*%
%TO.N,Net-(J6-Pin_2)*%
X167156000Y-96418400D03*
%TO.P,J6,3,Pin_3*%
%TO.N,+3.3V*%
X168656000Y-96418400D03*
%TO.P,J6,4,Pin_4*%
%TO.N,Net-(J6-Pin_4)*%
X170156000Y-96418400D03*
%TO.P,J6,5,Pin_5*%
%TO.N,Net-(J6-Pin_5)*%
X171656000Y-96418400D03*
%TO.P,J6,6,Pin_6*%
%TO.N,Net-(J6-Pin_6)*%
X173156000Y-96418400D03*
%TO.P,J6,7,Pin_7*%
%TO.N,-BATT*%
X174656000Y-96418400D03*
%TO.P,J6,8,Pin_8*%
%TO.N,+BATT*%
X176156000Y-96418400D03*
%TD*%
D23*
%TO.P,J5,1,Pin_1*%
%TO.N,-BATT*%
X118567200Y-112268000D03*
%TD*%
D11*
%TO.P,J2,1,Pin_1*%
%TO.N,Net-(J2-Pin_1)*%
X122631200Y-113131600D03*
%TD*%
%TO.P,J3,1,Pin_1*%
%TO.N,Net-(J2-Pin_1)*%
X122631200Y-117906800D03*
%TD*%
D15*
%TO.P,R3,1*%
%TO.N,Adc batt*%
X125984000Y-102108000D03*
D16*
%TO.P,R3,2*%
%TO.N,-BATT*%
X120904000Y-102108000D03*
%TD*%
D15*
%TO.P,R1,1*%
%TO.N,cmd buzzer*%
X129336800Y-86360000D03*
D16*
%TO.P,R1,2*%
%TO.N,Net-(Q1-B)*%
X124256800Y-86360000D03*
%TD*%
D14*
%TO.P,1,1*%
%TO.N,-BATT*%
X117043200Y-117144800D03*
%TD*%
D17*
%TO.P,J12,1,Pin_1*%
%TO.N,SDA*%
X179252000Y-91186000D03*
D13*
%TO.P,J12,2,Pin_2*%
%TO.N,SCL*%
X177752000Y-91186000D03*
%TO.P,J12,3,Pin_3*%
%TO.N,-BATT*%
X176252000Y-91186000D03*
%TO.P,J12,4,Pin_4*%
%TO.N,+5V*%
X174752000Y-91186000D03*
%TD*%
D17*
%TO.P,J13,1,Pin_1*%
%TO.N,-BATT*%
X168784400Y-91186000D03*
D13*
%TO.P,J13,2,Pin_2*%
%TO.N,WS2812*%
X167284400Y-91186000D03*
%TO.P,J13,3,Pin_3*%
%TO.N,+5V*%
X165784400Y-91186000D03*
%TD*%
D14*
%TO.P,,1*%
%TO.N,-BATT*%
X183896000Y-71678800D03*
%TD*%
D11*
%TO.P,J4,1,Pin_1*%
%TO.N,-BATT*%
X127609600Y-117906800D03*
%TD*%
D24*
%TO.P,BZ1,1,+*%
%TO.N,+5V*%
X127955200Y-78130400D03*
D22*
%TO.P,BZ1,2,-*%
%TO.N,Net-(BZ1--)*%
X120355200Y-78130400D03*
%TD*%
D25*
%TO.N,Net-(J6-Pin_1)*%
X156819600Y-87528400D03*
X163322000Y-92710000D03*
%TO.N,Push_Led*%
X155194000Y-73050400D03*
%TD*%
D26*
%TO.N,cmd buzzer*%
X132746200Y-97156200D02*
X132750000Y-97160000D01*
X131482600Y-97156200D02*
X132746200Y-97156200D01*
%TO.N,Adc batt*%
X130170000Y-81920000D02*
X132750000Y-81920000D01*
X128117600Y-83972400D02*
X130170000Y-81920000D01*
X125984000Y-102209600D02*
X128117600Y-100076000D01*
X125984000Y-104394000D02*
X125984000Y-102209600D01*
X123494800Y-106883200D02*
X125984000Y-104394000D01*
X122224800Y-106883200D02*
X123494800Y-106883200D01*
X128117600Y-100076000D02*
X128117600Y-83972400D01*
%TO.N,Push_Led*%
X133950000Y-78180000D02*
X132753800Y-79376200D01*
X133950000Y-73650000D02*
X133950000Y-78180000D01*
X155194000Y-73050400D02*
X155143200Y-73101200D01*
X155143200Y-73101200D02*
X134498800Y-73101200D01*
X134498800Y-73101200D02*
X133950000Y-73650000D01*
D27*
%TO.N,+BATT*%
X116992400Y-109321600D02*
X126085600Y-109321600D01*
X127609600Y-113131600D02*
X127609600Y-110845600D01*
D26*
X126034800Y-109372400D02*
X125730000Y-109372400D01*
X176348400Y-96320000D02*
X176351600Y-96316800D01*
D27*
X127609600Y-110845600D02*
X126085600Y-109321600D01*
X117297200Y-96977200D02*
X115570000Y-98704400D01*
D26*
X125679200Y-109423200D02*
X125730000Y-109372400D01*
D27*
X115570000Y-98704400D02*
X115570000Y-107899200D01*
D26*
X127609600Y-111252000D02*
X127609600Y-113131600D01*
D27*
X119024400Y-96977200D02*
X117297200Y-96977200D01*
X115570000Y-107899200D02*
X116992400Y-109321600D01*
D28*
X127609600Y-113131600D02*
X127152400Y-112674400D01*
D26*
%TO.N,Net-(BZ1--)*%
X117144800Y-83718400D02*
X119024400Y-81838800D01*
X119024400Y-79461200D02*
X120355200Y-78130400D01*
X119024400Y-81838800D02*
X119024400Y-79461200D01*
X119837200Y-78496000D02*
X120202800Y-78130400D01*
%TO.N,Net-(Q1-B)*%
X117144800Y-84988400D02*
X122885200Y-84988400D01*
X122885200Y-84988400D02*
X124256800Y-86360000D01*
%TO.N,unconnected-(U2-D19-Pad25)*%
X158217800Y-86996200D02*
X158152600Y-86996200D01*
X158152600Y-86996200D02*
X158573400Y-86996200D01*
D29*
%TO.N,Net-(J2-Pin_1)*%
X122631200Y-113131600D02*
X122631200Y-117906800D01*
D26*
%TO.N,Net-(J6-Pin_6)*%
X173158800Y-96421200D02*
X173156000Y-96418400D01*
D30*
%TO.N,Net-(J6-Pin_4)*%
X158800800Y-95859600D02*
X157378400Y-95859600D01*
X157378400Y-95859600D02*
X156819600Y-95300800D01*
X159315200Y-96374000D02*
X158800800Y-95859600D01*
X160477200Y-94843600D02*
X169570400Y-94843600D01*
X158152600Y-99696200D02*
X159315200Y-98533600D01*
X159054800Y-93421200D02*
X160477200Y-94843600D01*
X159315200Y-98533600D02*
X159315200Y-96374000D01*
X156819600Y-93726000D02*
X157124400Y-93421200D01*
X169570400Y-94843600D02*
X170156000Y-95429200D01*
X156819600Y-95300800D02*
X156819600Y-93726000D01*
X157124400Y-93421200D02*
X159054800Y-93421200D01*
X170156000Y-95429200D02*
X170156000Y-96418400D01*
D26*
X158152600Y-99696200D02*
X157453400Y-99696200D01*
%TO.N,Net-(J8-Pin_4)*%
X158152600Y-92076200D02*
X158471800Y-92076200D01*
D30*
X156819600Y-112115600D02*
X169824400Y-112115600D01*
X158152600Y-92076200D02*
X157148600Y-92076200D01*
X157148600Y-92076200D02*
X156362400Y-92862400D01*
X169824400Y-112115600D02*
X170158800Y-111781200D01*
X170158800Y-111781200D02*
X170158800Y-109220000D01*
X156362400Y-92862400D02*
X156362400Y-111658400D01*
X156362400Y-111658400D02*
X156819600Y-112115600D01*
%TO.N,Net-(J8-Pin_2)*%
X159589400Y-94616200D02*
X158152600Y-94616200D01*
X162255200Y-107086400D02*
X161747200Y-106578400D01*
X166725600Y-107086400D02*
X162255200Y-107086400D01*
X167158800Y-109220000D02*
X167158800Y-107519600D01*
X161747200Y-96774000D02*
X159589400Y-94616200D01*
X158430800Y-94894400D02*
X158152600Y-94616200D01*
X161747200Y-106578400D02*
X161747200Y-96774000D01*
X167158800Y-107519600D02*
X166725600Y-107086400D01*
D26*
%TO.N,Net-(J8-Pin_5)*%
X171658800Y-112262400D02*
X171658800Y-109220000D01*
X171399200Y-112522000D02*
X171658800Y-112262400D01*
X155956000Y-112064800D02*
X156413200Y-112522000D01*
X158152600Y-89536200D02*
X157504200Y-89536200D01*
X157504200Y-89536200D02*
X155956000Y-91084400D01*
X155956000Y-91084400D02*
X155956000Y-112064800D01*
X156413200Y-112522000D02*
X171399200Y-112522000D01*
%TO.N,Net-(J8-Pin_1)*%
X157378400Y-108661200D02*
X165100000Y-108661200D01*
X156870400Y-97739200D02*
X156870400Y-108153200D01*
X165100000Y-108661200D02*
X165658800Y-109220000D01*
X158152600Y-97156200D02*
X158126000Y-97129600D01*
X157480000Y-97129600D02*
X156870400Y-97739200D01*
X156870400Y-108153200D02*
X157378400Y-108661200D01*
X158126000Y-97129600D02*
X157480000Y-97129600D01*
%TO.N,SDA*%
X177749200Y-94183200D02*
X179252000Y-92680400D01*
X160375600Y-86766400D02*
X160375600Y-88900000D01*
X158152600Y-84456200D02*
X158152600Y-84543400D01*
X160375600Y-88900000D02*
X165658800Y-94183200D01*
X179252000Y-92680400D02*
X179252000Y-91186000D01*
X158152600Y-84543400D02*
X160375600Y-86766400D01*
X165658800Y-94183200D02*
X177749200Y-94183200D01*
%TO.N,SCL*%
X161137600Y-86410800D02*
X161137600Y-88900000D01*
X158471800Y-76836200D02*
X159509800Y-77874200D01*
X176987200Y-93776800D02*
X177752000Y-93012000D01*
X161137600Y-88900000D02*
X166014400Y-93776800D01*
X159509800Y-77874200D02*
X159512000Y-77872000D01*
X158152600Y-76836200D02*
X158471800Y-76836200D01*
X177752000Y-93012000D02*
X177752000Y-91186000D01*
X159512000Y-77872000D02*
X159512000Y-84785200D01*
X166014400Y-93776800D02*
X176987200Y-93776800D01*
X159512000Y-84785200D02*
X161137600Y-86410800D01*
%TO.N,WS2812*%
X167284400Y-91186000D02*
X167284400Y-91694000D01*
X161544000Y-88696800D02*
X161544000Y-77687600D01*
X166217600Y-92760800D02*
X165608000Y-92760800D01*
X161544000Y-77687600D02*
X158152600Y-74296200D01*
X167284400Y-91694000D02*
X166217600Y-92760800D01*
X165608000Y-92760800D02*
X161544000Y-88696800D01*
%TO.N,cmd buzzer*%
X129336800Y-95010400D02*
X131482600Y-97156200D01*
X129336800Y-86360000D02*
X129336800Y-95010400D01*
%TO.N,Net-(J6-Pin_1)*%
X156819600Y-87884000D02*
X156819600Y-87528400D01*
X157124400Y-88188800D02*
X156819600Y-87884000D01*
X163322000Y-92710000D02*
X163169600Y-92710000D01*
X158648400Y-88188800D02*
X157124400Y-88188800D01*
X163169600Y-92710000D02*
X158648400Y-88188800D01*
D30*
%TO.N,Push_Led*%
X175920400Y-77012800D02*
X178259600Y-79352000D01*
X164795200Y-75732000D02*
X164795200Y-76911200D01*
X172669200Y-77012800D02*
X175920400Y-77012800D01*
X184759600Y-80060800D02*
X178259600Y-80060800D01*
X166257600Y-74269600D02*
X164795200Y-75732000D01*
X172669200Y-77622400D02*
X172669200Y-77012800D01*
X178259600Y-79352000D02*
X178259600Y-80060800D01*
D26*
X155041600Y-73101200D02*
X155194000Y-73050400D01*
X155092400Y-73101200D02*
X155041600Y-73101200D01*
D30*
X178259600Y-80060800D02*
X178259600Y-80109200D01*
X172110400Y-78181200D02*
X172669200Y-77622400D01*
X164846000Y-76962000D02*
X166065200Y-78181200D01*
X166065200Y-78181200D02*
X172110400Y-78181200D01*
X164795200Y-76911200D02*
X164846000Y-76962000D01*
D26*
%TO.N,+3.3V*%
X176532800Y-75796400D02*
X177749200Y-77012800D01*
X158597600Y-111658400D02*
X168300400Y-111658400D01*
X177749200Y-77012800D02*
X185013600Y-77012800D01*
X168848400Y-96320000D02*
X168851600Y-96316800D01*
X168656000Y-111302800D02*
X168656000Y-96418400D01*
X158152600Y-109856200D02*
X158152600Y-111213400D01*
X168300400Y-111658400D02*
X168656000Y-111302800D01*
X170484800Y-98247200D02*
X168656000Y-96418400D01*
X176532800Y-71424800D02*
X176532800Y-75796400D01*
X176532800Y-71424800D02*
X176682400Y-71574400D01*
X186283600Y-78282800D02*
X186283600Y-92964000D01*
X158152600Y-111213400D02*
X158597600Y-111658400D01*
X186283600Y-92964000D02*
X181000400Y-98247200D01*
X185013600Y-77012800D02*
X186283600Y-78282800D01*
X181000400Y-98247200D02*
X170484800Y-98247200D01*
D27*
%TO.N,+5V*%
X165784400Y-89841200D02*
X166624000Y-89001600D01*
X127965200Y-73558400D02*
X129590800Y-71932800D01*
X174040800Y-89001600D02*
X174752000Y-89712800D01*
X160578800Y-71932800D02*
X162153600Y-73507600D01*
X162153600Y-73507600D02*
X162153600Y-87555200D01*
X126085600Y-80111600D02*
X127955200Y-78242000D01*
X126085600Y-92902400D02*
X120029600Y-92902400D01*
X120029600Y-92902400D02*
X119024400Y-91897200D01*
X165784400Y-91186000D02*
X165784400Y-89841200D01*
X126085600Y-92902400D02*
X126085600Y-80111600D01*
X162153600Y-87555200D02*
X165784400Y-91186000D01*
X174752000Y-89712800D02*
X174752000Y-91186000D01*
X127802800Y-78130400D02*
X127965200Y-77968000D01*
X127965200Y-77968000D02*
X127965200Y-73558400D01*
X166624000Y-89001600D02*
X174040800Y-89001600D01*
X127955200Y-78242000D02*
X127955200Y-78130400D01*
X129590800Y-71932800D02*
X160578800Y-71932800D01*
D30*
%TO.N,Net-(J14-Pin_2)*%
X175032800Y-75106400D02*
X174294800Y-75844400D01*
X175032800Y-71424800D02*
X175032800Y-75106400D01*
X174294800Y-75844400D02*
X171043600Y-75844400D01*
X171043600Y-75844400D02*
X169926000Y-76962000D01*
%TD*%
M02*
