%TF.GenerationSoftware,KiCad,Pcbnew,9.0.0*%
%TF.CreationDate,2025-08-04T22:37:53+02:00*%
%TF.ProjectId,Self balancing cube,53656c66-2062-4616-9c61-6e63696e6720,rev?*%
%TF.SameCoordinates,Original*%
%TF.FileFunction,Copper,L2,Bot*%
%TF.FilePolarity,Positive*%
%FSLAX46Y46*%
G04 Gerber Fmt 4.6, Leading zero omitted, Abs format (unit mm)*
G04 Created by KiCad (PCBNEW 9.0.0) date 2025-08-04 22:37:53*
%MOMM*%
%LPD*%
G01*
G04 APERTURE LIST*
G04 Aperture macros list*
%AMRoundRect*
0 Rectangle with rounded corners*
0 $1 Rounding radius*
0 $2 $3 $4 $5 $6 $7 $8 $9 X,Y pos of 4 corners*
0 Add a 4 corners polygon primitive as box body*
4,1,4,$2,$3,$4,$5,$6,$7,$8,$9,$2,$3,0*
0 Add four circle primitives for the rounded corners*
1,1,$1+$1,$2,$3*
1,1,$1+$1,$4,$5*
1,1,$1+$1,$6,$7*
1,1,$1+$1,$8,$9*
0 Add four rect primitives between the rounded corners*
20,1,$1+$1,$2,$3,$4,$5,0*
20,1,$1+$1,$4,$5,$6,$7,0*
20,1,$1+$1,$6,$7,$8,$9,0*
20,1,$1+$1,$8,$9,$2,$3,0*%
G04 Aperture macros list end*
%TA.AperFunction,ComponentPad*%
%ADD10C,1.600000*%
%TD*%
%TA.AperFunction,ComponentPad*%
%ADD11RoundRect,0.250002X-1.699998X-1.699998X1.699998X-1.699998X1.699998X1.699998X-1.699998X1.699998X0*%
%TD*%
%TA.AperFunction,ComponentPad*%
%ADD12RoundRect,0.250000X-0.265000X-0.615000X0.265000X-0.615000X0.265000X0.615000X-0.265000X0.615000X0*%
%TD*%
%TA.AperFunction,ComponentPad*%
%ADD13O,1.030000X1.730000*%
%TD*%
%TA.AperFunction,ComponentPad*%
%ADD14C,6.000000*%
%TD*%
%TA.AperFunction,ComponentPad*%
%ADD15C,1.400000*%
%TD*%
%TA.AperFunction,ComponentPad*%
%ADD16O,1.400000X1.400000*%
%TD*%
%TA.AperFunction,ComponentPad*%
%ADD17RoundRect,0.250000X0.265000X0.615000X-0.265000X0.615000X-0.265000X-0.615000X0.265000X-0.615000X0*%
%TD*%
%TA.AperFunction,ComponentPad*%
%ADD18R,1.500000X1.050000*%
%TD*%
%TA.AperFunction,ComponentPad*%
%ADD19O,1.500000X1.050000*%
%TD*%
%TA.AperFunction,ComponentPad*%
%ADD20R,2.000000X1.905000*%
%TD*%
%TA.AperFunction,ComponentPad*%
%ADD21O,2.000000X1.905000*%
%TD*%
%TA.AperFunction,ComponentPad*%
%ADD22C,2.000000*%
%TD*%
%TA.AperFunction,ComponentPad*%
%ADD23RoundRect,0.250001X-0.799999X-0.799999X0.799999X-0.799999X0.799999X0.799999X-0.799999X0.799999X0*%
%TD*%
%TA.AperFunction,ComponentPad*%
%ADD24R,2.000000X2.000000*%
%TD*%
%TA.AperFunction,ViaPad*%
%ADD25C,0.600000*%
%TD*%
%TA.AperFunction,Conductor*%
%ADD26C,0.630000*%
%TD*%
%TA.AperFunction,Conductor*%
%ADD27C,0.160000*%
%TD*%
%TA.AperFunction,Conductor*%
%ADD28C,0.200000*%
%TD*%
G04 APERTURE END LIST*
D10*
%TO.P,U2,1,EN*%
%TO.N,unconnected-(U2-EN-Pad1)*%
X132750000Y-74300000D03*
%TO.P,U2,2,VP*%
%TO.N,unconnected-(U2-VP-Pad2)*%
X132750000Y-76840000D03*
%TO.P,U2,3,VN*%
%TO.N,Push_Led*%
X132750000Y-79380000D03*
%TO.P,U2,4,D34*%
%TO.N,Adc batt*%
X132750000Y-81920000D03*
%TO.P,U2,5,D35*%
%TO.N,Net-(J6-Pin_1)*%
X132750000Y-84460000D03*
%TO.P,U2,6,D32*%
%TO.N,Net-(J6-Pin_5)*%
X132750000Y-87000000D03*
%TO.P,U2,7,D33*%
%TO.N,Net-(J6-Pin_2)*%
X132750000Y-89540000D03*
%TO.P,U2,8,D25*%
%TO.N,Net-(J7-Pin_5)*%
X132750000Y-92080000D03*
%TO.P,U2,9,D26*%
%TO.N,Net-(J6-Pin_6)*%
X132750000Y-94620000D03*
%TO.P,U2,10,D27*%
%TO.N,cmd buzzer*%
X132750000Y-97160000D03*
%TO.P,U2,11,D14*%
%TO.N,Net-(J7-Pin_2)*%
X132750000Y-99700000D03*
%TO.P,U2,12,D12*%
%TO.N,unconnected-(U2-D12-Pad12)*%
X132750000Y-102240000D03*
%TO.P,U2,13,D13*%
%TO.N,Net-(J7-Pin_1)*%
X132750000Y-104780000D03*
%TO.P,U2,14,GND*%
%TO.N,-BATT*%
X132750000Y-107320000D03*
%TO.P,U2,15,VIN*%
%TO.N,+5V*%
X132750000Y-109860000D03*
%TO.P,U2,16,3V3*%
%TO.N,+3.3V*%
X158150000Y-109860000D03*
%TO.P,U2,17,GND*%
%TO.N,unconnected-(U2-GND-Pad17)*%
X158150000Y-107320000D03*
%TO.P,U2,18,D15*%
%TO.N,Net-(J7-Pin_4)*%
X158150000Y-104780000D03*
%TO.P,U2,19,D2*%
%TO.N,unconnected-(U2-D2-Pad19)*%
X158150000Y-102240000D03*
%TO.P,U2,20,D4*%
%TO.N,Net-(J6-Pin_4)*%
X158150000Y-99700000D03*
%TO.P,U2,21,RX2*%
%TO.N,Net-(J8-Pin_1)*%
X158150000Y-97160000D03*
%TO.P,U2,22,TX2*%
%TO.N,Net-(J8-Pin_2)*%
X158150000Y-94620000D03*
%TO.P,U2,23,D5*%
%TO.N,Net-(J8-Pin_4)*%
X158150000Y-92080000D03*
%TO.P,U2,24,D18*%
%TO.N,Net-(J8-Pin_5)*%
X158150000Y-89540000D03*
%TO.P,U2,25,D19*%
%TO.N,unconnected-(U2-D19-Pad25)*%
X158150000Y-87000000D03*
%TO.P,U2,26,D21*%
%TO.N,SDA*%
X158150000Y-84460000D03*
%TO.P,U2,27,RX0*%
%TO.N,unconnected-(U2-RX0-Pad27)*%
X158150000Y-81920000D03*
%TO.P,U2,28,TX0*%
%TO.N,unconnected-(U2-TX0-Pad28)*%
X158150000Y-79380000D03*
%TO.P,U2,29,D22*%
%TO.N,SCL*%
X158150000Y-76840000D03*
%TO.P,U2,30,D23*%
%TO.N,WS2812*%
X158150000Y-74300000D03*
%TD*%
%TO.P,C1,1*%
%TO.N,Adc batt*%
X122224800Y-106883200D03*
%TO.P,C1,2*%
%TO.N,-BATT*%
X119724800Y-106883200D03*
%TD*%
D11*
%TO.P,J1,1,Pin_1*%
%TO.N,+BATT*%
X127609600Y-113131600D03*
%TD*%
D12*
%TO.P,J8,1,Pin_1*%
%TO.N,Net-(J8-Pin_1)*%
X165658800Y-109220000D03*
D13*
%TO.P,J8,2,Pin_2*%
%TO.N,Net-(J8-Pin_2)*%
X167158800Y-109220000D03*
%TO.P,J8,3,Pin_3*%
%TO.N,+3.3V*%
X168658800Y-109220000D03*
%TO.P,J8,4,Pin_4*%
%TO.N,Net-(J8-Pin_4)*%
X170158800Y-109220000D03*
%TO.P,J8,5,Pin_5*%
%TO.N,Net-(J8-Pin_5)*%
X171658800Y-109220000D03*
%TO.P,J8,6,Pin_6*%
%TO.N,Net-(J6-Pin_6)*%
X173158800Y-109220000D03*
%TO.P,J8,7,Pin_7*%
%TO.N,-BATT*%
X174658800Y-109220000D03*
%TO.P,J8,8,Pin_8*%
%TO.N,+BATT*%
X176158800Y-109220000D03*
%TD*%
D10*
%TO.P,C2,1*%
%TO.N,Push_Led*%
X166257600Y-74269600D03*
%TO.P,C2,2*%
%TO.N,-BATT*%
X168757600Y-74269600D03*
%TD*%
D14*
%TO.P,,1*%
%TO.N,-BATT*%
X183896000Y-117144800D03*
%TD*%
D12*
%TO.P,J7,1,Pin_1*%
%TO.N,Net-(J7-Pin_1)*%
X165658800Y-102819200D03*
D13*
%TO.P,J7,2,Pin_2*%
%TO.N,Net-(J7-Pin_2)*%
X167158800Y-102819200D03*
%TO.P,J7,3,Pin_3*%
%TO.N,+3.3V*%
X168658800Y-102819200D03*
%TO.P,J7,4,Pin_4*%
%TO.N,Net-(J7-Pin_4)*%
X170158800Y-102819200D03*
%TO.P,J7,5,Pin_5*%
%TO.N,Net-(J7-Pin_5)*%
X171658800Y-102819200D03*
%TO.P,J7,6,Pin_6*%
%TO.N,Net-(J6-Pin_6)*%
X173158800Y-102819200D03*
%TO.P,J7,7,Pin_7*%
%TO.N,-BATT*%
X174658800Y-102819200D03*
%TO.P,J7,8,Pin_8*%
%TO.N,+BATT*%
X176158800Y-102819200D03*
%TD*%
D15*
%TO.P,R2,1*%
%TO.N,+BATT*%
X126085600Y-109321600D03*
D16*
%TO.P,R2,2*%
%TO.N,Adc batt*%
X126085600Y-104241600D03*
%TD*%
D15*
%TO.P,R5,1*%
%TO.N,Push_Led*%
X164846000Y-76962000D03*
D16*
%TO.P,R5,2*%
%TO.N,Net-(J14-Pin_2)*%
X169926000Y-76962000D03*
%TD*%
D10*
%TO.P,C3,1*%
%TO.N,+5V*%
X126085600Y-92902400D03*
%TO.P,C3,2*%
%TO.N,-BATT*%
X126085600Y-95402400D03*
%TD*%
D17*
%TO.P,J14,1,Pin_1*%
%TO.N,+3.3V*%
X176532800Y-71424800D03*
D13*
%TO.P,J14,2,Pin_2*%
%TO.N,Net-(J14-Pin_2)*%
X175032800Y-71424800D03*
%TO.P,J14,3,Pin_3*%
%TO.N,-BATT*%
X173532800Y-71424800D03*
%TD*%
D18*
%TO.P,Q1,1,E*%
%TO.N,-BATT*%
X117144800Y-86258400D03*
D19*
%TO.P,Q1,2,B*%
%TO.N,Net-(Q1-B)*%
X117144800Y-84988400D03*
%TO.P,Q1,3,C*%
%TO.N,Net-(BZ1--)*%
X117144800Y-83718400D03*
%TD*%
D20*
%TO.P,U1,1,VI*%
%TO.N,+BATT*%
X119024400Y-96977200D03*
D21*
%TO.P,U1,2,GND*%
%TO.N,-BATT*%
X119024400Y-94437200D03*
%TO.P,U1,3,VO*%
%TO.N,+5V*%
X119024400Y-91897200D03*
%TD*%
D15*
%TO.P,R4,1*%
%TO.N,Push_Led*%
X172669200Y-77012800D03*
D16*
%TO.P,R4,2*%
%TO.N,+3.3V*%
X177749200Y-77012800D03*
%TD*%
D14*
%TO.P,1,1*%
%TO.N,-BATT*%
X117043200Y-71628000D03*
%TD*%
D22*
%TO.P,SW2,1,1*%
%TO.N,-BATT*%
X184759600Y-84560800D03*
X178259600Y-84560800D03*
%TO.P,SW2,2,2*%
%TO.N,Push_Led*%
X184759600Y-80060800D03*
X178259600Y-80060800D03*
%TD*%
D12*
%TO.P,J6,1,Pin_1*%
%TO.N,Net-(J6-Pin_1)*%
X165656000Y-96418400D03*
D13*
%TO.P,J6,2,Pin_2*%
%TO.N,Net-(J6-Pin_2)*%
X167156000Y-96418400D03*
%TO.P,J6,3,Pin_3*%
%TO.N,+3.3V*%
X168656000Y-96418400D03*
%TO.P,J6,4,Pin_4*%
%TO.N,Net-(J6-Pin_4)*%
X170156000Y-96418400D03*
%TO.P,J6,5,Pin_5*%
%TO.N,Net-(J6-Pin_5)*%
X171656000Y-96418400D03*
%TO.P,J6,6,Pin_6*%
%TO.N,Net-(J6-Pin_6)*%
X173156000Y-96418400D03*
%TO.P,J6,7,Pin_7*%
%TO.N,-BATT*%
X174656000Y-96418400D03*
%TO.P,J6,8,Pin_8*%
%TO.N,+BATT*%
X176156000Y-96418400D03*
%TD*%
D23*
%TO.P,J5,1,Pin_1*%
%TO.N,-BATT*%
X118567200Y-112268000D03*
%TD*%
D11*
%TO.P,J2,1,Pin_1*%
%TO.N,Net-(J2-Pin_1)*%
X122631200Y-113131600D03*
%TD*%
%TO.P,J3,1,Pin_1*%
%TO.N,Net-(J2-Pin_1)*%
X122631200Y-117906800D03*
%TD*%
D15*
%TO.P,R3,1*%
%TO.N,Adc batt*%
X125984000Y-102108000D03*
D16*
%TO.P,R3,2*%
%TO.N,-BATT*%
X120904000Y-102108000D03*
%TD*%
D15*
%TO.P,R1,1*%
%TO.N,cmd buzzer*%
X129336800Y-86360000D03*
D16*
%TO.P,R1,2*%
%TO.N,Net-(Q1-B)*%
X124256800Y-86360000D03*
%TD*%
D14*
%TO.P,1,1*%
%TO.N,-BATT*%
X117043200Y-117144800D03*
%TD*%
D17*
%TO.P,J12,1,Pin_1*%
%TO.N,SDA*%
X179252000Y-91186000D03*
D13*
%TO.P,J12,2,Pin_2*%
%TO.N,SCL*%
X177752000Y-91186000D03*
%TO.P,J12,3,Pin_3*%
%TO.N,-BATT*%
X176252000Y-91186000D03*
%TO.P,J12,4,Pin_4*%
%TO.N,+5V*%
X174752000Y-91186000D03*
%TD*%
D17*
%TO.P,J13,1,Pin_1*%
%TO.N,-BATT*%
X168784400Y-91186000D03*
D13*
%TO.P,J13,2,Pin_2*%
%TO.N,WS2812*%
X167284400Y-91186000D03*
%TO.P,J13,3,Pin_3*%
%TO.N,+5V*%
X165784400Y-91186000D03*
%TD*%
D14*
%TO.P,,1*%
%TO.N,-BATT*%
X183896000Y-71678800D03*
%TD*%
D11*
%TO.P,J4,1,Pin_1*%
%TO.N,-BATT*%
X127609600Y-117906800D03*
%TD*%
D24*
%TO.P,BZ1,1,+*%
%TO.N,+5V*%
X127955200Y-78130400D03*
D22*
%TO.P,BZ1,2,-*%
%TO.N,Net-(BZ1--)*%
X120355200Y-78130400D03*
%TD*%
D25*
%TO.N,Net-(J6-Pin_1)*%
X156819600Y-87528400D03*
X163322000Y-92710000D03*
%TO.N,Push_Led*%
X155194000Y-73050400D03*
%TD*%
D26*
%TO.N,+5V*%
X132746200Y-109856200D02*
X132750000Y-109860000D01*
X131482600Y-109856200D02*
X132746200Y-109856200D01*
D27*
%TO.N,Net-(J6-Pin_6)*%
X133850000Y-95720000D02*
X132750000Y-94620000D01*
X133850000Y-97900000D02*
X133850000Y-95720000D01*
X130600400Y-98399600D02*
X133350400Y-98399600D01*
X130759200Y-105867200D02*
X130302000Y-105410000D01*
X135128000Y-105867200D02*
X130759200Y-105867200D01*
X135534400Y-111556800D02*
X135534400Y-106273600D01*
X130302000Y-105410000D02*
X130302000Y-98698000D01*
X136093200Y-112115600D02*
X135534400Y-111556800D01*
X135534400Y-106273600D02*
X135128000Y-105867200D01*
X133350400Y-98399600D02*
X133850000Y-97900000D01*
X172567600Y-112115600D02*
X136093200Y-112115600D01*
X130302000Y-98698000D02*
X130600400Y-98399600D01*
X173158800Y-111524400D02*
X172567600Y-112115600D01*
X173158800Y-109220000D02*
X173158800Y-111524400D01*
%TO.N,Net-(J7-Pin_1)*%
X134145400Y-103479600D02*
X132845000Y-104780000D01*
X132845000Y-104780000D02*
X132750000Y-104780000D01*
X164998400Y-103479600D02*
X134145400Y-103479600D01*
X165658800Y-102819200D02*
X164998400Y-103479600D01*
%TO.N,Net-(J7-Pin_5)*%
X134300000Y-97900000D02*
X134300000Y-93630000D01*
X134748800Y-98348800D02*
X134300000Y-97900000D01*
X171246800Y-98348800D02*
X134748800Y-98348800D01*
X134300000Y-93630000D02*
X132750000Y-92080000D01*
X171658800Y-98760800D02*
X171246800Y-98348800D01*
X171658800Y-102819200D02*
X171658800Y-98760800D01*
D28*
%TO.N,Net-(J6-Pin_2)*%
X165658800Y-94132400D02*
X166471600Y-94132400D01*
X157429200Y-90830400D02*
X162356800Y-90830400D01*
X166471600Y-94132400D02*
X167081200Y-94742000D01*
X156135000Y-89536200D02*
X157429200Y-90830400D01*
X132753800Y-89536200D02*
X156135000Y-89536200D01*
X162356800Y-90830400D02*
X165658800Y-94132400D01*
X167081200Y-96343600D02*
X167156000Y-96418400D01*
X132750000Y-89540000D02*
X132753800Y-89536200D01*
X167081200Y-94742000D02*
X167081200Y-96343600D01*
D27*
%TO.N,Net-(J6-Pin_5)*%
X171653200Y-94386400D02*
X171653200Y-96415600D01*
X171653200Y-96415600D02*
X171656000Y-96418400D01*
X166040800Y-93752400D02*
X171019200Y-93752400D01*
X160477200Y-88188800D02*
X166040800Y-93752400D01*
X133938800Y-88188800D02*
X160477200Y-88188800D01*
X171019200Y-93752400D02*
X171653200Y-94386400D01*
X132746200Y-86996200D02*
X133938800Y-88188800D01*
%TO.N,Net-(J6-Pin_1)*%
X132753800Y-84456200D02*
X132750000Y-84460000D01*
X155830200Y-84456200D02*
X132753800Y-84456200D01*
X156768800Y-87477600D02*
X156768800Y-85394800D01*
X156768800Y-85394800D02*
X155830200Y-84456200D01*
%TO.N,+BATT*%
X176351600Y-96316800D02*
X176351600Y-95681200D01*
D26*
X176174400Y-111760000D02*
X176174400Y-96436800D01*
X127609600Y-113131600D02*
X174802800Y-113131600D01*
X174802800Y-113131600D02*
X176174400Y-111760000D01*
X176174400Y-96436800D02*
X176156000Y-96418400D01*
D28*
%TO.N,unconnected-(U2-D19-Pad25)*%
X158152600Y-86996200D02*
X158227600Y-87071200D01*
D27*
%TO.N,Net-(J6-Pin_6)*%
X173156000Y-96418400D02*
X173156000Y-109217200D01*
X173156000Y-109217200D02*
X173158800Y-109220000D01*
%TO.N,Net-(J7-Pin_4)*%
X158152600Y-104776200D02*
X169696200Y-104776200D01*
X170158800Y-104313600D02*
X170158800Y-102819200D01*
X169696200Y-104776200D02*
X170158800Y-104313600D01*
%TO.N,Net-(J7-Pin_2)*%
X134213600Y-100990400D02*
X132919400Y-99696200D01*
X167158800Y-102819200D02*
X167158800Y-101525200D01*
X167158800Y-101525200D02*
X166624000Y-100990400D01*
X166624000Y-100990400D02*
X134213600Y-100990400D01*
%TO.N,Net-(J6-Pin_1)*%
X165656000Y-95094800D02*
X165656000Y-96418400D01*
X163322000Y-92710000D02*
X163322000Y-92760800D01*
X163322000Y-92760800D02*
X165656000Y-95094800D01*
%TO.N,Push_Led*%
X164642800Y-74269600D02*
X166257600Y-74269600D01*
X155194000Y-73050400D02*
X163423600Y-73050400D01*
X163423600Y-73050400D02*
X164642800Y-74269600D01*
D26*
%TO.N,+5V*%
X127802800Y-106176400D02*
X131482600Y-109856200D01*
X127802800Y-78130400D02*
X127802800Y-106176400D01*
D28*
%TO.N,unconnected-(U2-D2-Pad19)*%
X158179200Y-102209600D02*
X158152600Y-102236200D01*
%TD*%
%TA.AperFunction,Conductor*%
%TO.N,-BATT*%
G36*
X115653096Y-117720600D02*
G01*
X115760285Y-117930971D01*
X115899064Y-118121984D01*
X116066016Y-118288936D01*
X116257029Y-118427715D01*
X116467400Y-118534904D01*
X116530589Y-118555435D01*
X115273763Y-119812261D01*
X115276463Y-119836214D01*
X115264191Y-119896156D01*
X115219029Y-119937437D01*
X115178086Y-119946300D01*
X114340700Y-119946300D01*
X114282509Y-119927393D01*
X114246545Y-119877893D01*
X114241700Y-119847300D01*
X114241700Y-119009913D01*
X114260607Y-118951722D01*
X114310107Y-118915758D01*
X114351786Y-118911536D01*
X114375737Y-118914235D01*
X115632563Y-117657408D01*
X115653096Y-117720600D01*
G37*
%TD.AperFunction*%
%TA.AperFunction,Conductor*%
G36*
X182135287Y-68845407D02*
G01*
X182171251Y-68894907D01*
X182171251Y-68956093D01*
X182135287Y-69005593D01*
X182129767Y-69009326D01*
X182126564Y-69011338D01*
X183383390Y-70268164D01*
X183320200Y-70288696D01*
X183109829Y-70395885D01*
X182918816Y-70534664D01*
X182751864Y-70701616D01*
X182613085Y-70892629D01*
X182505896Y-71103000D01*
X182485364Y-71166190D01*
X181228538Y-69909364D01*
X181090870Y-70128462D01*
X180934927Y-70452283D01*
X180934926Y-70452285D01*
X180816220Y-70791527D01*
X180736242Y-71141933D01*
X180736241Y-71141939D01*
X180696000Y-71499075D01*
X180696000Y-71858524D01*
X180736241Y-72215660D01*
X180736242Y-72215666D01*
X180816220Y-72566072D01*
X180934926Y-72905314D01*
X180934927Y-72905316D01*
X181090870Y-73229137D01*
X181228538Y-73448234D01*
X182485363Y-72191408D01*
X182505896Y-72254600D01*
X182613085Y-72464971D01*
X182751864Y-72655984D01*
X182918816Y-72822936D01*
X183109829Y-72961715D01*
X183320200Y-73068904D01*
X183383389Y-73089435D01*
X182126564Y-74346260D01*
X182345662Y-74483929D01*
X182669483Y-74639872D01*
X182669485Y-74639873D01*
X183008727Y-74758579D01*
X183359133Y-74838557D01*
X183359139Y-74838558D01*
X183716275Y-74878799D01*
X183716293Y-74878800D01*
X184075707Y-74878800D01*
X184075724Y-74878799D01*
X184432860Y-74838558D01*
X184432866Y-74838557D01*
X184783272Y-74758579D01*
X185122514Y-74639873D01*
X185122516Y-74639872D01*
X185446337Y-74483929D01*
X185665434Y-74346260D01*
X184408609Y-73089436D01*
X184471800Y-73068904D01*
X184682171Y-72961715D01*
X184873184Y-72822936D01*
X185040136Y-72655984D01*
X185178915Y-72464971D01*
X185286104Y-72254600D01*
X185306636Y-72191409D01*
X186563461Y-73448235D01*
X186587414Y-73445536D01*
X186647356Y-73457808D01*
X186688637Y-73502970D01*
X186697500Y-73543913D01*
X186697500Y-115279685D01*
X186678593Y-115337876D01*
X186629093Y-115373840D01*
X186587416Y-115378063D01*
X186563461Y-115375363D01*
X185306635Y-116632189D01*
X185286104Y-116569000D01*
X185178915Y-116358629D01*
X185040136Y-116167616D01*
X184873184Y-116000664D01*
X184682171Y-115861885D01*
X184471800Y-115754696D01*
X184408608Y-115734163D01*
X185665434Y-114477338D01*
X185446337Y-114339670D01*
X185122516Y-114183727D01*
X185122514Y-114183726D01*
X184783272Y-114065020D01*
X184432866Y-113985042D01*
X184432860Y-113985041D01*
X184075724Y-113944800D01*
X183716275Y-113944800D01*
X183359139Y-113985041D01*
X183359133Y-113985042D01*
X183008727Y-114065020D01*
X182669485Y-114183726D01*
X182669483Y-114183727D01*
X182345662Y-114339670D01*
X182126564Y-114477338D01*
X183383390Y-115734164D01*
X183320200Y-115754696D01*
X183109829Y-115861885D01*
X182918816Y-116000664D01*
X182751864Y-116167616D01*
X182613085Y-116358629D01*
X182505896Y-116569000D01*
X182485364Y-116632190D01*
X181228538Y-115375364D01*
X181090870Y-115594462D01*
X180934927Y-115918283D01*
X180934926Y-115918285D01*
X180816220Y-116257527D01*
X180736242Y-116607933D01*
X180736241Y-116607939D01*
X180696000Y-116965075D01*
X180696000Y-117324524D01*
X180736241Y-117681660D01*
X180736242Y-117681666D01*
X180816220Y-118032072D01*
X180934926Y-118371314D01*
X180934927Y-118371316D01*
X181090870Y-118695137D01*
X181228538Y-118914234D01*
X182485363Y-117657408D01*
X182505896Y-117720600D01*
X182613085Y-117930971D01*
X182751864Y-118121984D01*
X182918816Y-118288936D01*
X183109829Y-118427715D01*
X183320200Y-118534904D01*
X183383389Y-118555435D01*
X182126563Y-119812261D01*
X182129263Y-119836214D01*
X182116991Y-119896156D01*
X182071829Y-119937437D01*
X182030886Y-119946300D01*
X129807085Y-119946300D01*
X129748894Y-119927393D01*
X129712930Y-119877893D01*
X129712930Y-119816707D01*
X129713640Y-119814603D01*
X129756749Y-119691400D01*
X129759599Y-119661010D01*
X129759600Y-119661009D01*
X129759600Y-118541801D01*
X129759599Y-118541800D01*
X128688959Y-118541800D01*
X128768020Y-118386633D01*
X128828821Y-118199509D01*
X128859600Y-118005177D01*
X128859600Y-117808423D01*
X128828821Y-117614091D01*
X128768020Y-117426967D01*
X128688959Y-117271800D01*
X129759599Y-117271800D01*
X129759600Y-117271799D01*
X129759600Y-116152591D01*
X129759599Y-116152589D01*
X129756749Y-116122199D01*
X129711944Y-115994151D01*
X129631396Y-115885013D01*
X129631386Y-115885003D01*
X129522248Y-115804455D01*
X129394200Y-115759650D01*
X129363810Y-115756800D01*
X128244601Y-115756800D01*
X128244600Y-115756801D01*
X128244600Y-116827440D01*
X128089433Y-116748380D01*
X127902309Y-116687579D01*
X127707977Y-116656800D01*
X127511223Y-116656800D01*
X127316891Y-116687579D01*
X127129767Y-116748380D01*
X126974600Y-116827440D01*
X126974600Y-115756801D01*
X126974599Y-115756800D01*
X125855389Y-115756800D01*
X125824999Y-115759650D01*
X125696951Y-115804455D01*
X125587813Y-115885003D01*
X125587803Y-115885013D01*
X125507255Y-115994151D01*
X125462450Y-116122199D01*
X125459600Y-116152589D01*
X125459600Y-117271799D01*
X125459601Y-117271800D01*
X126530241Y-117271800D01*
X126451180Y-117426967D01*
X126390379Y-117614091D01*
X126359600Y-117808423D01*
X126359600Y-118005177D01*
X126390379Y-118199509D01*
X126451180Y-118386633D01*
X126530241Y-118541800D01*
X125459601Y-118541800D01*
X125459600Y-118541801D01*
X125459600Y-119661010D01*
X125462450Y-119691400D01*
X125505560Y-119814603D01*
X125506932Y-119875773D01*
X125472088Y-119926067D01*
X125414336Y-119946275D01*
X125412115Y-119946300D01*
X124829214Y-119946300D01*
X124771023Y-119927393D01*
X124735059Y-119877893D01*
X124735059Y-119816707D01*
X124735770Y-119814602D01*
X124736589Y-119812261D01*
X124778846Y-119691498D01*
X124781699Y-119661071D01*
X124781700Y-119661071D01*
X124781700Y-116152529D01*
X124781699Y-116152527D01*
X124778846Y-116122106D01*
X124778846Y-116122102D01*
X124733993Y-115993919D01*
X124653349Y-115884651D01*
X124544081Y-115804007D01*
X124544080Y-115804006D01*
X124415902Y-115759155D01*
X124415893Y-115759153D01*
X124385472Y-115756300D01*
X124385464Y-115756300D01*
X120876936Y-115756300D01*
X120876927Y-115756300D01*
X120846506Y-115759153D01*
X120846497Y-115759155D01*
X120718319Y-115804006D01*
X120609052Y-115884650D01*
X120609050Y-115884652D01*
X120528406Y-115993919D01*
X120483555Y-116122097D01*
X120483553Y-116122106D01*
X120480700Y-116152527D01*
X120480700Y-119661072D01*
X120483553Y-119691493D01*
X120483555Y-119691502D01*
X120526630Y-119814602D01*
X120528003Y-119875772D01*
X120493159Y-119926067D01*
X120435408Y-119946275D01*
X120433186Y-119946300D01*
X118908313Y-119946300D01*
X118850122Y-119927393D01*
X118814158Y-119877893D01*
X118809936Y-119836214D01*
X118812635Y-119812261D01*
X117555809Y-118555436D01*
X117619000Y-118534904D01*
X117829371Y-118427715D01*
X118020384Y-118288936D01*
X118187336Y-118121984D01*
X118326115Y-117930971D01*
X118433304Y-117720600D01*
X118453836Y-117657409D01*
X119710660Y-118914234D01*
X119848329Y-118695137D01*
X120004272Y-118371316D01*
X120004273Y-118371314D01*
X120122979Y-118032072D01*
X120202957Y-117681666D01*
X120202958Y-117681660D01*
X120243199Y-117324524D01*
X120243200Y-117324507D01*
X120243200Y-116965092D01*
X120243199Y-116965075D01*
X120202958Y-116607939D01*
X120202957Y-116607933D01*
X120122979Y-116257527D01*
X120004273Y-115918285D01*
X120004272Y-115918283D01*
X119848329Y-115594462D01*
X119710660Y-115375364D01*
X118453835Y-116632189D01*
X118433304Y-116569000D01*
X118326115Y-116358629D01*
X118187336Y-116167616D01*
X118020384Y-116000664D01*
X117829371Y-115861885D01*
X117619000Y-115754696D01*
X117555808Y-115734163D01*
X118812634Y-114477338D01*
X118593537Y-114339670D01*
X118269716Y-114183727D01*
X118269714Y-114183726D01*
X117930472Y-114065020D01*
X117580066Y-113985042D01*
X117580060Y-113985041D01*
X117222924Y-113944800D01*
X116863475Y-113944800D01*
X116506339Y-113985041D01*
X116506333Y-113985042D01*
X116155927Y-114065020D01*
X115816685Y-114183726D01*
X115816683Y-114183727D01*
X115492862Y-114339670D01*
X115273764Y-114477338D01*
X116530590Y-115734164D01*
X116467400Y-115754696D01*
X116257029Y-115861885D01*
X116066016Y-116000664D01*
X115899064Y-116167616D01*
X115760285Y-116358629D01*
X115653096Y-116569000D01*
X115632564Y-116632190D01*
X114375738Y-115375364D01*
X114351785Y-115378063D01*
X114291843Y-115365789D01*
X114250563Y-115320627D01*
X114241700Y-115279685D01*
X114241700Y-112903001D01*
X117317200Y-112903001D01*
X117317200Y-113122210D01*
X117320050Y-113152600D01*
X117364855Y-113280648D01*
X117445403Y-113389786D01*
X117445413Y-113389796D01*
X117554551Y-113470344D01*
X117682599Y-113515149D01*
X117712989Y-113517999D01*
X117712991Y-113518000D01*
X117932199Y-113518000D01*
X117932200Y-113517999D01*
X117932200Y-112903001D01*
X119202200Y-112903001D01*
X119202200Y-113517999D01*
X119202201Y-113518000D01*
X119421409Y-113518000D01*
X119421410Y-113517999D01*
X119451800Y-113515149D01*
X119579848Y-113470344D01*
X119688986Y-113389796D01*
X119688996Y-113389786D01*
X119769544Y-113280648D01*
X119814349Y-113152600D01*
X119817199Y-113122210D01*
X119817200Y-113122209D01*
X119817200Y-112903001D01*
X119817199Y-112903000D01*
X119202201Y-112903000D01*
X119202200Y-112903001D01*
X117932200Y-112903001D01*
X117932199Y-112903000D01*
X117317201Y-112903000D01*
X117317200Y-112903001D01*
X114241700Y-112903001D01*
X114241700Y-112195591D01*
X118017200Y-112195591D01*
X118017200Y-112340409D01*
X118054682Y-112480292D01*
X118127090Y-112605708D01*
X118229492Y-112708110D01*
X118354908Y-112780518D01*
X118494791Y-112818000D01*
X118639609Y-112818000D01*
X118779492Y-112780518D01*
X118904908Y-112708110D01*
X119007310Y-112605708D01*
X119079718Y-112480292D01*
X119117200Y-112340409D01*
X119117200Y-112195591D01*
X119079718Y-112055708D01*
X119007310Y-111930292D01*
X118904908Y-111827890D01*
X118779492Y-111755482D01*
X118639609Y-111718000D01*
X118494791Y-111718000D01*
X118354908Y-111755482D01*
X118229492Y-111827890D01*
X118127090Y-111930292D01*
X118054682Y-112055708D01*
X118017200Y-112195591D01*
X114241700Y-112195591D01*
X114241700Y-111413789D01*
X117317200Y-111413789D01*
X117317200Y-111632999D01*
X117317201Y-111633000D01*
X117932199Y-111633000D01*
X117932200Y-111632999D01*
X117932200Y-111018001D01*
X119202200Y-111018001D01*
X119202200Y-111632999D01*
X119202201Y-111633000D01*
X119817199Y-111633000D01*
X119817200Y-111632999D01*
X119817200Y-111413791D01*
X119817199Y-111413787D01*
X119814431Y-111384265D01*
X119814349Y-111383399D01*
X119812224Y-111377327D01*
X120480700Y-111377327D01*
X120480700Y-114885872D01*
X120483553Y-114916293D01*
X120483555Y-114916302D01*
X120528406Y-115044480D01*
X120528407Y-115044481D01*
X120609051Y-115153749D01*
X120718319Y-115234393D01*
X120846502Y-115279246D01*
X120876927Y-115282099D01*
X120876929Y-115282100D01*
X120876936Y-115282100D01*
X124385471Y-115282100D01*
X124385471Y-115282099D01*
X124415898Y-115279246D01*
X124544081Y-115234393D01*
X124653349Y-115153749D01*
X124733993Y-115044481D01*
X124778846Y-114916298D01*
X124781699Y-114885871D01*
X124781700Y-114885871D01*
X124781700Y-111377329D01*
X124781699Y-111377327D01*
X125459100Y-111377327D01*
X125459100Y-114885872D01*
X125461953Y-114916293D01*
X125461955Y-114916302D01*
X125506806Y-115044480D01*
X125506807Y-115044481D01*
X125587451Y-115153749D01*
X125696719Y-115234393D01*
X125824902Y-115279246D01*
X125855327Y-115282099D01*
X125855329Y-115282100D01*
X125855336Y-115282100D01*
X129363871Y-115282100D01*
X129363871Y-115282099D01*
X129394298Y-115279246D01*
X129522481Y-115234393D01*
X129631749Y-115153749D01*
X129712393Y-115044481D01*
X129757246Y-114916298D01*
X129760099Y-114885871D01*
X129760100Y-114885871D01*
X129760100Y-113746100D01*
X129779007Y-113687909D01*
X129828507Y-113651945D01*
X129859100Y-113647100D01*
X174870667Y-113647100D01*
X174974064Y-113619393D01*
X174974067Y-113619393D01*
X175001777Y-113611969D01*
X175001777Y-113611968D01*
X175119324Y-113544103D01*
X176586903Y-112076525D01*
X176654769Y-111958976D01*
X176662192Y-111931268D01*
X176689900Y-111827867D01*
X176689900Y-110091581D01*
X176708807Y-110033390D01*
X176712373Y-110028775D01*
X176714555Y-110026114D01*
X176714565Y-110026105D01*
X176780765Y-109927030D01*
X176792864Y-109908923D01*
X176792865Y-109908919D01*
X176792868Y-109908916D01*
X176846804Y-109778704D01*
X176874300Y-109640471D01*
X176874300Y-108799529D01*
X176846804Y-108661296D01*
X176792868Y-108531084D01*
X176792866Y-108531082D01*
X176792864Y-108531076D01*
X176714567Y-108413898D01*
X176714565Y-108413895D01*
X176714562Y-108413892D01*
X176712368Y-108411219D01*
X176690071Y-108354241D01*
X176689900Y-108348418D01*
X176689900Y-103690781D01*
X176708807Y-103632590D01*
X176712373Y-103627975D01*
X176714555Y-103625314D01*
X176714565Y-103625305D01*
X176780765Y-103526230D01*
X176792864Y-103508123D01*
X176792865Y-103508119D01*
X176792868Y-103508116D01*
X176846804Y-103377904D01*
X176874300Y-103239671D01*
X176874300Y-102398729D01*
X176846804Y-102260496D01*
X176792868Y-102130284D01*
X176792866Y-102130282D01*
X176792864Y-102130276D01*
X176714567Y-102013098D01*
X176714565Y-102013095D01*
X176714562Y-102013092D01*
X176712368Y-102010419D01*
X176690071Y-101953441D01*
X176689900Y-101947618D01*
X176689900Y-97286569D01*
X176708807Y-97228378D01*
X176711538Y-97224842D01*
X176711759Y-97224510D01*
X176711765Y-97224505D01*
X176777965Y-97125430D01*
X176790064Y-97107323D01*
X176790065Y-97107319D01*
X176790068Y-97107316D01*
X176844004Y-96977104D01*
X176871500Y-96838871D01*
X176871500Y-95997929D01*
X176844004Y-95859696D01*
X176790068Y-95729484D01*
X176790066Y-95729482D01*
X176790064Y-95729476D01*
X176717247Y-95620500D01*
X176711765Y-95612295D01*
X176612105Y-95512635D01*
X176582439Y-95492813D01*
X176494923Y-95434335D01*
X176494914Y-95434331D01*
X176364702Y-95380395D01*
X176226473Y-95352900D01*
X176226471Y-95352900D01*
X176085529Y-95352900D01*
X176085526Y-95352900D01*
X175947297Y-95380395D01*
X175817085Y-95434331D01*
X175817076Y-95434335D01*
X175699896Y-95512634D01*
X175600234Y-95612296D01*
X175521935Y-95729476D01*
X175521931Y-95729485D01*
X175497193Y-95789208D01*
X175457456Y-95835734D01*
X175397961Y-95850017D01*
X175341433Y-95826602D01*
X175314265Y-95789207D01*
X175289627Y-95729724D01*
X175289621Y-95729713D01*
X175211377Y-95612614D01*
X175211369Y-95612605D01*
X175171000Y-95572236D01*
X175171000Y-97264563D01*
X175211369Y-97224194D01*
X175211377Y-97224185D01*
X175289621Y-97107086D01*
X175289624Y-97107080D01*
X175314264Y-97047593D01*
X175354000Y-97001066D01*
X175413495Y-96986782D01*
X175470023Y-97010196D01*
X175497193Y-97047591D01*
X175521931Y-97107314D01*
X175521935Y-97107323D01*
X175587154Y-97204929D01*
X175600235Y-97224505D01*
X175629905Y-97254175D01*
X175657681Y-97308690D01*
X175658900Y-97324177D01*
X175658900Y-101916222D01*
X175639993Y-101974413D01*
X175629905Y-101986224D01*
X175603036Y-102013093D01*
X175524735Y-102130276D01*
X175524731Y-102130285D01*
X175499993Y-102190008D01*
X175460256Y-102236534D01*
X175400761Y-102250817D01*
X175344233Y-102227402D01*
X175317065Y-102190007D01*
X175292427Y-102130524D01*
X175292421Y-102130513D01*
X175214177Y-102013414D01*
X175214169Y-102013405D01*
X175173800Y-101973036D01*
X175173800Y-103665363D01*
X175214169Y-103624994D01*
X175214177Y-103624985D01*
X175292421Y-103507886D01*
X175292424Y-103507880D01*
X175317064Y-103448393D01*
X175356800Y-103401866D01*
X175416295Y-103387582D01*
X175472823Y-103410996D01*
X175499993Y-103448391D01*
X175524731Y-103508114D01*
X175524735Y-103508123D01*
X175589954Y-103605729D01*
X175603035Y-103625305D01*
X175629905Y-103652175D01*
X175657681Y-103706690D01*
X175658900Y-103722177D01*
X175658900Y-108317022D01*
X175639993Y-108375213D01*
X175629905Y-108387024D01*
X175603036Y-108413893D01*
X175524735Y-108531076D01*
X175524731Y-108531085D01*
X175499993Y-108590808D01*
X175460256Y-108637334D01*
X175400761Y-108651617D01*
X175344233Y-108628202D01*
X175317065Y-108590807D01*
X175292427Y-108531324D01*
X175292421Y-108531313D01*
X175214177Y-108414214D01*
X175214169Y-108414205D01*
X175173800Y-108373836D01*
X175173800Y-110066163D01*
X175214169Y-110025794D01*
X175214177Y-110025785D01*
X175292421Y-109908686D01*
X175292424Y-109908680D01*
X175317064Y-109849193D01*
X175356800Y-109802666D01*
X175416295Y-109788382D01*
X175472823Y-109811796D01*
X175499993Y-109849191D01*
X175524731Y-109908914D01*
X175524735Y-109908923D01*
X175589954Y-110006529D01*
X175603035Y-110026105D01*
X175629905Y-110052975D01*
X175657681Y-110107490D01*
X175658900Y-110122977D01*
X175658900Y-111505464D01*
X175639993Y-111563655D01*
X175629904Y-111575468D01*
X174618269Y-112587104D01*
X174563752Y-112614881D01*
X174548265Y-112616100D01*
X129859100Y-112616100D01*
X129800909Y-112597193D01*
X129764945Y-112547693D01*
X129760100Y-112517100D01*
X129760100Y-111377329D01*
X129760099Y-111377327D01*
X129757246Y-111346906D01*
X129757246Y-111346902D01*
X129712393Y-111218719D01*
X129631749Y-111109451D01*
X129522481Y-111028807D01*
X129522480Y-111028806D01*
X129394302Y-110983955D01*
X129394293Y-110983953D01*
X129363872Y-110981100D01*
X129363864Y-110981100D01*
X125855336Y-110981100D01*
X125855327Y-110981100D01*
X125824906Y-110983953D01*
X125824897Y-110983955D01*
X125696719Y-111028806D01*
X125587452Y-111109450D01*
X125587450Y-111109452D01*
X125506806Y-111218719D01*
X125461955Y-111346897D01*
X125461953Y-111346906D01*
X125459100Y-111377327D01*
X124781699Y-111377327D01*
X124778846Y-111346906D01*
X124778846Y-111346902D01*
X124733993Y-111218719D01*
X124653349Y-111109451D01*
X124544081Y-111028807D01*
X124544080Y-111028806D01*
X124415902Y-110983955D01*
X124415893Y-110983953D01*
X124385472Y-110981100D01*
X124385464Y-110981100D01*
X120876936Y-110981100D01*
X120876927Y-110981100D01*
X120846506Y-110983953D01*
X120846497Y-110983955D01*
X120718319Y-111028806D01*
X120609052Y-111109450D01*
X120609050Y-111109452D01*
X120528406Y-111218719D01*
X120483555Y-111346897D01*
X120483553Y-111346906D01*
X120480700Y-111377327D01*
X119812224Y-111377327D01*
X119769544Y-111255351D01*
X119688996Y-111146213D01*
X119688986Y-111146203D01*
X119579848Y-111065655D01*
X119451800Y-111020850D01*
X119421410Y-111018000D01*
X119202201Y-111018000D01*
X119202200Y-111018001D01*
X117932200Y-111018001D01*
X117932199Y-111018000D01*
X117712989Y-111018000D01*
X117682599Y-111020850D01*
X117554551Y-111065655D01*
X117445413Y-111146203D01*
X117445403Y-111146213D01*
X117364855Y-111255351D01*
X117320050Y-111383399D01*
X117317200Y-111413789D01*
X114241700Y-111413789D01*
X114241700Y-109232906D01*
X125185100Y-109232906D01*
X125185100Y-109410293D01*
X125219706Y-109584265D01*
X125219706Y-109584267D01*
X125287585Y-109748144D01*
X125287585Y-109748145D01*
X125386135Y-109895634D01*
X125386136Y-109895635D01*
X125511565Y-110021064D01*
X125659053Y-110119613D01*
X125659054Y-110119613D01*
X125659055Y-110119614D01*
X125673905Y-110125765D01*
X125822934Y-110187494D01*
X125996909Y-110222100D01*
X125996910Y-110222100D01*
X126174290Y-110222100D01*
X126174291Y-110222100D01*
X126348266Y-110187494D01*
X126512147Y-110119613D01*
X126659635Y-110021064D01*
X126785064Y-109895635D01*
X126883613Y-109748147D01*
X126951494Y-109584266D01*
X126986100Y-109410291D01*
X126986100Y-109232909D01*
X126951494Y-109058934D01*
X126883614Y-108895055D01*
X126883614Y-108895054D01*
X126785064Y-108747565D01*
X126659634Y-108622135D01*
X126512144Y-108523585D01*
X126348266Y-108455706D01*
X126174293Y-108421100D01*
X126174291Y-108421100D01*
X125996909Y-108421100D01*
X125996906Y-108421100D01*
X125822934Y-108455706D01*
X125822932Y-108455706D01*
X125659055Y-108523585D01*
X125659054Y-108523585D01*
X125511565Y-108622135D01*
X125386135Y-108747565D01*
X125287585Y-108895054D01*
X125287585Y-108895055D01*
X125219706Y-109058932D01*
X125219706Y-109058934D01*
X125185100Y-109232906D01*
X114241700Y-109232906D01*
X114241700Y-107882622D01*
X119623402Y-107882622D01*
X119626304Y-107883199D01*
X119626311Y-107883200D01*
X119823290Y-107883200D01*
X119826194Y-107882621D01*
X119724799Y-107781226D01*
X119623402Y-107882622D01*
X114241700Y-107882622D01*
X114241700Y-106784704D01*
X118724800Y-106784704D01*
X118724800Y-106981689D01*
X118725377Y-106984595D01*
X118826773Y-106883200D01*
X118774112Y-106830539D01*
X119324800Y-106830539D01*
X119324800Y-106935861D01*
X119352059Y-107037594D01*
X119404720Y-107128806D01*
X119479194Y-107203280D01*
X119570406Y-107255941D01*
X119672139Y-107283200D01*
X119777461Y-107283200D01*
X119879194Y-107255941D01*
X119970406Y-107203280D01*
X120044880Y-107128806D01*
X120097541Y-107037594D01*
X120124800Y-106935861D01*
X120124800Y-106883199D01*
X120622826Y-106883199D01*
X120724221Y-106984594D01*
X120724800Y-106981689D01*
X120724800Y-106784710D01*
X120724799Y-106784704D01*
X120724789Y-106784656D01*
X121224300Y-106784656D01*
X121224300Y-106981743D01*
X121262749Y-107175034D01*
X121262749Y-107175036D01*
X121338167Y-107357113D01*
X121338168Y-107357114D01*
X121447661Y-107520982D01*
X121587018Y-107660339D01*
X121750886Y-107769832D01*
X121932965Y-107845251D01*
X122126259Y-107883700D01*
X122126260Y-107883700D01*
X122323340Y-107883700D01*
X122323341Y-107883700D01*
X122516635Y-107845251D01*
X122698714Y-107769832D01*
X122862582Y-107660339D01*
X123001939Y-107520982D01*
X123111432Y-107357114D01*
X123186851Y-107175035D01*
X123225300Y-106981741D01*
X123225300Y-106784659D01*
X123186851Y-106591365D01*
X123111432Y-106409286D01*
X123001939Y-106245418D01*
X122862582Y-106106061D01*
X122698714Y-105996568D01*
X122698715Y-105996568D01*
X122698713Y-105996567D01*
X122516635Y-105921149D01*
X122323343Y-105882700D01*
X122323341Y-105882700D01*
X122126259Y-105882700D01*
X122126256Y-105882700D01*
X121932965Y-105921149D01*
X121932963Y-105921149D01*
X121750886Y-105996567D01*
X121587018Y-106106061D01*
X121587014Y-106106064D01*
X121447664Y-106245414D01*
X121447661Y-106245418D01*
X121338167Y-106409286D01*
X121262749Y-106591363D01*
X121262749Y-106591365D01*
X121224300Y-106784656D01*
X120724789Y-106784656D01*
X120724222Y-106781803D01*
X120622826Y-106883199D01*
X120124800Y-106883199D01*
X120124800Y-106830539D01*
X120097541Y-106728806D01*
X120044880Y-106637594D01*
X119970406Y-106563120D01*
X119879194Y-106510459D01*
X119777461Y-106483200D01*
X119672139Y-106483200D01*
X119570406Y-106510459D01*
X119479194Y-106563120D01*
X119404720Y-106637594D01*
X119352059Y-106728806D01*
X119324800Y-106830539D01*
X118774112Y-106830539D01*
X118725376Y-106781803D01*
X118724800Y-106784704D01*
X114241700Y-106784704D01*
X114241700Y-105883776D01*
X119623403Y-105883776D01*
X119724800Y-105985173D01*
X119826195Y-105883777D01*
X119823290Y-105883200D01*
X119626304Y-105883200D01*
X119623403Y-105883776D01*
X114241700Y-105883776D01*
X114241700Y-104152906D01*
X125185100Y-104152906D01*
X125185100Y-104330293D01*
X125189126Y-104350531D01*
X125216503Y-104488166D01*
X125219706Y-104504265D01*
X125219706Y-104504267D01*
X125287585Y-104668144D01*
X125287585Y-104668145D01*
X125386135Y-104815634D01*
X125386136Y-104815635D01*
X125511565Y-104941064D01*
X125659053Y-105039613D01*
X125822934Y-105107494D01*
X125996909Y-105142100D01*
X125996910Y-105142100D01*
X126174290Y-105142100D01*
X126174291Y-105142100D01*
X126348266Y-105107494D01*
X126512147Y-105039613D01*
X126659635Y-104941064D01*
X126785064Y-104815635D01*
X126883613Y-104668147D01*
X126951494Y-104504266D01*
X126986100Y-104330291D01*
X126986100Y-104152909D01*
X126951494Y-103978934D01*
X126892531Y-103836583D01*
X126883614Y-103815055D01*
X126883614Y-103815054D01*
X126785064Y-103667565D01*
X126659634Y-103542135D01*
X126512144Y-103443585D01*
X126348266Y-103375706D01*
X126174293Y-103341100D01*
X126174291Y-103341100D01*
X125996909Y-103341100D01*
X125996906Y-103341100D01*
X125822934Y-103375706D01*
X125822932Y-103375706D01*
X125659055Y-103443585D01*
X125659054Y-103443585D01*
X125511565Y-103542135D01*
X125386135Y-103667565D01*
X125287585Y-103815054D01*
X125287585Y-103815055D01*
X125219706Y-103978932D01*
X125219706Y-103978934D01*
X125185100Y-104152906D01*
X114241700Y-104152906D01*
X114241700Y-102743000D01*
X120266208Y-102743000D01*
X120269000Y-102745792D01*
X120269000Y-102743001D01*
X121539000Y-102743001D01*
X121539000Y-102745792D01*
X121541792Y-102743000D01*
X121539001Y-102743000D01*
X121539000Y-102743001D01*
X120269000Y-102743001D01*
X120268999Y-102743000D01*
X120266208Y-102743000D01*
X114241700Y-102743000D01*
X114241700Y-102061922D01*
X120554000Y-102061922D01*
X120554000Y-102154078D01*
X120577852Y-102243095D01*
X120623930Y-102322905D01*
X120689095Y-102388070D01*
X120768905Y-102434148D01*
X120857922Y-102458000D01*
X120950078Y-102458000D01*
X121039095Y-102434148D01*
X121118905Y-102388070D01*
X121184070Y-102322905D01*
X121230148Y-102243095D01*
X121254000Y-102154078D01*
X121254000Y-102061922D01*
X121242581Y-102019306D01*
X125083500Y-102019306D01*
X125083500Y-102196693D01*
X125118106Y-102370665D01*
X125118106Y-102370667D01*
X125185985Y-102534544D01*
X125185985Y-102534545D01*
X125282050Y-102678315D01*
X125284536Y-102682035D01*
X125409965Y-102807464D01*
X125557453Y-102906013D01*
X125721334Y-102973894D01*
X125895309Y-103008500D01*
X125895310Y-103008500D01*
X126072690Y-103008500D01*
X126072691Y-103008500D01*
X126246666Y-102973894D01*
X126410547Y-102906013D01*
X126558035Y-102807464D01*
X126683464Y-102682035D01*
X126782013Y-102534547D01*
X126849894Y-102370666D01*
X126884500Y-102196691D01*
X126884500Y-102019309D01*
X126849894Y-101845334D01*
X126782014Y-101681455D01*
X126782014Y-101681454D01*
X126683464Y-101533965D01*
X126558034Y-101408535D01*
X126410544Y-101309985D01*
X126246666Y-101242106D01*
X126072693Y-101207500D01*
X126072691Y-101207500D01*
X125895309Y-101207500D01*
X125895306Y-101207500D01*
X125721334Y-101242106D01*
X125721332Y-101242106D01*
X125557455Y-101309985D01*
X125557454Y-101309985D01*
X125409965Y-101408535D01*
X125284535Y-101533965D01*
X125185985Y-101681454D01*
X125185985Y-101681455D01*
X125118106Y-101845332D01*
X125118106Y-101845334D01*
X125083500Y-102019306D01*
X121242581Y-102019306D01*
X121230148Y-101972905D01*
X121184070Y-101893095D01*
X121118905Y-101827930D01*
X121039095Y-101781852D01*
X120950078Y-101758000D01*
X120857922Y-101758000D01*
X120768905Y-101781852D01*
X120689095Y-101827930D01*
X120623930Y-101893095D01*
X120577852Y-101972905D01*
X120554000Y-102061922D01*
X114241700Y-102061922D01*
X114241700Y-101473000D01*
X120266208Y-101473000D01*
X120268999Y-101473000D01*
X120269000Y-101472999D01*
X121539000Y-101472999D01*
X121539001Y-101473000D01*
X121541792Y-101473000D01*
X121539000Y-101470208D01*
X121539000Y-101472999D01*
X120269000Y-101472999D01*
X120269000Y-101470208D01*
X120266208Y-101473000D01*
X114241700Y-101473000D01*
X114241700Y-96004953D01*
X117823900Y-96004953D01*
X117823900Y-97949446D01*
X117823901Y-97949458D01*
X117835532Y-98007927D01*
X117835534Y-98007933D01*
X117879845Y-98074248D01*
X117879848Y-98074252D01*
X117946169Y-98118567D01*
X117990631Y-98127411D01*
X118004641Y-98130198D01*
X118004646Y-98130198D01*
X118004652Y-98130200D01*
X118004653Y-98130200D01*
X120044147Y-98130200D01*
X120044148Y-98130200D01*
X120102631Y-98118567D01*
X120168952Y-98074252D01*
X120213267Y-98007931D01*
X120224900Y-97949448D01*
X120224900Y-96401822D01*
X125984202Y-96401822D01*
X125987104Y-96402399D01*
X125987111Y-96402400D01*
X126184090Y-96402400D01*
X126186994Y-96401821D01*
X126085599Y-96300426D01*
X125984202Y-96401822D01*
X120224900Y-96401822D01*
X120224900Y-96004952D01*
X120223502Y-95997926D01*
X120222111Y-95990931D01*
X120213267Y-95946469D01*
X120168952Y-95880148D01*
X120168948Y-95880145D01*
X120102633Y-95835834D01*
X120102631Y-95835833D01*
X120102628Y-95835832D01*
X120102627Y-95835832D01*
X120044158Y-95824201D01*
X120044148Y-95824200D01*
X118004652Y-95824200D01*
X118004651Y-95824200D01*
X118004641Y-95824201D01*
X117946172Y-95835832D01*
X117946166Y-95835834D01*
X117879851Y-95880145D01*
X117879845Y-95880151D01*
X117835534Y-95946466D01*
X117835532Y-95946472D01*
X117823901Y-96004941D01*
X117823900Y-96004953D01*
X114241700Y-96004953D01*
X114241700Y-95072200D01*
X118013686Y-95072200D01*
X118097821Y-95188002D01*
X118226097Y-95316278D01*
X118372860Y-95422907D01*
X118372865Y-95422910D01*
X118389399Y-95431334D01*
X118389400Y-95431334D01*
X118389400Y-95072201D01*
X119659400Y-95072201D01*
X119659400Y-95431334D01*
X119675934Y-95422910D01*
X119675939Y-95422907D01*
X119822702Y-95316278D01*
X119835076Y-95303904D01*
X125085600Y-95303904D01*
X125085600Y-95500889D01*
X125086177Y-95503795D01*
X125187573Y-95402400D01*
X125134912Y-95349739D01*
X125685600Y-95349739D01*
X125685600Y-95455061D01*
X125712859Y-95556794D01*
X125765520Y-95648006D01*
X125839994Y-95722480D01*
X125931206Y-95775141D01*
X126032939Y-95802400D01*
X126138261Y-95802400D01*
X126239994Y-95775141D01*
X126331206Y-95722480D01*
X126405680Y-95648006D01*
X126458341Y-95556794D01*
X126485600Y-95455061D01*
X126485600Y-95402399D01*
X126983626Y-95402399D01*
X127085021Y-95503794D01*
X127085600Y-95500889D01*
X127085600Y-95303911D01*
X127085599Y-95303904D01*
X127085022Y-95301003D01*
X126983626Y-95402399D01*
X126485600Y-95402399D01*
X126485600Y-95349739D01*
X126458341Y-95248006D01*
X126405680Y-95156794D01*
X126331206Y-95082320D01*
X126239994Y-95029659D01*
X126138261Y-95002400D01*
X126032939Y-95002400D01*
X125931206Y-95029659D01*
X125839994Y-95082320D01*
X125765520Y-95156794D01*
X125712859Y-95248006D01*
X125685600Y-95349739D01*
X125134912Y-95349739D01*
X125086176Y-95301003D01*
X125085600Y-95303904D01*
X119835076Y-95303904D01*
X119909931Y-95229050D01*
X119950978Y-95188002D01*
X120035114Y-95072200D01*
X119659401Y-95072200D01*
X119659400Y-95072201D01*
X118389400Y-95072201D01*
X118389399Y-95072200D01*
X118013686Y-95072200D01*
X114241700Y-95072200D01*
X114241700Y-94364791D01*
X118474400Y-94364791D01*
X118474400Y-94509609D01*
X118511882Y-94649492D01*
X118584290Y-94774908D01*
X118686692Y-94877310D01*
X118812108Y-94949718D01*
X118951991Y-94987200D01*
X119096809Y-94987200D01*
X119236692Y-94949718D01*
X119362108Y-94877310D01*
X119464510Y-94774908D01*
X119536918Y-94649492D01*
X119574400Y-94509609D01*
X119574400Y-94402976D01*
X125984203Y-94402976D01*
X126085600Y-94504373D01*
X126186995Y-94402977D01*
X126184090Y-94402400D01*
X125987104Y-94402400D01*
X125984203Y-94402976D01*
X119574400Y-94402976D01*
X119574400Y-94364791D01*
X119536918Y-94224908D01*
X119464510Y-94099492D01*
X119362108Y-93997090D01*
X119236692Y-93924682D01*
X119096809Y-93887200D01*
X118951991Y-93887200D01*
X118812108Y-93924682D01*
X118686692Y-93997090D01*
X118584290Y-94099492D01*
X118511882Y-94224908D01*
X118474400Y-94364791D01*
X114241700Y-94364791D01*
X114241700Y-93802200D01*
X118013685Y-93802200D01*
X118389399Y-93802200D01*
X118389400Y-93802199D01*
X119659400Y-93802199D01*
X119659401Y-93802200D01*
X120035114Y-93802200D01*
X119950978Y-93686397D01*
X119822702Y-93558121D01*
X119675939Y-93451491D01*
X119659400Y-93443064D01*
X119659400Y-93802199D01*
X118389400Y-93802199D01*
X118389400Y-93443064D01*
X118389399Y-93443064D01*
X118372860Y-93451491D01*
X118226097Y-93558121D01*
X118097821Y-93686397D01*
X118013685Y-93802200D01*
X114241700Y-93802200D01*
X114241700Y-91806453D01*
X117823900Y-91806453D01*
X117823900Y-91987946D01*
X117852289Y-92167190D01*
X117908373Y-92339798D01*
X117953561Y-92428486D01*
X117990766Y-92501504D01*
X118097441Y-92648329D01*
X118225771Y-92776659D01*
X118372596Y-92883334D01*
X118534302Y-92965727D01*
X118706905Y-93021809D01*
X118706906Y-93021809D01*
X118706909Y-93021810D01*
X118886154Y-93050200D01*
X118886157Y-93050200D01*
X119162646Y-93050200D01*
X119341890Y-93021810D01*
X119341891Y-93021809D01*
X119341895Y-93021809D01*
X119514498Y-92965727D01*
X119676204Y-92883334D01*
X119785596Y-92803856D01*
X125085100Y-92803856D01*
X125085100Y-93000943D01*
X125089251Y-93021809D01*
X125119999Y-93176390D01*
X125123549Y-93194234D01*
X125123549Y-93194236D01*
X125198967Y-93376313D01*
X125218499Y-93405544D01*
X125308461Y-93540182D01*
X125447818Y-93679539D01*
X125611686Y-93789032D01*
X125793765Y-93864451D01*
X125987059Y-93902900D01*
X125987060Y-93902900D01*
X126184140Y-93902900D01*
X126184141Y-93902900D01*
X126377435Y-93864451D01*
X126559514Y-93789032D01*
X126723382Y-93679539D01*
X126862739Y-93540182D01*
X126972232Y-93376314D01*
X127047651Y-93194235D01*
X127086100Y-93000941D01*
X127086100Y-92803859D01*
X127047651Y-92610565D01*
X126972232Y-92428486D01*
X126862739Y-92264618D01*
X126723382Y-92125261D01*
X126559514Y-92015768D01*
X126559515Y-92015768D01*
X126559513Y-92015767D01*
X126377435Y-91940349D01*
X126184143Y-91901900D01*
X126184141Y-91901900D01*
X125987059Y-91901900D01*
X125987056Y-91901900D01*
X125793765Y-91940349D01*
X125793763Y-91940349D01*
X125611686Y-92015767D01*
X125447818Y-92125261D01*
X125447814Y-92125264D01*
X125308464Y-92264614D01*
X125308461Y-92264618D01*
X125198967Y-92428486D01*
X125123549Y-92610563D01*
X125123549Y-92610565D01*
X125085100Y-92803856D01*
X119785596Y-92803856D01*
X119823029Y-92776659D01*
X119951359Y-92648329D01*
X120058034Y-92501504D01*
X120140427Y-92339798D01*
X120196509Y-92167195D01*
X120202213Y-92131181D01*
X120224900Y-91987946D01*
X120224900Y-91806453D01*
X120196510Y-91627209D01*
X120196509Y-91627205D01*
X120140427Y-91454602D01*
X120058034Y-91292896D01*
X119951359Y-91146071D01*
X119823029Y-91017741D01*
X119676204Y-90911066D01*
X119676203Y-90911065D01*
X119676201Y-90911064D01*
X119514498Y-90828673D01*
X119341890Y-90772589D01*
X119162646Y-90744200D01*
X119162643Y-90744200D01*
X118886157Y-90744200D01*
X118886154Y-90744200D01*
X118706909Y-90772589D01*
X118534301Y-90828673D01*
X118372598Y-90911064D01*
X118225772Y-91017740D01*
X118097440Y-91146072D01*
X117990764Y-91292898D01*
X117908373Y-91454601D01*
X117852289Y-91627209D01*
X117823900Y-91806453D01*
X114241700Y-91806453D01*
X114241700Y-86783401D01*
X116194800Y-86783401D01*
X116194800Y-86803100D01*
X116206403Y-86861436D01*
X116250606Y-86927589D01*
X116250610Y-86927593D01*
X116316763Y-86971796D01*
X116375099Y-86983399D01*
X116375103Y-86983400D01*
X116619799Y-86983400D01*
X116619800Y-86983399D01*
X116619800Y-86783401D01*
X117669800Y-86783401D01*
X117669800Y-86983399D01*
X117669801Y-86983400D01*
X117914497Y-86983400D01*
X117914500Y-86983399D01*
X117972836Y-86971796D01*
X118038989Y-86927593D01*
X118038993Y-86927589D01*
X118083196Y-86861436D01*
X118094799Y-86803100D01*
X118094800Y-86803097D01*
X118094800Y-86783401D01*
X118094799Y-86783400D01*
X117669801Y-86783400D01*
X117669800Y-86783401D01*
X116619800Y-86783401D01*
X116619799Y-86783400D01*
X116194801Y-86783400D01*
X116194800Y-86783401D01*
X114241700Y-86783401D01*
X114241700Y-86209030D01*
X116769800Y-86209030D01*
X116769800Y-86307770D01*
X116795356Y-86403145D01*
X116844725Y-86488655D01*
X116914545Y-86558475D01*
X117000055Y-86607844D01*
X117095430Y-86633400D01*
X117194170Y-86633400D01*
X117289545Y-86607844D01*
X117375055Y-86558475D01*
X117444875Y-86488655D01*
X117494244Y-86403145D01*
X117519800Y-86307770D01*
X117519800Y-86271306D01*
X123356300Y-86271306D01*
X123356300Y-86448693D01*
X123390906Y-86622665D01*
X123390906Y-86622667D01*
X123458785Y-86786544D01*
X123458785Y-86786545D01*
X123557335Y-86934034D01*
X123557336Y-86934035D01*
X123682765Y-87059464D01*
X123830253Y-87158013D01*
X123994134Y-87225894D01*
X124168109Y-87260500D01*
X124168110Y-87260500D01*
X124345490Y-87260500D01*
X124345491Y-87260500D01*
X124519466Y-87225894D01*
X124683347Y-87158013D01*
X124830835Y-87059464D01*
X124956264Y-86934035D01*
X125054813Y-86786547D01*
X125122694Y-86622666D01*
X125157300Y-86448691D01*
X125157300Y-86271309D01*
X125122694Y-86097334D01*
X125054814Y-85933455D01*
X125054814Y-85933454D01*
X124956264Y-85785965D01*
X124830834Y-85660535D01*
X124683344Y-85561985D01*
X124519466Y-85494106D01*
X124345493Y-85459500D01*
X124345491Y-85459500D01*
X124168109Y-85459500D01*
X124168106Y-85459500D01*
X123994134Y-85494106D01*
X123994132Y-85494106D01*
X123830255Y-85561985D01*
X123830254Y-85561985D01*
X123682765Y-85660535D01*
X123557335Y-85785965D01*
X123458785Y-85933454D01*
X123458785Y-85933455D01*
X123390906Y-86097332D01*
X123390906Y-86097334D01*
X123356300Y-86271306D01*
X117519800Y-86271306D01*
X117519800Y-86209030D01*
X117494244Y-86113655D01*
X117444875Y-86028145D01*
X117375055Y-85958325D01*
X117289545Y-85908956D01*
X117194170Y-85883400D01*
X117095430Y-85883400D01*
X117000055Y-85908956D01*
X116914545Y-85958325D01*
X116844725Y-86028145D01*
X116795356Y-86113655D01*
X116769800Y-86209030D01*
X114241700Y-86209030D01*
X114241700Y-83646942D01*
X116194300Y-83646942D01*
X116194300Y-83789857D01*
X116222181Y-83930019D01*
X116222181Y-83930021D01*
X116276868Y-84062048D01*
X116276874Y-84062059D01*
X116316051Y-84120690D01*
X116356268Y-84180879D01*
X116356271Y-84180882D01*
X116458785Y-84283396D01*
X116486562Y-84337913D01*
X116476991Y-84398345D01*
X116458785Y-84423404D01*
X116356271Y-84525917D01*
X116356268Y-84525921D01*
X116276874Y-84644740D01*
X116276868Y-84644751D01*
X116222181Y-84776778D01*
X116222181Y-84776780D01*
X116194300Y-84916942D01*
X116194300Y-85059857D01*
X116222181Y-85200019D01*
X116222181Y-85200021D01*
X116276868Y-85332048D01*
X116276874Y-85332060D01*
X116332552Y-85415386D01*
X116349161Y-85474274D01*
X116327984Y-85531678D01*
X116305240Y-85552702D01*
X116250612Y-85589204D01*
X116250606Y-85589210D01*
X116206403Y-85655363D01*
X116194800Y-85713699D01*
X116194800Y-85733399D01*
X116194801Y-85733400D01*
X118094799Y-85733400D01*
X118094800Y-85733399D01*
X118094800Y-85713702D01*
X118094799Y-85713699D01*
X118083196Y-85655363D01*
X118038993Y-85589210D01*
X118038988Y-85589205D01*
X117984360Y-85552703D01*
X117946481Y-85504652D01*
X117944079Y-85443514D01*
X117957045Y-85415389D01*
X118012729Y-85332053D01*
X118067419Y-85200020D01*
X118095300Y-85059855D01*
X118095300Y-84916945D01*
X118067419Y-84776780D01*
X118049189Y-84732769D01*
X118012731Y-84644751D01*
X118012725Y-84644740D01*
X117980666Y-84596762D01*
X117933332Y-84525921D01*
X117933327Y-84525916D01*
X117933324Y-84525912D01*
X117830815Y-84423404D01*
X117803037Y-84368887D01*
X117812608Y-84308455D01*
X117830815Y-84283396D01*
X117933324Y-84180887D01*
X117933332Y-84180879D01*
X118012729Y-84062053D01*
X118067419Y-83930020D01*
X118095300Y-83789855D01*
X118095300Y-83646945D01*
X118067419Y-83506780D01*
X118012729Y-83374747D01*
X118012728Y-83374745D01*
X118012725Y-83374740D01*
X117980666Y-83326762D01*
X117933332Y-83255921D01*
X117832279Y-83154868D01*
X117784943Y-83123239D01*
X117713459Y-83075474D01*
X117713448Y-83075468D01*
X117581420Y-83020781D01*
X117441257Y-82992900D01*
X117441255Y-82992900D01*
X116848345Y-82992900D01*
X116848342Y-82992900D01*
X116708180Y-83020781D01*
X116708178Y-83020781D01*
X116576151Y-83075468D01*
X116576140Y-83075474D01*
X116457321Y-83154868D01*
X116457317Y-83154871D01*
X116356271Y-83255917D01*
X116356268Y-83255921D01*
X116276874Y-83374740D01*
X116276868Y-83374751D01*
X116222181Y-83506778D01*
X116222181Y-83506780D01*
X116194300Y-83646942D01*
X114241700Y-83646942D01*
X114241700Y-78035915D01*
X119154700Y-78035915D01*
X119154700Y-78224884D01*
X119184258Y-78411513D01*
X119210855Y-78493368D01*
X119242653Y-78591232D01*
X119328440Y-78759599D01*
X119439510Y-78912473D01*
X119573127Y-79046090D01*
X119726001Y-79157160D01*
X119894368Y-79242947D01*
X120074082Y-79301340D01*
X120074083Y-79301340D01*
X120074086Y-79301341D01*
X120260716Y-79330900D01*
X120260719Y-79330900D01*
X120449684Y-79330900D01*
X120636313Y-79301341D01*
X120636314Y-79301340D01*
X120636318Y-79301340D01*
X120816032Y-79242947D01*
X120984399Y-79157160D01*
X121137273Y-79046090D01*
X121270890Y-78912473D01*
X121381960Y-78759599D01*
X121467747Y-78591232D01*
X121526140Y-78411518D01*
X121555700Y-78224881D01*
X121555700Y-78035919D01*
X121555700Y-78035915D01*
X121526141Y-77849286D01*
X121526140Y-77849282D01*
X121467747Y-77669568D01*
X121381960Y-77501201D01*
X121270890Y-77348327D01*
X121137273Y-77214710D01*
X121137269Y-77214707D01*
X121137267Y-77214705D01*
X121097595Y-77185881D01*
X121097593Y-77185881D01*
X121023204Y-77131834D01*
X120994051Y-77110653D01*
X126754700Y-77110653D01*
X126754700Y-79150146D01*
X126754701Y-79150158D01*
X126766332Y-79208627D01*
X126766334Y-79208633D01*
X126810645Y-79274948D01*
X126810648Y-79274952D01*
X126876969Y-79319267D01*
X126921431Y-79328111D01*
X126935441Y-79330898D01*
X126935446Y-79330898D01*
X126935452Y-79330900D01*
X127188300Y-79330900D01*
X127246491Y-79349807D01*
X127282455Y-79399307D01*
X127287300Y-79429900D01*
X127287300Y-106244269D01*
X127304038Y-106306733D01*
X127304038Y-106306734D01*
X127304039Y-106306734D01*
X127304039Y-106306735D01*
X127322431Y-106375376D01*
X127390297Y-106492924D01*
X131166076Y-110268703D01*
X131283624Y-110336569D01*
X131293764Y-110339285D01*
X131311333Y-110343993D01*
X131311335Y-110343993D01*
X131414733Y-110371700D01*
X131835699Y-110371700D01*
X131893890Y-110390607D01*
X131918015Y-110415699D01*
X131972860Y-110497781D01*
X132112209Y-110637131D01*
X132112213Y-110637134D01*
X132112218Y-110637139D01*
X132276086Y-110746632D01*
X132458165Y-110822051D01*
X132651459Y-110860500D01*
X132651460Y-110860500D01*
X132848540Y-110860500D01*
X132848541Y-110860500D01*
X133041835Y-110822051D01*
X133223914Y-110746632D01*
X133387782Y-110637139D01*
X133527139Y-110497782D01*
X133636632Y-110333914D01*
X133712051Y-110151835D01*
X133750500Y-109958541D01*
X133750500Y-109761459D01*
X133712051Y-109568165D01*
X133636632Y-109386086D01*
X133527139Y-109222218D01*
X133387782Y-109082861D01*
X133223914Y-108973368D01*
X133223915Y-108973368D01*
X133223913Y-108973367D01*
X133041835Y-108897949D01*
X132848543Y-108859500D01*
X132848541Y-108859500D01*
X132651459Y-108859500D01*
X132651456Y-108859500D01*
X132458165Y-108897949D01*
X132458163Y-108897949D01*
X132276086Y-108973367D01*
X132112218Y-109082861D01*
X132112214Y-109082864D01*
X131972864Y-109222214D01*
X131972861Y-109222218D01*
X131923092Y-109296702D01*
X131909296Y-109307577D01*
X131898968Y-109321793D01*
X131885862Y-109326051D01*
X131875042Y-109334581D01*
X131840777Y-109340700D01*
X131737135Y-109340700D01*
X131678944Y-109321793D01*
X131667131Y-109311704D01*
X130674849Y-108319422D01*
X132648602Y-108319422D01*
X132651504Y-108319999D01*
X132651511Y-108320000D01*
X132848490Y-108320000D01*
X132851394Y-108319421D01*
X132749999Y-108218026D01*
X132648602Y-108319422D01*
X130674849Y-108319422D01*
X129576931Y-107221504D01*
X131750000Y-107221504D01*
X131750000Y-107418489D01*
X131750577Y-107421395D01*
X131851973Y-107320000D01*
X131792729Y-107260756D01*
X132300000Y-107260756D01*
X132300000Y-107379244D01*
X132330667Y-107493694D01*
X132389910Y-107596306D01*
X132473694Y-107680090D01*
X132576306Y-107739333D01*
X132690756Y-107770000D01*
X132809244Y-107770000D01*
X132923694Y-107739333D01*
X133026306Y-107680090D01*
X133110090Y-107596306D01*
X133169333Y-107493694D01*
X133200000Y-107379244D01*
X133200000Y-107319999D01*
X133648026Y-107319999D01*
X133749421Y-107421394D01*
X133750000Y-107418489D01*
X133750000Y-107221511D01*
X133749999Y-107221504D01*
X133749422Y-107218603D01*
X133648026Y-107319999D01*
X133200000Y-107319999D01*
X133200000Y-107260756D01*
X133169333Y-107146306D01*
X133110090Y-107043694D01*
X133026306Y-106959910D01*
X132923694Y-106900667D01*
X132809244Y-106870000D01*
X132690756Y-106870000D01*
X132576306Y-106900667D01*
X132473694Y-106959910D01*
X132389910Y-107043694D01*
X132330667Y-107146306D01*
X132300000Y-107260756D01*
X131792729Y-107260756D01*
X131750576Y-107218603D01*
X131750000Y-107221504D01*
X129576931Y-107221504D01*
X128347296Y-105991869D01*
X128319519Y-105937352D01*
X128318300Y-105921865D01*
X128318300Y-98661072D01*
X130021500Y-98661072D01*
X130021500Y-105446928D01*
X130040616Y-105518269D01*
X130077544Y-105582231D01*
X130129769Y-105634456D01*
X130129771Y-105634457D01*
X130135413Y-105640099D01*
X130135412Y-105640099D01*
X130135416Y-105640102D01*
X130534742Y-106039430D01*
X130534743Y-106039430D01*
X130534744Y-106039431D01*
X130534743Y-106039431D01*
X130586966Y-106091653D01*
X130586969Y-106091656D01*
X130650931Y-106128584D01*
X130650933Y-106128584D01*
X130650934Y-106128585D01*
X130686601Y-106138142D01*
X130722268Y-106147699D01*
X130722270Y-106147700D01*
X130722271Y-106147700D01*
X130722272Y-106147700D01*
X132567567Y-106147700D01*
X132625758Y-106166607D01*
X132661722Y-106216107D01*
X132662299Y-106275454D01*
X132648603Y-106320576D01*
X132750000Y-106421973D01*
X132851395Y-106320577D01*
X132837700Y-106275452D01*
X132838892Y-106214278D01*
X132875814Y-106165489D01*
X132932433Y-106147700D01*
X134970806Y-106147700D01*
X135028997Y-106166607D01*
X135040810Y-106176696D01*
X135224904Y-106360790D01*
X135252681Y-106415307D01*
X135253900Y-106430794D01*
X135253900Y-111593728D01*
X135273016Y-111665069D01*
X135309944Y-111729031D01*
X135362169Y-111781256D01*
X135362171Y-111781257D01*
X135868743Y-112287830D01*
X135868744Y-112287831D01*
X135868743Y-112287831D01*
X135920966Y-112340053D01*
X135920969Y-112340056D01*
X135984931Y-112376984D01*
X136056272Y-112396100D01*
X136056274Y-112396100D01*
X172604530Y-112396100D01*
X172604530Y-112396099D01*
X172675865Y-112376985D01*
X172675866Y-112376985D01*
X172675866Y-112376984D01*
X172675869Y-112376984D01*
X172739831Y-112340056D01*
X172792056Y-112287831D01*
X172792057Y-112287828D01*
X173331028Y-111748857D01*
X173331031Y-111748856D01*
X173383256Y-111696631D01*
X173420184Y-111632669D01*
X173439300Y-111561328D01*
X173439300Y-110294414D01*
X173458207Y-110236223D01*
X173494219Y-110207835D01*
X173493430Y-110206358D01*
X173497709Y-110204070D01*
X173497716Y-110204068D01*
X173614905Y-110125765D01*
X173714565Y-110026105D01*
X173780765Y-109927030D01*
X173792864Y-109908923D01*
X173792865Y-109908920D01*
X173792868Y-109908916D01*
X173817607Y-109849190D01*
X173857342Y-109802666D01*
X173916836Y-109788382D01*
X173973364Y-109811796D01*
X174000534Y-109849192D01*
X174025172Y-109908675D01*
X174025178Y-109908686D01*
X174103422Y-110025785D01*
X174103430Y-110025794D01*
X174143799Y-110066163D01*
X174143800Y-110066163D01*
X174143800Y-109171947D01*
X174293800Y-109171947D01*
X174293800Y-109268053D01*
X174318674Y-109360885D01*
X174366727Y-109444116D01*
X174434684Y-109512073D01*
X174517915Y-109560126D01*
X174610747Y-109585000D01*
X174706853Y-109585000D01*
X174799685Y-109560126D01*
X174882916Y-109512073D01*
X174950873Y-109444116D01*
X174998926Y-109360885D01*
X175023800Y-109268053D01*
X175023800Y-109171947D01*
X174998926Y-109079115D01*
X174950873Y-108995884D01*
X174882916Y-108927927D01*
X174799685Y-108879874D01*
X174706853Y-108855000D01*
X174610747Y-108855000D01*
X174517915Y-108879874D01*
X174434684Y-108927927D01*
X174366727Y-108995884D01*
X174318674Y-109079115D01*
X174293800Y-109171947D01*
X174143800Y-109171947D01*
X174143800Y-108373836D01*
X174143799Y-108373836D01*
X174103430Y-108414205D01*
X174103422Y-108414214D01*
X174025178Y-108531313D01*
X174025174Y-108531321D01*
X174000534Y-108590808D01*
X173960797Y-108637334D01*
X173901302Y-108651617D01*
X173844774Y-108628202D01*
X173817606Y-108590807D01*
X173792870Y-108531088D01*
X173792864Y-108531076D01*
X173719379Y-108421100D01*
X173714565Y-108413895D01*
X173614905Y-108314235D01*
X173567934Y-108282850D01*
X173497714Y-108235930D01*
X173497707Y-108235927D01*
X173497603Y-108235884D01*
X173497563Y-108235850D01*
X173493423Y-108233637D01*
X173493908Y-108232728D01*
X173451082Y-108196142D01*
X173436500Y-108144425D01*
X173436500Y-103894774D01*
X173455407Y-103836583D01*
X173493822Y-103806301D01*
X173493427Y-103805561D01*
X173497573Y-103803344D01*
X173497620Y-103803308D01*
X173497654Y-103803293D01*
X173497716Y-103803268D01*
X173614905Y-103724965D01*
X173714565Y-103625305D01*
X173780765Y-103526230D01*
X173792864Y-103508123D01*
X173792865Y-103508120D01*
X173792868Y-103508116D01*
X173817607Y-103448390D01*
X173857342Y-103401866D01*
X173916836Y-103387582D01*
X173973364Y-103410996D01*
X174000534Y-103448392D01*
X174025172Y-103507875D01*
X174025178Y-103507886D01*
X174103422Y-103624985D01*
X174103430Y-103624994D01*
X174143799Y-103665363D01*
X174143800Y-103665363D01*
X174143800Y-102771147D01*
X174293800Y-102771147D01*
X174293800Y-102867253D01*
X174318674Y-102960085D01*
X174366727Y-103043316D01*
X174434684Y-103111273D01*
X174517915Y-103159326D01*
X174610747Y-103184200D01*
X174706853Y-103184200D01*
X174799685Y-103159326D01*
X174882916Y-103111273D01*
X174950873Y-103043316D01*
X174998926Y-102960085D01*
X175023800Y-102867253D01*
X175023800Y-102771147D01*
X174998926Y-102678315D01*
X174950873Y-102595084D01*
X174882916Y-102527127D01*
X174799685Y-102479074D01*
X174706853Y-102454200D01*
X174610747Y-102454200D01*
X174517915Y-102479074D01*
X174434684Y-102527127D01*
X174366727Y-102595084D01*
X174318674Y-102678315D01*
X174293800Y-102771147D01*
X174143800Y-102771147D01*
X174143800Y-101973036D01*
X174143799Y-101973036D01*
X174103430Y-102013405D01*
X174103422Y-102013414D01*
X174025178Y-102130513D01*
X174025174Y-102130521D01*
X174000534Y-102190008D01*
X173960797Y-102236534D01*
X173901302Y-102250817D01*
X173844774Y-102227402D01*
X173817606Y-102190007D01*
X173792870Y-102130288D01*
X173792864Y-102130276D01*
X173740547Y-102051980D01*
X173714565Y-102013095D01*
X173614905Y-101913435D01*
X173567934Y-101882050D01*
X173497714Y-101835130D01*
X173497707Y-101835127D01*
X173497603Y-101835084D01*
X173497563Y-101835050D01*
X173493423Y-101832837D01*
X173493908Y-101831928D01*
X173451082Y-101795342D01*
X173436500Y-101743625D01*
X173436500Y-97492814D01*
X173455407Y-97434623D01*
X173491419Y-97406235D01*
X173490630Y-97404758D01*
X173494909Y-97402470D01*
X173494916Y-97402468D01*
X173612105Y-97324165D01*
X173711765Y-97224505D01*
X173777965Y-97125430D01*
X173790064Y-97107323D01*
X173790065Y-97107320D01*
X173790068Y-97107316D01*
X173814807Y-97047590D01*
X173854542Y-97001066D01*
X173914036Y-96986782D01*
X173970564Y-97010196D01*
X173997734Y-97047592D01*
X174022372Y-97107075D01*
X174022378Y-97107086D01*
X174100622Y-97224185D01*
X174100630Y-97224194D01*
X174140999Y-97264563D01*
X174141000Y-97264563D01*
X174141000Y-96370347D01*
X174291000Y-96370347D01*
X174291000Y-96466453D01*
X174315874Y-96559285D01*
X174363927Y-96642516D01*
X174431884Y-96710473D01*
X174515115Y-96758526D01*
X174607947Y-96783400D01*
X174704053Y-96783400D01*
X174796885Y-96758526D01*
X174880116Y-96710473D01*
X174948073Y-96642516D01*
X174996126Y-96559285D01*
X175021000Y-96466453D01*
X175021000Y-96370347D01*
X174996126Y-96277515D01*
X174948073Y-96194284D01*
X174880116Y-96126327D01*
X174796885Y-96078274D01*
X174704053Y-96053400D01*
X174607947Y-96053400D01*
X174515115Y-96078274D01*
X174431884Y-96126327D01*
X174363927Y-96194284D01*
X174315874Y-96277515D01*
X174291000Y-96370347D01*
X174141000Y-96370347D01*
X174141000Y-95572236D01*
X174140999Y-95572236D01*
X174100630Y-95612605D01*
X174100622Y-95612614D01*
X174022378Y-95729713D01*
X174022374Y-95729721D01*
X173997734Y-95789208D01*
X173957997Y-95835734D01*
X173898502Y-95850017D01*
X173841974Y-95826602D01*
X173814806Y-95789207D01*
X173790070Y-95729488D01*
X173790064Y-95729476D01*
X173717247Y-95620500D01*
X173711765Y-95612295D01*
X173612105Y-95512635D01*
X173582439Y-95492813D01*
X173494923Y-95434335D01*
X173494914Y-95434331D01*
X173364702Y-95380395D01*
X173226473Y-95352900D01*
X173226471Y-95352900D01*
X173085529Y-95352900D01*
X173085526Y-95352900D01*
X172947297Y-95380395D01*
X172817085Y-95434331D01*
X172817076Y-95434335D01*
X172699896Y-95512634D01*
X172600234Y-95612296D01*
X172521935Y-95729476D01*
X172521931Y-95729485D01*
X172497464Y-95788554D01*
X172457727Y-95835080D01*
X172398232Y-95849363D01*
X172341704Y-95825948D01*
X172314536Y-95788554D01*
X172306234Y-95768513D01*
X172290068Y-95729484D01*
X172290066Y-95729482D01*
X172290064Y-95729476D01*
X172217247Y-95620500D01*
X172211765Y-95612295D01*
X172112105Y-95512635D01*
X172065134Y-95481250D01*
X171994914Y-95434330D01*
X171994907Y-95434327D01*
X171994803Y-95434284D01*
X171994763Y-95434250D01*
X171990623Y-95432037D01*
X171991108Y-95431128D01*
X171948282Y-95394542D01*
X171933700Y-95342825D01*
X171933700Y-94349474D01*
X171933700Y-94349472D01*
X171914584Y-94278131D01*
X171877656Y-94214169D01*
X171865390Y-94201903D01*
X171825431Y-94161943D01*
X171825431Y-94161944D01*
X171825430Y-94161943D01*
X171243657Y-93580171D01*
X171243656Y-93580169D01*
X171191431Y-93527944D01*
X171127469Y-93491016D01*
X171127468Y-93491015D01*
X171127465Y-93491014D01*
X171056131Y-93471900D01*
X171056129Y-93471900D01*
X171056128Y-93471900D01*
X166197995Y-93471900D01*
X166139804Y-93452993D01*
X166127991Y-93442904D01*
X163515756Y-90830669D01*
X163450613Y-90765526D01*
X165068900Y-90765526D01*
X165068900Y-91606473D01*
X165096395Y-91744702D01*
X165150331Y-91874914D01*
X165150335Y-91874923D01*
X165215554Y-91972529D01*
X165228635Y-91992105D01*
X165328295Y-92091765D01*
X165367180Y-92117747D01*
X165445476Y-92170064D01*
X165445482Y-92170066D01*
X165445484Y-92170068D01*
X165575696Y-92224004D01*
X165713929Y-92251500D01*
X165713930Y-92251500D01*
X165854870Y-92251500D01*
X165854871Y-92251500D01*
X165993104Y-92224004D01*
X166123316Y-92170068D01*
X166123319Y-92170065D01*
X166123323Y-92170064D01*
X166162734Y-92143729D01*
X166240505Y-92091765D01*
X166340165Y-91992105D01*
X166406712Y-91892510D01*
X166418464Y-91874923D01*
X166418465Y-91874919D01*
X166418468Y-91874916D01*
X166442936Y-91815844D01*
X166482673Y-91769320D01*
X166542167Y-91755036D01*
X166598695Y-91778451D01*
X166625864Y-91815845D01*
X166650331Y-91874914D01*
X166650335Y-91874923D01*
X166715554Y-91972529D01*
X166728635Y-91992105D01*
X166828295Y-92091765D01*
X166867180Y-92117747D01*
X166945476Y-92170064D01*
X166945482Y-92170066D01*
X166945484Y-92170068D01*
X167075696Y-92224004D01*
X167213929Y-92251500D01*
X167213930Y-92251500D01*
X167354870Y-92251500D01*
X167354871Y-92251500D01*
X167493104Y-92224004D01*
X167623316Y-92170068D01*
X167623319Y-92170065D01*
X167623323Y-92170064D01*
X167662734Y-92143729D01*
X167740505Y-92091765D01*
X167840165Y-91992105D01*
X167906712Y-91892509D01*
X167954762Y-91854631D01*
X168015900Y-91852229D01*
X168066773Y-91886222D01*
X168082471Y-91914814D01*
X168117053Y-92013645D01*
X168197611Y-92122795D01*
X168269399Y-92175777D01*
X168269400Y-92175777D01*
X168269400Y-91701001D01*
X169299400Y-91701001D01*
X169299400Y-92175777D01*
X169371188Y-92122795D01*
X169451745Y-92013647D01*
X169496549Y-91885601D01*
X169499399Y-91855211D01*
X169499400Y-91855210D01*
X169499400Y-91701001D01*
X169499399Y-91701000D01*
X169299401Y-91701000D01*
X169299400Y-91701001D01*
X168269400Y-91701001D01*
X168269400Y-91137947D01*
X168419400Y-91137947D01*
X168419400Y-91234053D01*
X168444274Y-91326885D01*
X168492327Y-91410116D01*
X168560284Y-91478073D01*
X168643515Y-91526126D01*
X168736347Y-91551000D01*
X168832453Y-91551000D01*
X168925285Y-91526126D01*
X169008516Y-91478073D01*
X169076473Y-91410116D01*
X169124526Y-91326885D01*
X169149400Y-91234053D01*
X169149400Y-91137947D01*
X169124526Y-91045115D01*
X169076473Y-90961884D01*
X169008516Y-90893927D01*
X168925285Y-90845874D01*
X168832453Y-90821000D01*
X168736347Y-90821000D01*
X168643515Y-90845874D01*
X168560284Y-90893927D01*
X168492327Y-90961884D01*
X168444274Y-91045115D01*
X168419400Y-91137947D01*
X168269400Y-91137947D01*
X168269400Y-90765526D01*
X174036500Y-90765526D01*
X174036500Y-91606473D01*
X174063995Y-91744702D01*
X174117931Y-91874914D01*
X174117935Y-91874923D01*
X174183154Y-91972529D01*
X174196235Y-91992105D01*
X174295895Y-92091765D01*
X174334780Y-92117747D01*
X174413076Y-92170064D01*
X174413082Y-92170066D01*
X174413084Y-92170068D01*
X174543296Y-92224004D01*
X174681529Y-92251500D01*
X174681530Y-92251500D01*
X174822470Y-92251500D01*
X174822471Y-92251500D01*
X174960704Y-92224004D01*
X175090916Y-92170068D01*
X175090919Y-92170065D01*
X175090923Y-92170064D01*
X175130334Y-92143729D01*
X175208105Y-92091765D01*
X175307765Y-91992105D01*
X175374312Y-91892510D01*
X175386064Y-91874923D01*
X175386065Y-91874920D01*
X175386068Y-91874916D01*
X175410807Y-91815190D01*
X175450542Y-91768666D01*
X175510036Y-91754382D01*
X175566564Y-91777796D01*
X175593734Y-91815192D01*
X175618372Y-91874675D01*
X175618378Y-91874686D01*
X175696622Y-91991785D01*
X175696630Y-91991794D01*
X175736999Y-92032163D01*
X175737000Y-92032163D01*
X175737000Y-91137947D01*
X175887000Y-91137947D01*
X175887000Y-91234053D01*
X175911874Y-91326885D01*
X175959927Y-91410116D01*
X176027884Y-91478073D01*
X176111115Y-91526126D01*
X176203947Y-91551000D01*
X176300053Y-91551000D01*
X176392885Y-91526126D01*
X176476116Y-91478073D01*
X176544073Y-91410116D01*
X176592126Y-91326885D01*
X176617000Y-91234053D01*
X176617000Y-91137947D01*
X176592126Y-91045115D01*
X176544073Y-90961884D01*
X176476116Y-90893927D01*
X176392885Y-90845874D01*
X176300053Y-90821000D01*
X176203947Y-90821000D01*
X176111115Y-90845874D01*
X176027884Y-90893927D01*
X175959927Y-90961884D01*
X175911874Y-91045115D01*
X175887000Y-91137947D01*
X175737000Y-91137947D01*
X175737000Y-90339836D01*
X176767000Y-90339836D01*
X176767000Y-92032163D01*
X176807369Y-91991794D01*
X176807377Y-91991785D01*
X176885621Y-91874686D01*
X176885624Y-91874680D01*
X176910264Y-91815193D01*
X176950000Y-91768666D01*
X177009495Y-91754382D01*
X177066023Y-91777796D01*
X177093193Y-91815191D01*
X177117931Y-91874914D01*
X177117935Y-91874923D01*
X177183154Y-91972529D01*
X177196235Y-91992105D01*
X177295895Y-92091765D01*
X177334780Y-92117747D01*
X177413076Y-92170064D01*
X177413082Y-92170066D01*
X177413084Y-92170068D01*
X177543296Y-92224004D01*
X177681529Y-92251500D01*
X177681530Y-92251500D01*
X177822470Y-92251500D01*
X177822471Y-92251500D01*
X177960704Y-92224004D01*
X178090916Y-92170068D01*
X178090919Y-92170065D01*
X178090923Y-92170064D01*
X178130334Y-92143729D01*
X178208105Y-92091765D01*
X178307765Y-91992105D01*
X178373965Y-91893029D01*
X178422013Y-91855151D01*
X178483151Y-91852749D01*
X178534025Y-91886742D01*
X178549723Y-91915334D01*
X178584207Y-92013883D01*
X178664845Y-92123144D01*
X178664847Y-92123146D01*
X178664850Y-92123150D01*
X178664853Y-92123152D01*
X178664855Y-92123154D01*
X178774116Y-92203792D01*
X178774117Y-92203792D01*
X178774118Y-92203793D01*
X178902301Y-92248646D01*
X178932725Y-92251499D01*
X178932727Y-92251500D01*
X178932734Y-92251500D01*
X179571273Y-92251500D01*
X179571273Y-92251499D01*
X179601699Y-92248646D01*
X179729882Y-92203793D01*
X179839150Y-92123150D01*
X179919793Y-92013882D01*
X179964646Y-91885699D01*
X179967499Y-91855273D01*
X179967500Y-91855273D01*
X179967500Y-90516727D01*
X179967499Y-90516725D01*
X179964646Y-90486301D01*
X179919793Y-90358118D01*
X179914397Y-90350807D01*
X179839154Y-90248855D01*
X179839152Y-90248853D01*
X179839150Y-90248850D01*
X179839146Y-90248847D01*
X179839144Y-90248845D01*
X179729883Y-90168207D01*
X179601703Y-90123355D01*
X179601694Y-90123353D01*
X179571274Y-90120500D01*
X179571266Y-90120500D01*
X178932734Y-90120500D01*
X178932725Y-90120500D01*
X178902305Y-90123353D01*
X178902296Y-90123355D01*
X178774116Y-90168207D01*
X178664855Y-90248845D01*
X178664845Y-90248855D01*
X178584207Y-90358116D01*
X178549723Y-90456665D01*
X178512657Y-90505346D01*
X178454057Y-90522942D01*
X178396305Y-90502733D01*
X178373964Y-90478969D01*
X178359061Y-90456665D01*
X178307765Y-90379895D01*
X178208105Y-90280235D01*
X178188529Y-90267154D01*
X178090923Y-90201935D01*
X178090914Y-90201931D01*
X177960702Y-90147995D01*
X177822473Y-90120500D01*
X177822471Y-90120500D01*
X177681529Y-90120500D01*
X177681526Y-90120500D01*
X177543297Y-90147995D01*
X177413085Y-90201931D01*
X177413076Y-90201935D01*
X177295896Y-90280234D01*
X177196234Y-90379896D01*
X177117935Y-90497076D01*
X177117931Y-90497085D01*
X177093193Y-90556808D01*
X177053456Y-90603334D01*
X176993961Y-90617617D01*
X176937433Y-90594202D01*
X176910265Y-90556807D01*
X176885627Y-90497324D01*
X176885621Y-90497313D01*
X176807377Y-90380214D01*
X176807369Y-90380205D01*
X176767000Y-90339836D01*
X175737000Y-90339836D01*
X175736999Y-90339836D01*
X175696630Y-90380205D01*
X175696622Y-90380214D01*
X175618378Y-90497313D01*
X175618374Y-90497321D01*
X175593734Y-90556808D01*
X175553997Y-90603334D01*
X175494502Y-90617617D01*
X175437974Y-90594202D01*
X175410806Y-90556807D01*
X175403489Y-90539143D01*
X175394233Y-90516796D01*
X175386070Y-90497088D01*
X175386064Y-90497076D01*
X175321404Y-90400307D01*
X175307765Y-90379895D01*
X175208105Y-90280235D01*
X175188529Y-90267154D01*
X175090923Y-90201935D01*
X175090914Y-90201931D01*
X174960702Y-90147995D01*
X174822473Y-90120500D01*
X174822471Y-90120500D01*
X174681529Y-90120500D01*
X174681526Y-90120500D01*
X174543297Y-90147995D01*
X174413085Y-90201931D01*
X174413076Y-90201935D01*
X174295896Y-90280234D01*
X174196234Y-90379896D01*
X174117935Y-90497076D01*
X174117931Y-90497085D01*
X174063995Y-90627297D01*
X174036500Y-90765526D01*
X168269400Y-90765526D01*
X168269400Y-90670999D01*
X169299400Y-90670999D01*
X169299401Y-90671000D01*
X169499398Y-90671000D01*
X169499399Y-90670999D01*
X169499399Y-90516796D01*
X169496549Y-90486399D01*
X169496549Y-90486397D01*
X169451744Y-90358350D01*
X169371195Y-90249211D01*
X169299400Y-90196222D01*
X169299400Y-90670999D01*
X168269400Y-90670999D01*
X168269400Y-90196222D01*
X168197604Y-90249211D01*
X168117054Y-90358352D01*
X168082471Y-90457185D01*
X168045406Y-90505865D01*
X167986805Y-90523462D01*
X167929053Y-90503254D01*
X167906712Y-90479489D01*
X167863897Y-90415413D01*
X167840165Y-90379895D01*
X167740505Y-90280235D01*
X167720929Y-90267154D01*
X167623323Y-90201935D01*
X167623314Y-90201931D01*
X167493102Y-90147995D01*
X167354873Y-90120500D01*
X167354871Y-90120500D01*
X167213929Y-90120500D01*
X167213926Y-90120500D01*
X167075697Y-90147995D01*
X166945485Y-90201931D01*
X166945476Y-90201935D01*
X166828296Y-90280234D01*
X166728634Y-90379896D01*
X166650335Y-90497076D01*
X166650331Y-90497085D01*
X166625864Y-90556154D01*
X166586127Y-90602680D01*
X166526632Y-90616963D01*
X166470104Y-90593548D01*
X166442936Y-90556154D01*
X166429179Y-90522942D01*
X166418468Y-90497084D01*
X166418466Y-90497082D01*
X166418464Y-90497076D01*
X166353804Y-90400307D01*
X166340165Y-90379895D01*
X166240505Y-90280235D01*
X166220929Y-90267154D01*
X166123323Y-90201935D01*
X166123314Y-90201931D01*
X165993102Y-90147995D01*
X165854873Y-90120500D01*
X165854871Y-90120500D01*
X165713929Y-90120500D01*
X165713926Y-90120500D01*
X165575697Y-90147995D01*
X165445485Y-90201931D01*
X165445476Y-90201935D01*
X165328296Y-90280234D01*
X165228634Y-90379896D01*
X165150335Y-90497076D01*
X165150331Y-90497085D01*
X165096395Y-90627297D01*
X165068900Y-90765526D01*
X163450613Y-90765526D01*
X160701657Y-88016571D01*
X160701656Y-88016569D01*
X160649431Y-87964344D01*
X160585469Y-87927416D01*
X160585468Y-87927415D01*
X160585465Y-87927414D01*
X160514131Y-87908300D01*
X160514129Y-87908300D01*
X160514128Y-87908300D01*
X158895629Y-87908300D01*
X158837438Y-87889393D01*
X158801474Y-87839893D01*
X158801474Y-87778707D01*
X158825625Y-87739296D01*
X158843335Y-87721586D01*
X158927139Y-87637782D01*
X159036632Y-87473914D01*
X159112051Y-87291835D01*
X159150500Y-87098541D01*
X159150500Y-86901459D01*
X159112051Y-86708165D01*
X159036632Y-86526086D01*
X158927139Y-86362218D01*
X158787782Y-86222861D01*
X158623914Y-86113368D01*
X158623915Y-86113368D01*
X158623913Y-86113367D01*
X158441835Y-86037949D01*
X158248543Y-85999500D01*
X158248541Y-85999500D01*
X158051459Y-85999500D01*
X158051456Y-85999500D01*
X157858165Y-86037949D01*
X157858163Y-86037949D01*
X157676086Y-86113367D01*
X157512218Y-86222861D01*
X157512214Y-86222864D01*
X157372864Y-86362214D01*
X157372861Y-86362218D01*
X157263368Y-86526085D01*
X157239764Y-86583071D01*
X157200027Y-86629596D01*
X157140533Y-86643880D01*
X157084005Y-86620465D01*
X157052035Y-86568296D01*
X157049300Y-86545185D01*
X157049300Y-85732422D01*
X177986000Y-85732422D01*
X177986000Y-85732424D01*
X178165155Y-85760800D01*
X178354045Y-85760800D01*
X178533198Y-85732424D01*
X178533196Y-85732422D01*
X184486000Y-85732422D01*
X184486000Y-85732424D01*
X184665155Y-85760800D01*
X184854045Y-85760800D01*
X185033198Y-85732424D01*
X184759599Y-85458825D01*
X184486000Y-85732422D01*
X178533196Y-85732422D01*
X178259599Y-85458825D01*
X177986000Y-85732422D01*
X157049300Y-85732422D01*
X157049300Y-85357874D01*
X157049300Y-85357872D01*
X157030184Y-85286531D01*
X156993256Y-85222569D01*
X156970706Y-85200019D01*
X156941031Y-85170343D01*
X156941031Y-85170344D01*
X156941030Y-85170343D01*
X156605085Y-84834398D01*
X156132142Y-84361456D01*
X157149500Y-84361456D01*
X157149500Y-84558543D01*
X157166646Y-84644740D01*
X157187840Y-84751289D01*
X157187949Y-84751834D01*
X157187949Y-84751836D01*
X157263367Y-84933913D01*
X157263368Y-84933914D01*
X157372861Y-85097782D01*
X157512218Y-85237139D01*
X157676086Y-85346632D01*
X157858165Y-85422051D01*
X158051459Y-85460500D01*
X158051460Y-85460500D01*
X158248540Y-85460500D01*
X158248541Y-85460500D01*
X158441835Y-85422051D01*
X158623914Y-85346632D01*
X158787782Y-85237139D01*
X158927139Y-85097782D01*
X159036632Y-84933914D01*
X159112051Y-84751835D01*
X159150500Y-84558541D01*
X159150500Y-84466354D01*
X177059600Y-84466354D01*
X177059600Y-84655245D01*
X177087974Y-84834398D01*
X177361574Y-84560799D01*
X177289166Y-84488391D01*
X177709600Y-84488391D01*
X177709600Y-84633209D01*
X177747082Y-84773092D01*
X177819490Y-84898508D01*
X177921892Y-85000910D01*
X178047308Y-85073318D01*
X178187191Y-85110800D01*
X178332009Y-85110800D01*
X178471892Y-85073318D01*
X178597308Y-85000910D01*
X178699710Y-84898508D01*
X178772118Y-84773092D01*
X178809600Y-84633209D01*
X178809600Y-84560799D01*
X179157625Y-84560799D01*
X179431224Y-84834398D01*
X179459600Y-84655245D01*
X179459600Y-84466354D01*
X183559600Y-84466354D01*
X183559600Y-84655245D01*
X183587974Y-84834398D01*
X183861574Y-84560799D01*
X183789166Y-84488391D01*
X184209600Y-84488391D01*
X184209600Y-84633209D01*
X184247082Y-84773092D01*
X184319490Y-84898508D01*
X184421892Y-85000910D01*
X184547308Y-85073318D01*
X184687191Y-85110800D01*
X184832009Y-85110800D01*
X184971892Y-85073318D01*
X185097308Y-85000910D01*
X185199710Y-84898508D01*
X185272118Y-84773092D01*
X185309600Y-84633209D01*
X185309600Y-84560799D01*
X185657625Y-84560799D01*
X185931224Y-84834398D01*
X185959600Y-84655245D01*
X185959600Y-84466354D01*
X185931224Y-84287200D01*
X185931222Y-84287200D01*
X185657625Y-84560799D01*
X185309600Y-84560799D01*
X185309600Y-84488391D01*
X185272118Y-84348508D01*
X185199710Y-84223092D01*
X185097308Y-84120690D01*
X184971892Y-84048282D01*
X184832009Y-84010800D01*
X184687191Y-84010800D01*
X184547308Y-84048282D01*
X184421892Y-84120690D01*
X184319490Y-84223092D01*
X184247082Y-84348508D01*
X184209600Y-84488391D01*
X183789166Y-84488391D01*
X183587974Y-84287199D01*
X183559600Y-84466354D01*
X179459600Y-84466354D01*
X179431224Y-84287200D01*
X179431222Y-84287200D01*
X179157625Y-84560799D01*
X178809600Y-84560799D01*
X178809600Y-84488391D01*
X178772118Y-84348508D01*
X178699710Y-84223092D01*
X178597308Y-84120690D01*
X178471892Y-84048282D01*
X178332009Y-84010800D01*
X178187191Y-84010800D01*
X178047308Y-84048282D01*
X177921892Y-84120690D01*
X177819490Y-84223092D01*
X177747082Y-84348508D01*
X177709600Y-84488391D01*
X177289166Y-84488391D01*
X177087974Y-84287199D01*
X177059600Y-84466354D01*
X159150500Y-84466354D01*
X159150500Y-84361459D01*
X159112051Y-84168165D01*
X159036632Y-83986086D01*
X158927139Y-83822218D01*
X158787782Y-83682861D01*
X158623914Y-83573368D01*
X158623915Y-83573368D01*
X158623913Y-83573367D01*
X158465482Y-83507744D01*
X158441835Y-83497949D01*
X158441833Y-83497948D01*
X158248543Y-83459500D01*
X158248541Y-83459500D01*
X158051459Y-83459500D01*
X158051456Y-83459500D01*
X157858165Y-83497949D01*
X157858163Y-83497949D01*
X157676086Y-83573367D01*
X157512218Y-83682861D01*
X157512214Y-83682864D01*
X157372864Y-83822214D01*
X157372861Y-83822218D01*
X157263367Y-83986086D01*
X157187949Y-84168163D01*
X157187949Y-84168165D01*
X157149500Y-84361456D01*
X156132142Y-84361456D01*
X156054657Y-84283971D01*
X156054656Y-84283969D01*
X156002431Y-84231744D01*
X155938469Y-84194816D01*
X155938468Y-84194815D01*
X155938465Y-84194814D01*
X155867131Y-84175700D01*
X155867129Y-84175700D01*
X155867128Y-84175700D01*
X133781322Y-84175700D01*
X133723131Y-84156793D01*
X133689858Y-84114585D01*
X133636632Y-83986087D01*
X133636632Y-83986086D01*
X133527139Y-83822218D01*
X133387782Y-83682861D01*
X133223914Y-83573368D01*
X133223915Y-83573368D01*
X133223913Y-83573367D01*
X133041835Y-83497949D01*
X132848543Y-83459500D01*
X132848541Y-83459500D01*
X132651459Y-83459500D01*
X132651456Y-83459500D01*
X132458165Y-83497949D01*
X132458163Y-83497949D01*
X132276086Y-83573367D01*
X132112218Y-83682861D01*
X132112214Y-83682864D01*
X131972864Y-83822214D01*
X131972861Y-83822218D01*
X131863367Y-83986086D01*
X131787949Y-84168163D01*
X131787949Y-84168165D01*
X131749500Y-84361456D01*
X131749500Y-84558543D01*
X131766646Y-84644740D01*
X131787840Y-84751289D01*
X131787949Y-84751834D01*
X131787949Y-84751836D01*
X131863367Y-84933913D01*
X131863368Y-84933914D01*
X131972861Y-85097782D01*
X132112218Y-85237139D01*
X132276086Y-85346632D01*
X132458165Y-85422051D01*
X132651459Y-85460500D01*
X132651460Y-85460500D01*
X132848540Y-85460500D01*
X132848541Y-85460500D01*
X133041835Y-85422051D01*
X133223914Y-85346632D01*
X133387782Y-85237139D01*
X133527139Y-85097782D01*
X133636632Y-84933914D01*
X133693006Y-84797815D01*
X133732742Y-84751289D01*
X133784470Y-84736700D01*
X155673006Y-84736700D01*
X155731197Y-84755607D01*
X155743010Y-84765696D01*
X156459304Y-85481990D01*
X156487081Y-85536507D01*
X156488300Y-85551994D01*
X156488300Y-87110878D01*
X156469393Y-87169069D01*
X156459304Y-87180881D01*
X156419100Y-87221084D01*
X156419096Y-87221090D01*
X156353209Y-87335209D01*
X156353208Y-87335214D01*
X156319100Y-87462508D01*
X156319100Y-87594292D01*
X156330753Y-87637781D01*
X156353208Y-87721587D01*
X156375271Y-87759800D01*
X156387992Y-87819648D01*
X156363105Y-87875544D01*
X156310117Y-87906137D01*
X156289534Y-87908300D01*
X134095994Y-87908300D01*
X134037803Y-87889393D01*
X134025990Y-87879304D01*
X133678710Y-87532024D01*
X133650933Y-87477507D01*
X133657249Y-87424138D01*
X133712051Y-87291835D01*
X133750500Y-87098541D01*
X133750500Y-86901459D01*
X133712051Y-86708165D01*
X133636632Y-86526086D01*
X133527139Y-86362218D01*
X133387782Y-86222861D01*
X133223914Y-86113368D01*
X133223915Y-86113368D01*
X133223913Y-86113367D01*
X133041835Y-86037949D01*
X132848543Y-85999500D01*
X132848541Y-85999500D01*
X132651459Y-85999500D01*
X132651456Y-85999500D01*
X132458165Y-86037949D01*
X132458163Y-86037949D01*
X132276086Y-86113367D01*
X132112218Y-86222861D01*
X132112214Y-86222864D01*
X131972864Y-86362214D01*
X131972861Y-86362218D01*
X131863367Y-86526086D01*
X131787949Y-86708163D01*
X131787949Y-86708165D01*
X131749500Y-86901456D01*
X131749500Y-87098543D01*
X131787949Y-87291834D01*
X131787949Y-87291836D01*
X131863367Y-87473913D01*
X131869789Y-87483524D01*
X131972861Y-87637782D01*
X132112218Y-87777139D01*
X132276086Y-87886632D01*
X132458165Y-87962051D01*
X132651459Y-88000500D01*
X132651460Y-88000500D01*
X132848540Y-88000500D01*
X132848541Y-88000500D01*
X133041835Y-87962051D01*
X133174138Y-87907249D01*
X133235131Y-87902449D01*
X133282024Y-87928710D01*
X133714342Y-88361028D01*
X133714344Y-88361031D01*
X133766569Y-88413256D01*
X133830531Y-88450184D01*
X133830533Y-88450184D01*
X133830534Y-88450185D01*
X133866201Y-88459742D01*
X133901868Y-88469299D01*
X133901870Y-88469300D01*
X133901871Y-88469300D01*
X133901872Y-88469300D01*
X157625223Y-88469300D01*
X157683414Y-88488207D01*
X157719378Y-88537707D01*
X157719378Y-88598893D01*
X157683414Y-88648393D01*
X157680027Y-88650509D01*
X157680131Y-88650665D01*
X157512218Y-88762861D01*
X157512214Y-88762864D01*
X157372864Y-88902214D01*
X157372861Y-88902218D01*
X157263367Y-89066086D01*
X157187949Y-89248163D01*
X157187949Y-89248165D01*
X157149500Y-89441456D01*
X157149500Y-89638543D01*
X157187949Y-89831834D01*
X157187949Y-89831836D01*
X157232486Y-89939358D01*
X157237287Y-90000354D01*
X157205317Y-90052523D01*
X157148789Y-90075938D01*
X157089294Y-90061654D01*
X157071018Y-90047247D01*
X156855605Y-89831834D01*
X156319511Y-89295740D01*
X156319508Y-89295738D01*
X156250992Y-89256180D01*
X156250988Y-89256178D01*
X156174564Y-89235700D01*
X156174562Y-89235700D01*
X133773038Y-89235700D01*
X133714847Y-89216793D01*
X133681574Y-89174585D01*
X133636632Y-89066087D01*
X133636632Y-89066086D01*
X133527139Y-88902218D01*
X133387782Y-88762861D01*
X133223914Y-88653368D01*
X133223915Y-88653368D01*
X133223913Y-88653367D01*
X133041835Y-88577949D01*
X132848543Y-88539500D01*
X132848541Y-88539500D01*
X132651459Y-88539500D01*
X132651456Y-88539500D01*
X132458165Y-88577949D01*
X132458163Y-88577949D01*
X132276086Y-88653367D01*
X132112218Y-88762861D01*
X132112214Y-88762864D01*
X131972864Y-88902214D01*
X131972861Y-88902218D01*
X131863367Y-89066086D01*
X131787949Y-89248163D01*
X131787949Y-89248165D01*
X131749500Y-89441456D01*
X131749500Y-89638543D01*
X131787949Y-89831834D01*
X131787949Y-89831836D01*
X131863367Y-90013913D01*
X131863368Y-90013914D01*
X131972861Y-90177782D01*
X132112218Y-90317139D01*
X132276086Y-90426632D01*
X132458165Y-90502051D01*
X132651459Y-90540500D01*
X132651460Y-90540500D01*
X132848540Y-90540500D01*
X132848541Y-90540500D01*
X133041835Y-90502051D01*
X133223914Y-90426632D01*
X133387782Y-90317139D01*
X133527139Y-90177782D01*
X133636632Y-90013914D01*
X133667514Y-89939358D01*
X133684722Y-89897815D01*
X133724458Y-89851289D01*
X133776186Y-89836700D01*
X155969521Y-89836700D01*
X156027712Y-89855607D01*
X156039525Y-89865696D01*
X157188740Y-91014911D01*
X157188739Y-91014911D01*
X157244689Y-91070860D01*
X157313207Y-91110419D01*
X157313211Y-91110421D01*
X157389635Y-91130899D01*
X157389637Y-91130900D01*
X157389638Y-91130900D01*
X157445171Y-91130900D01*
X157503362Y-91149807D01*
X157539326Y-91199307D01*
X157539326Y-91260493D01*
X157515175Y-91299904D01*
X157372864Y-91442214D01*
X157372861Y-91442218D01*
X157263367Y-91606086D01*
X157187949Y-91788163D01*
X157187949Y-91788165D01*
X157149500Y-91981456D01*
X157149500Y-92178543D01*
X157187949Y-92371834D01*
X157187949Y-92371836D01*
X157263367Y-92553913D01*
X157269789Y-92563524D01*
X157372861Y-92717782D01*
X157512218Y-92857139D01*
X157676086Y-92966632D01*
X157858165Y-93042051D01*
X158051459Y-93080500D01*
X158051460Y-93080500D01*
X158248540Y-93080500D01*
X158248541Y-93080500D01*
X158441835Y-93042051D01*
X158623914Y-92966632D01*
X158787782Y-92857139D01*
X158927139Y-92717782D01*
X159036632Y-92553914D01*
X159112051Y-92371835D01*
X159150500Y-92178541D01*
X159150500Y-91981459D01*
X159112051Y-91788165D01*
X159036632Y-91606086D01*
X158927139Y-91442218D01*
X158787782Y-91302861D01*
X158784825Y-91299904D01*
X158757048Y-91245387D01*
X158766619Y-91184955D01*
X158809884Y-91141690D01*
X158854829Y-91130900D01*
X162191321Y-91130900D01*
X162249512Y-91149807D01*
X162261325Y-91159896D01*
X163178093Y-92076664D01*
X163205870Y-92131181D01*
X163196299Y-92191613D01*
X163153034Y-92234878D01*
X163133721Y-92242292D01*
X163128817Y-92243606D01*
X163128810Y-92243609D01*
X163014690Y-92309496D01*
X162921496Y-92402690D01*
X162855609Y-92516809D01*
X162855608Y-92516814D01*
X162821500Y-92644108D01*
X162821500Y-92775892D01*
X162821706Y-92776659D01*
X162855609Y-92903190D01*
X162921496Y-93017309D01*
X162921498Y-93017311D01*
X162921500Y-93017314D01*
X163014686Y-93110500D01*
X163014688Y-93110501D01*
X163014690Y-93110503D01*
X163128810Y-93176390D01*
X163128808Y-93176390D01*
X163128812Y-93176391D01*
X163128814Y-93176392D01*
X163256108Y-93210500D01*
X163334006Y-93210500D01*
X163392197Y-93229407D01*
X163404010Y-93239496D01*
X165346504Y-95181990D01*
X165350130Y-95189107D01*
X165356593Y-95193803D01*
X165363756Y-95215851D01*
X165374281Y-95236507D01*
X165375500Y-95251994D01*
X165375500Y-95261295D01*
X165356593Y-95319486D01*
X165309198Y-95354739D01*
X165178116Y-95400607D01*
X165068855Y-95481245D01*
X165068845Y-95481255D01*
X164988207Y-95590516D01*
X164943355Y-95718696D01*
X164943353Y-95718705D01*
X164940500Y-95749125D01*
X164940500Y-97087674D01*
X164943353Y-97118094D01*
X164943355Y-97118103D01*
X164988207Y-97246283D01*
X165068845Y-97355544D01*
X165068847Y-97355546D01*
X165068850Y-97355550D01*
X165068853Y-97355552D01*
X165068855Y-97355554D01*
X165178116Y-97436192D01*
X165178117Y-97436192D01*
X165178118Y-97436193D01*
X165306301Y-97481046D01*
X165336725Y-97483899D01*
X165336727Y-97483900D01*
X165336734Y-97483900D01*
X165975273Y-97483900D01*
X165975273Y-97483899D01*
X166005699Y-97481046D01*
X166133882Y-97436193D01*
X166243150Y-97355550D01*
X166314744Y-97258543D01*
X166323791Y-97246285D01*
X166323792Y-97246283D01*
X166323793Y-97246282D01*
X166358276Y-97147732D01*
X166395341Y-97099054D01*
X166453941Y-97081457D01*
X166511693Y-97101665D01*
X166534035Y-97125430D01*
X166600235Y-97224505D01*
X166699895Y-97324165D01*
X166738780Y-97350147D01*
X166817076Y-97402464D01*
X166817082Y-97402466D01*
X166817084Y-97402468D01*
X166947296Y-97456404D01*
X167085529Y-97483900D01*
X167085530Y-97483900D01*
X167226470Y-97483900D01*
X167226471Y-97483900D01*
X167364704Y-97456404D01*
X167494916Y-97402468D01*
X167494919Y-97402465D01*
X167494923Y-97402464D01*
X167534334Y-97376129D01*
X167612105Y-97324165D01*
X167711765Y-97224505D01*
X167777965Y-97125430D01*
X167790064Y-97107323D01*
X167790065Y-97107319D01*
X167790068Y-97107316D01*
X167814536Y-97048244D01*
X167854273Y-97001720D01*
X167913767Y-96987436D01*
X167970295Y-97010851D01*
X167997464Y-97048245D01*
X168021931Y-97107314D01*
X168021935Y-97107323D01*
X168087154Y-97204929D01*
X168100235Y-97224505D01*
X168199895Y-97324165D01*
X168238780Y-97350147D01*
X168317076Y-97402464D01*
X168317082Y-97402466D01*
X168317084Y-97402468D01*
X168447296Y-97456404D01*
X168585529Y-97483900D01*
X168585530Y-97483900D01*
X168726470Y-97483900D01*
X168726471Y-97483900D01*
X168864704Y-97456404D01*
X168994916Y-97402468D01*
X168994919Y-97402465D01*
X168994923Y-97402464D01*
X169034334Y-97376129D01*
X169112105Y-97324165D01*
X169211765Y-97224505D01*
X169277965Y-97125430D01*
X169290064Y-97107323D01*
X169290065Y-97107319D01*
X169290068Y-97107316D01*
X169314536Y-97048244D01*
X169354273Y-97001720D01*
X169413767Y-96987436D01*
X169470295Y-97010851D01*
X169497464Y-97048245D01*
X169521931Y-97107314D01*
X169521935Y-97107323D01*
X169587154Y-97204929D01*
X169600235Y-97224505D01*
X169699895Y-97324165D01*
X169738780Y-97350147D01*
X169817076Y-97402464D01*
X169817082Y-97402466D01*
X169817084Y-97402468D01*
X169947296Y-97456404D01*
X170085529Y-97483900D01*
X170085530Y-97483900D01*
X170226470Y-97483900D01*
X170226471Y-97483900D01*
X170364704Y-97456404D01*
X170494916Y-97402468D01*
X170494919Y-97402465D01*
X170494923Y-97402464D01*
X170534334Y-97376129D01*
X170612105Y-97324165D01*
X170711765Y-97224505D01*
X170777965Y-97125430D01*
X170790064Y-97107323D01*
X170790065Y-97107319D01*
X170790068Y-97107316D01*
X170814536Y-97048244D01*
X170854273Y-97001720D01*
X170913767Y-96987436D01*
X170970295Y-97010851D01*
X170997464Y-97048245D01*
X171021931Y-97107314D01*
X171021935Y-97107323D01*
X171087154Y-97204929D01*
X171100235Y-97224505D01*
X171199895Y-97324165D01*
X171238780Y-97350147D01*
X171317076Y-97402464D01*
X171317082Y-97402466D01*
X171317084Y-97402468D01*
X171447296Y-97456404D01*
X171585529Y-97483900D01*
X171585530Y-97483900D01*
X171726470Y-97483900D01*
X171726471Y-97483900D01*
X171864704Y-97456404D01*
X171994916Y-97402468D01*
X171994919Y-97402465D01*
X171994923Y-97402464D01*
X172034334Y-97376129D01*
X172112105Y-97324165D01*
X172211765Y-97224505D01*
X172277965Y-97125430D01*
X172290064Y-97107323D01*
X172290065Y-97107319D01*
X172290068Y-97107316D01*
X172314536Y-97048244D01*
X172354273Y-97001720D01*
X172413767Y-96987436D01*
X172470295Y-97010851D01*
X172497464Y-97048245D01*
X172521931Y-97107314D01*
X172521935Y-97107323D01*
X172587154Y-97204929D01*
X172600235Y-97224505D01*
X172699895Y-97324165D01*
X172746857Y-97355544D01*
X172817077Y-97402464D01*
X172821370Y-97404758D01*
X172820431Y-97406514D01*
X172860909Y-97441083D01*
X172875500Y-97492814D01*
X172875500Y-101746066D01*
X172856593Y-101804257D01*
X172823174Y-101833373D01*
X172819886Y-101835130D01*
X172702696Y-101913434D01*
X172603034Y-102013096D01*
X172524735Y-102130276D01*
X172524731Y-102130285D01*
X172500264Y-102189354D01*
X172460527Y-102235880D01*
X172401032Y-102250163D01*
X172344504Y-102226748D01*
X172317336Y-102189354D01*
X172302724Y-102154078D01*
X172292868Y-102130284D01*
X172292866Y-102130282D01*
X172292864Y-102130276D01*
X172240547Y-102051980D01*
X172214565Y-102013095D01*
X172114905Y-101913435D01*
X172084464Y-101893095D01*
X171997723Y-101835135D01*
X171993431Y-101832842D01*
X171994366Y-101831090D01*
X171953877Y-101796493D01*
X171939300Y-101744785D01*
X171939300Y-98723871D01*
X171932769Y-98699501D01*
X171932768Y-98699498D01*
X171920184Y-98652531D01*
X171883256Y-98588569D01*
X171476901Y-98182215D01*
X171476899Y-98182212D01*
X171476899Y-98182213D01*
X171471257Y-98176571D01*
X171471256Y-98176569D01*
X171419031Y-98124344D01*
X171355069Y-98087416D01*
X171355068Y-98087415D01*
X171355065Y-98087414D01*
X171283731Y-98068300D01*
X171283729Y-98068300D01*
X171283728Y-98068300D01*
X158895629Y-98068300D01*
X158837438Y-98049393D01*
X158801474Y-97999893D01*
X158801474Y-97938707D01*
X158825625Y-97899296D01*
X158927139Y-97797782D01*
X159036632Y-97633914D01*
X159112051Y-97451835D01*
X159150500Y-97258541D01*
X159150500Y-97061459D01*
X159112051Y-96868165D01*
X159036632Y-96686086D01*
X158927139Y-96522218D01*
X158787782Y-96382861D01*
X158664409Y-96300426D01*
X158623913Y-96273367D01*
X158441835Y-96197949D01*
X158248543Y-96159500D01*
X158248541Y-96159500D01*
X158051459Y-96159500D01*
X158051456Y-96159500D01*
X157858165Y-96197949D01*
X157858163Y-96197949D01*
X157676086Y-96273367D01*
X157512218Y-96382861D01*
X157512214Y-96382864D01*
X157372864Y-96522214D01*
X157372861Y-96522218D01*
X157263367Y-96686086D01*
X157187949Y-96868163D01*
X157187949Y-96868165D01*
X157149500Y-97061456D01*
X157149500Y-97258543D01*
X157168797Y-97355554D01*
X157184837Y-97436192D01*
X157187949Y-97451834D01*
X157187949Y-97451836D01*
X157263367Y-97633913D01*
X157263368Y-97633914D01*
X157372861Y-97797782D01*
X157372864Y-97797785D01*
X157474375Y-97899296D01*
X157502152Y-97953813D01*
X157492581Y-98014245D01*
X157449316Y-98057510D01*
X157404371Y-98068300D01*
X134905994Y-98068300D01*
X134847803Y-98049393D01*
X134835990Y-98039304D01*
X134609496Y-97812810D01*
X134581719Y-97758293D01*
X134580500Y-97742806D01*
X134580500Y-94521456D01*
X157149500Y-94521456D01*
X157149500Y-94521459D01*
X157149500Y-94718541D01*
X157181081Y-94877310D01*
X157187949Y-94911834D01*
X157187949Y-94911836D01*
X157263367Y-95093913D01*
X157263368Y-95093914D01*
X157372861Y-95257782D01*
X157512218Y-95397139D01*
X157676086Y-95506632D01*
X157858165Y-95582051D01*
X158051459Y-95620500D01*
X158051460Y-95620500D01*
X158248540Y-95620500D01*
X158248541Y-95620500D01*
X158441835Y-95582051D01*
X158623914Y-95506632D01*
X158787782Y-95397139D01*
X158927139Y-95257782D01*
X159036632Y-95093914D01*
X159112051Y-94911835D01*
X159150500Y-94718541D01*
X159150500Y-94521459D01*
X159112051Y-94328165D01*
X159036632Y-94146086D01*
X158927139Y-93982218D01*
X158787782Y-93842861D01*
X158623914Y-93733368D01*
X158623915Y-93733368D01*
X158623913Y-93733367D01*
X158441835Y-93657949D01*
X158248543Y-93619500D01*
X158248541Y-93619500D01*
X158051459Y-93619500D01*
X158051456Y-93619500D01*
X157858165Y-93657949D01*
X157858163Y-93657949D01*
X157676086Y-93733367D01*
X157512218Y-93842861D01*
X157512214Y-93842864D01*
X157372864Y-93982214D01*
X157372861Y-93982218D01*
X157263367Y-94146086D01*
X157187949Y-94328163D01*
X157187949Y-94328165D01*
X157149500Y-94521456D01*
X134580500Y-94521456D01*
X134580500Y-93593074D01*
X134580500Y-93593072D01*
X134561384Y-93521731D01*
X134524456Y-93457769D01*
X134472231Y-93405544D01*
X134472228Y-93405542D01*
X133678710Y-92612024D01*
X133650933Y-92557507D01*
X133657249Y-92504138D01*
X133712051Y-92371835D01*
X133750500Y-92178541D01*
X133750500Y-91981459D01*
X133712051Y-91788165D01*
X133636632Y-91606086D01*
X133527139Y-91442218D01*
X133387782Y-91302861D01*
X133278288Y-91229699D01*
X133223913Y-91193367D01*
X133041835Y-91117949D01*
X132848543Y-91079500D01*
X132848541Y-91079500D01*
X132651459Y-91079500D01*
X132651456Y-91079500D01*
X132458165Y-91117949D01*
X132458163Y-91117949D01*
X132276086Y-91193367D01*
X132112218Y-91302861D01*
X132112214Y-91302864D01*
X131972864Y-91442214D01*
X131972861Y-91442218D01*
X131863367Y-91606086D01*
X131787949Y-91788163D01*
X131787949Y-91788165D01*
X131749500Y-91981456D01*
X131749500Y-92178543D01*
X131787949Y-92371834D01*
X131787949Y-92371836D01*
X131863367Y-92553913D01*
X131869789Y-92563524D01*
X131972861Y-92717782D01*
X132112218Y-92857139D01*
X132276086Y-92966632D01*
X132458165Y-93042051D01*
X132651459Y-93080500D01*
X132651460Y-93080500D01*
X132848540Y-93080500D01*
X132848541Y-93080500D01*
X133041835Y-93042051D01*
X133174138Y-92987249D01*
X133235131Y-92982449D01*
X133282024Y-93008710D01*
X133990504Y-93717190D01*
X134018281Y-93771707D01*
X134019500Y-93787194D01*
X134019500Y-95253806D01*
X134000593Y-95311997D01*
X133951093Y-95347961D01*
X133889907Y-95347961D01*
X133850497Y-95323810D01*
X133678711Y-95152025D01*
X133650933Y-95097508D01*
X133657249Y-95044138D01*
X133712051Y-94911835D01*
X133750500Y-94718541D01*
X133750500Y-94521459D01*
X133712051Y-94328165D01*
X133636632Y-94146086D01*
X133527139Y-93982218D01*
X133387782Y-93842861D01*
X133223914Y-93733368D01*
X133223915Y-93733368D01*
X133223913Y-93733367D01*
X133041835Y-93657949D01*
X132848543Y-93619500D01*
X132848541Y-93619500D01*
X132651459Y-93619500D01*
X132651456Y-93619500D01*
X132458165Y-93657949D01*
X132458163Y-93657949D01*
X132276086Y-93733367D01*
X132112218Y-93842861D01*
X132112214Y-93842864D01*
X131972864Y-93982214D01*
X131972861Y-93982218D01*
X131863367Y-94146086D01*
X131787949Y-94328163D01*
X131787949Y-94328165D01*
X131749500Y-94521456D01*
X131749500Y-94521459D01*
X131749500Y-94718541D01*
X131781081Y-94877310D01*
X131787949Y-94911834D01*
X131787949Y-94911836D01*
X131863367Y-95093913D01*
X131863368Y-95093914D01*
X131972861Y-95257782D01*
X132112218Y-95397139D01*
X132276086Y-95506632D01*
X132458165Y-95582051D01*
X132651459Y-95620500D01*
X132651460Y-95620500D01*
X132848540Y-95620500D01*
X132848541Y-95620500D01*
X133041835Y-95582051D01*
X133174138Y-95527249D01*
X133235131Y-95522449D01*
X133282024Y-95548710D01*
X133540504Y-95807190D01*
X133568281Y-95861707D01*
X133569500Y-95877194D01*
X133569500Y-96325571D01*
X133550593Y-96383762D01*
X133501093Y-96419726D01*
X133439907Y-96419726D01*
X133400496Y-96395575D01*
X133387785Y-96382864D01*
X133387782Y-96382861D01*
X133264409Y-96300426D01*
X133223913Y-96273367D01*
X133041835Y-96197949D01*
X132848543Y-96159500D01*
X132848541Y-96159500D01*
X132651459Y-96159500D01*
X132651456Y-96159500D01*
X132458165Y-96197949D01*
X132458163Y-96197949D01*
X132276086Y-96273367D01*
X132112218Y-96382861D01*
X132112214Y-96382864D01*
X131972864Y-96522214D01*
X131972861Y-96522218D01*
X131863367Y-96686086D01*
X131787949Y-96868163D01*
X131787949Y-96868165D01*
X131749500Y-97061456D01*
X131749500Y-97258543D01*
X131768797Y-97355554D01*
X131784837Y-97436192D01*
X131787949Y-97451834D01*
X131787949Y-97451836D01*
X131863367Y-97633913D01*
X131863368Y-97633914D01*
X131972861Y-97797782D01*
X132112218Y-97937139D01*
X132113184Y-97937784D01*
X132113511Y-97938199D01*
X132115969Y-97940216D01*
X132115526Y-97940755D01*
X132151064Y-97985831D01*
X132153468Y-98046969D01*
X132119477Y-98097844D01*
X132062074Y-98119024D01*
X132058184Y-98119100D01*
X130563468Y-98119100D01*
X130492134Y-98138214D01*
X130492133Y-98138214D01*
X130428166Y-98175146D01*
X130129769Y-98473544D01*
X130129768Y-98473543D01*
X130077543Y-98525769D01*
X130077542Y-98525771D01*
X130050129Y-98573254D01*
X130050128Y-98573256D01*
X130040615Y-98589731D01*
X130022678Y-98656672D01*
X130022675Y-98656687D01*
X130021524Y-98660984D01*
X130021500Y-98661072D01*
X128318300Y-98661072D01*
X128318300Y-86751949D01*
X128337207Y-86693758D01*
X128386707Y-86657794D01*
X128447893Y-86657794D01*
X128497393Y-86693758D01*
X128508764Y-86714064D01*
X128538785Y-86786544D01*
X128538785Y-86786545D01*
X128637335Y-86934034D01*
X128637336Y-86934035D01*
X128762765Y-87059464D01*
X128910253Y-87158013D01*
X129074134Y-87225894D01*
X129248109Y-87260500D01*
X129248110Y-87260500D01*
X129425490Y-87260500D01*
X129425491Y-87260500D01*
X129599466Y-87225894D01*
X129763347Y-87158013D01*
X129910835Y-87059464D01*
X130036264Y-86934035D01*
X130134813Y-86786547D01*
X130202694Y-86622666D01*
X130237300Y-86448691D01*
X130237300Y-86271309D01*
X130202694Y-86097334D01*
X130134814Y-85933455D01*
X130134814Y-85933454D01*
X130036264Y-85785965D01*
X129910834Y-85660535D01*
X129763344Y-85561985D01*
X129599466Y-85494106D01*
X129425493Y-85459500D01*
X129425491Y-85459500D01*
X129248109Y-85459500D01*
X129248106Y-85459500D01*
X129074134Y-85494106D01*
X129074132Y-85494106D01*
X128910255Y-85561985D01*
X128910254Y-85561985D01*
X128762765Y-85660535D01*
X128637335Y-85785965D01*
X128538785Y-85933454D01*
X128538785Y-85933455D01*
X128508764Y-86005935D01*
X128469028Y-86052461D01*
X128409533Y-86066745D01*
X128353005Y-86043331D01*
X128321036Y-85991162D01*
X128318300Y-85968050D01*
X128318300Y-83389174D01*
X177985999Y-83389174D01*
X178259599Y-83662773D01*
X178533198Y-83389174D01*
X184485999Y-83389174D01*
X184759599Y-83662773D01*
X185033198Y-83389174D01*
X184854045Y-83360800D01*
X184665155Y-83360800D01*
X184485999Y-83389174D01*
X178533198Y-83389174D01*
X178354045Y-83360800D01*
X178165155Y-83360800D01*
X177985999Y-83389174D01*
X128318300Y-83389174D01*
X128318300Y-81821456D01*
X131749500Y-81821456D01*
X131749500Y-82018543D01*
X131787949Y-82211834D01*
X131787949Y-82211836D01*
X131863367Y-82393913D01*
X131863368Y-82393914D01*
X131972861Y-82557782D01*
X132112218Y-82697139D01*
X132276086Y-82806632D01*
X132458165Y-82882051D01*
X132651459Y-82920500D01*
X132651460Y-82920500D01*
X132848540Y-82920500D01*
X132848541Y-82920500D01*
X133041835Y-82882051D01*
X133223914Y-82806632D01*
X133387782Y-82697139D01*
X133527139Y-82557782D01*
X133636632Y-82393914D01*
X133712051Y-82211835D01*
X133750500Y-82018541D01*
X133750500Y-81821459D01*
X133750499Y-81821456D01*
X157149500Y-81821456D01*
X157149500Y-82018543D01*
X157187949Y-82211834D01*
X157187949Y-82211836D01*
X157263367Y-82393913D01*
X157263368Y-82393914D01*
X157372861Y-82557782D01*
X157512218Y-82697139D01*
X157676086Y-82806632D01*
X157858165Y-82882051D01*
X158051459Y-82920500D01*
X158051460Y-82920500D01*
X158248540Y-82920500D01*
X158248541Y-82920500D01*
X158441835Y-82882051D01*
X158623914Y-82806632D01*
X158787782Y-82697139D01*
X158927139Y-82557782D01*
X159036632Y-82393914D01*
X159112051Y-82211835D01*
X159150500Y-82018541D01*
X159150500Y-81821459D01*
X159112051Y-81628165D01*
X159036632Y-81446086D01*
X158927139Y-81282218D01*
X158787782Y-81142861D01*
X158623914Y-81033368D01*
X158623915Y-81033368D01*
X158623913Y-81033367D01*
X158441835Y-80957949D01*
X158248543Y-80919500D01*
X158248541Y-80919500D01*
X158051459Y-80919500D01*
X158051456Y-80919500D01*
X157858165Y-80957949D01*
X157858163Y-80957949D01*
X157676086Y-81033367D01*
X157512218Y-81142861D01*
X157512214Y-81142864D01*
X157372864Y-81282214D01*
X157372861Y-81282218D01*
X157263367Y-81446086D01*
X157187949Y-81628163D01*
X157187949Y-81628165D01*
X157149500Y-81821456D01*
X133750499Y-81821456D01*
X133712051Y-81628165D01*
X133636632Y-81446086D01*
X133527139Y-81282218D01*
X133387782Y-81142861D01*
X133223914Y-81033368D01*
X133223915Y-81033368D01*
X133223913Y-81033367D01*
X133041835Y-80957949D01*
X132848543Y-80919500D01*
X132848541Y-80919500D01*
X132651459Y-80919500D01*
X132651456Y-80919500D01*
X132458165Y-80957949D01*
X132458163Y-80957949D01*
X132276086Y-81033367D01*
X132112218Y-81142861D01*
X132112214Y-81142864D01*
X131972864Y-81282214D01*
X131972861Y-81282218D01*
X131863367Y-81446086D01*
X131787949Y-81628163D01*
X131787949Y-81628165D01*
X131749500Y-81821456D01*
X128318300Y-81821456D01*
X128318300Y-79429900D01*
X128337207Y-79371709D01*
X128386707Y-79335745D01*
X128417300Y-79330900D01*
X128974947Y-79330900D01*
X128974948Y-79330900D01*
X129033431Y-79319267D01*
X129090018Y-79281456D01*
X131749500Y-79281456D01*
X131749500Y-79478543D01*
X131787949Y-79671834D01*
X131787949Y-79671836D01*
X131863367Y-79853913D01*
X131863368Y-79853914D01*
X131972861Y-80017782D01*
X132112218Y-80157139D01*
X132276086Y-80266632D01*
X132458165Y-80342051D01*
X132651459Y-80380500D01*
X132651460Y-80380500D01*
X132848540Y-80380500D01*
X132848541Y-80380500D01*
X133041835Y-80342051D01*
X133223914Y-80266632D01*
X133387782Y-80157139D01*
X133527139Y-80017782D01*
X133636632Y-79853914D01*
X133712051Y-79671835D01*
X133750500Y-79478541D01*
X133750500Y-79281459D01*
X133750499Y-79281456D01*
X157149500Y-79281456D01*
X157149500Y-79478543D01*
X157187949Y-79671834D01*
X157187949Y-79671836D01*
X157263367Y-79853913D01*
X157263368Y-79853914D01*
X157372861Y-80017782D01*
X157512218Y-80157139D01*
X157676086Y-80266632D01*
X157858165Y-80342051D01*
X158051459Y-80380500D01*
X158051460Y-80380500D01*
X158248540Y-80380500D01*
X158248541Y-80380500D01*
X158441835Y-80342051D01*
X158623914Y-80266632D01*
X158787782Y-80157139D01*
X158927139Y-80017782D01*
X158961528Y-79966315D01*
X177059100Y-79966315D01*
X177059100Y-80155284D01*
X177088658Y-80341913D01*
X177088660Y-80341918D01*
X177147053Y-80521632D01*
X177232840Y-80689999D01*
X177343910Y-80842873D01*
X177477527Y-80976490D01*
X177630401Y-81087560D01*
X177798768Y-81173347D01*
X177978482Y-81231740D01*
X177978483Y-81231740D01*
X177978486Y-81231741D01*
X178165116Y-81261300D01*
X178165119Y-81261300D01*
X178354084Y-81261300D01*
X178540713Y-81231741D01*
X178540714Y-81231740D01*
X178540718Y-81231740D01*
X178720432Y-81173347D01*
X178888799Y-81087560D01*
X179041673Y-80976490D01*
X179175290Y-80842873D01*
X179286360Y-80689999D01*
X179372147Y-80521632D01*
X179430540Y-80341918D01*
X179459806Y-80157138D01*
X179460100Y-80155284D01*
X179460100Y-79966315D01*
X183559100Y-79966315D01*
X183559100Y-80155284D01*
X183588658Y-80341913D01*
X183588660Y-80341918D01*
X183647053Y-80521632D01*
X183732840Y-80689999D01*
X183843910Y-80842873D01*
X183977527Y-80976490D01*
X184130401Y-81087560D01*
X184298768Y-81173347D01*
X184478482Y-81231740D01*
X184478483Y-81231740D01*
X184478486Y-81231741D01*
X184665116Y-81261300D01*
X184665119Y-81261300D01*
X184854084Y-81261300D01*
X185040713Y-81231741D01*
X185040714Y-81231740D01*
X185040718Y-81231740D01*
X185220432Y-81173347D01*
X185388799Y-81087560D01*
X185541673Y-80976490D01*
X185675290Y-80842873D01*
X185786360Y-80689999D01*
X185872147Y-80521632D01*
X185930540Y-80341918D01*
X185959806Y-80157138D01*
X185960100Y-80155284D01*
X185960100Y-79966315D01*
X185930541Y-79779686D01*
X185895498Y-79671835D01*
X185872147Y-79599968D01*
X185786360Y-79431601D01*
X185675290Y-79278727D01*
X185541673Y-79145110D01*
X185388799Y-79034040D01*
X185388798Y-79034039D01*
X185388796Y-79034038D01*
X185220432Y-78948253D01*
X185040713Y-78889858D01*
X184854084Y-78860300D01*
X184854081Y-78860300D01*
X184665119Y-78860300D01*
X184665116Y-78860300D01*
X184478486Y-78889858D01*
X184298767Y-78948253D01*
X184130403Y-79034038D01*
X183977528Y-79145109D01*
X183843909Y-79278728D01*
X183732838Y-79431603D01*
X183647053Y-79599967D01*
X183588658Y-79779686D01*
X183559100Y-79966315D01*
X179460100Y-79966315D01*
X179430541Y-79779686D01*
X179395498Y-79671835D01*
X179372147Y-79599968D01*
X179286360Y-79431601D01*
X179175290Y-79278727D01*
X179041673Y-79145110D01*
X178888799Y-79034040D01*
X178888798Y-79034039D01*
X178888796Y-79034038D01*
X178720432Y-78948253D01*
X178540713Y-78889858D01*
X178354084Y-78860300D01*
X178354081Y-78860300D01*
X178165119Y-78860300D01*
X178165116Y-78860300D01*
X177978486Y-78889858D01*
X177798767Y-78948253D01*
X177630403Y-79034038D01*
X177477528Y-79145109D01*
X177343909Y-79278728D01*
X177232838Y-79431603D01*
X177147053Y-79599967D01*
X177088658Y-79779686D01*
X177059100Y-79966315D01*
X158961528Y-79966315D01*
X159036632Y-79853914D01*
X159112051Y-79671835D01*
X159150500Y-79478541D01*
X159150500Y-79281459D01*
X159112051Y-79088165D01*
X159036632Y-78906086D01*
X158927139Y-78742218D01*
X158787782Y-78602861D01*
X158623914Y-78493368D01*
X158623915Y-78493368D01*
X158623913Y-78493367D01*
X158441835Y-78417949D01*
X158248543Y-78379500D01*
X158248541Y-78379500D01*
X158051459Y-78379500D01*
X158051456Y-78379500D01*
X157858165Y-78417949D01*
X157858163Y-78417949D01*
X157676086Y-78493367D01*
X157512218Y-78602861D01*
X157512214Y-78602864D01*
X157372864Y-78742214D01*
X157372861Y-78742218D01*
X157263367Y-78906086D01*
X157187949Y-79088163D01*
X157187949Y-79088165D01*
X157149500Y-79281456D01*
X133750499Y-79281456D01*
X133712051Y-79088165D01*
X133636632Y-78906086D01*
X133527139Y-78742218D01*
X133387782Y-78602861D01*
X133223914Y-78493368D01*
X133223915Y-78493368D01*
X133223913Y-78493367D01*
X133041835Y-78417949D01*
X132848543Y-78379500D01*
X132848541Y-78379500D01*
X132651459Y-78379500D01*
X132651456Y-78379500D01*
X132458165Y-78417949D01*
X132458163Y-78417949D01*
X132276086Y-78493367D01*
X132112218Y-78602861D01*
X132112214Y-78602864D01*
X131972864Y-78742214D01*
X131972861Y-78742218D01*
X131863367Y-78906086D01*
X131787949Y-79088163D01*
X131787949Y-79088165D01*
X131749500Y-79281456D01*
X129090018Y-79281456D01*
X129099752Y-79274952D01*
X129144067Y-79208631D01*
X129155700Y-79150148D01*
X129155700Y-77110652D01*
X129144067Y-77052169D01*
X129099752Y-76985848D01*
X129099748Y-76985845D01*
X129033433Y-76941534D01*
X129033431Y-76941533D01*
X129033428Y-76941532D01*
X129033427Y-76941532D01*
X128974958Y-76929901D01*
X128974948Y-76929900D01*
X126935452Y-76929900D01*
X126935451Y-76929900D01*
X126935441Y-76929901D01*
X126876972Y-76941532D01*
X126876966Y-76941534D01*
X126810651Y-76985845D01*
X126810645Y-76985851D01*
X126766334Y-77052166D01*
X126766332Y-77052172D01*
X126754701Y-77110641D01*
X126754700Y-77110653D01*
X120994051Y-77110653D01*
X120984399Y-77103640D01*
X120984398Y-77103639D01*
X120984396Y-77103638D01*
X120816032Y-77017853D01*
X120636313Y-76959458D01*
X120449684Y-76929900D01*
X120449681Y-76929900D01*
X120260719Y-76929900D01*
X120260716Y-76929900D01*
X120074086Y-76959458D01*
X119894367Y-77017853D01*
X119726003Y-77103638D01*
X119573128Y-77214709D01*
X119439509Y-77348328D01*
X119328438Y-77501203D01*
X119242653Y-77669567D01*
X119184258Y-77849286D01*
X119154700Y-78035915D01*
X114241700Y-78035915D01*
X114241700Y-76741456D01*
X131749500Y-76741456D01*
X131749500Y-76938543D01*
X131765276Y-77017853D01*
X131783735Y-77110652D01*
X131787949Y-77131834D01*
X131787949Y-77131836D01*
X131863367Y-77313913D01*
X131863368Y-77313914D01*
X131972861Y-77477782D01*
X132112218Y-77617139D01*
X132276086Y-77726632D01*
X132458165Y-77802051D01*
X132651459Y-77840500D01*
X132651460Y-77840500D01*
X132848540Y-77840500D01*
X132848541Y-77840500D01*
X133041835Y-77802051D01*
X133223914Y-77726632D01*
X133387782Y-77617139D01*
X133527139Y-77477782D01*
X133636632Y-77313914D01*
X133712051Y-77131835D01*
X133750500Y-76938541D01*
X133750500Y-76741459D01*
X133750499Y-76741456D01*
X157149500Y-76741456D01*
X157149500Y-76938543D01*
X157165276Y-77017853D01*
X157183735Y-77110652D01*
X157187949Y-77131834D01*
X157187949Y-77131836D01*
X157263367Y-77313913D01*
X157263368Y-77313914D01*
X157372861Y-77477782D01*
X157512218Y-77617139D01*
X157676086Y-77726632D01*
X157858165Y-77802051D01*
X158051459Y-77840500D01*
X158051460Y-77840500D01*
X158248540Y-77840500D01*
X158248541Y-77840500D01*
X158441835Y-77802051D01*
X158623914Y-77726632D01*
X158787782Y-77617139D01*
X158927139Y-77477782D01*
X159036632Y-77313914D01*
X159112051Y-77131835D01*
X159150500Y-76938541D01*
X159150500Y-76873306D01*
X163945500Y-76873306D01*
X163945500Y-77050693D01*
X163955604Y-77101489D01*
X163978125Y-77214709D01*
X163980106Y-77224665D01*
X163980106Y-77224667D01*
X164047985Y-77388544D01*
X164047985Y-77388545D01*
X164146535Y-77536034D01*
X164146536Y-77536035D01*
X164271965Y-77661464D01*
X164419453Y-77760013D01*
X164583334Y-77827894D01*
X164757309Y-77862500D01*
X164757310Y-77862500D01*
X164934690Y-77862500D01*
X164934691Y-77862500D01*
X165108666Y-77827894D01*
X165272547Y-77760013D01*
X165420035Y-77661464D01*
X165545464Y-77536035D01*
X165644013Y-77388547D01*
X165711894Y-77224666D01*
X165746500Y-77050691D01*
X165746500Y-76873309D01*
X165746499Y-76873306D01*
X169025500Y-76873306D01*
X169025500Y-77050693D01*
X169035604Y-77101489D01*
X169058125Y-77214709D01*
X169060106Y-77224665D01*
X169060106Y-77224667D01*
X169127985Y-77388544D01*
X169127985Y-77388545D01*
X169226535Y-77536034D01*
X169226536Y-77536035D01*
X169351965Y-77661464D01*
X169499453Y-77760013D01*
X169663334Y-77827894D01*
X169837309Y-77862500D01*
X169837310Y-77862500D01*
X170014690Y-77862500D01*
X170014691Y-77862500D01*
X170188666Y-77827894D01*
X170352547Y-77760013D01*
X170500035Y-77661464D01*
X170625464Y-77536035D01*
X170724013Y-77388547D01*
X170791894Y-77224666D01*
X170826500Y-77050691D01*
X170826500Y-76924106D01*
X171768700Y-76924106D01*
X171768700Y-77101493D01*
X171803306Y-77275465D01*
X171803306Y-77275467D01*
X171871185Y-77439344D01*
X171871185Y-77439345D01*
X171935792Y-77536035D01*
X171969736Y-77586835D01*
X172095165Y-77712264D01*
X172242653Y-77810813D01*
X172406534Y-77878694D01*
X172580509Y-77913300D01*
X172580510Y-77913300D01*
X172757890Y-77913300D01*
X172757891Y-77913300D01*
X172931866Y-77878694D01*
X173095747Y-77810813D01*
X173243235Y-77712264D01*
X173368664Y-77586835D01*
X173467213Y-77439347D01*
X173535094Y-77275466D01*
X173569700Y-77101491D01*
X173569700Y-76924109D01*
X173569699Y-76924106D01*
X176848700Y-76924106D01*
X176848700Y-77101493D01*
X176883306Y-77275465D01*
X176883306Y-77275467D01*
X176951185Y-77439344D01*
X176951185Y-77439345D01*
X177015792Y-77536035D01*
X177049736Y-77586835D01*
X177175165Y-77712264D01*
X177322653Y-77810813D01*
X177486534Y-77878694D01*
X177660509Y-77913300D01*
X177660510Y-77913300D01*
X177837890Y-77913300D01*
X177837891Y-77913300D01*
X178011866Y-77878694D01*
X178175747Y-77810813D01*
X178323235Y-77712264D01*
X178448664Y-77586835D01*
X178547213Y-77439347D01*
X178615094Y-77275466D01*
X178649700Y-77101491D01*
X178649700Y-76924109D01*
X178615094Y-76750134D01*
X178547214Y-76586255D01*
X178547214Y-76586254D01*
X178448664Y-76438765D01*
X178323234Y-76313335D01*
X178175744Y-76214785D01*
X178011866Y-76146906D01*
X177837893Y-76112300D01*
X177837891Y-76112300D01*
X177660509Y-76112300D01*
X177660506Y-76112300D01*
X177486534Y-76146906D01*
X177486532Y-76146906D01*
X177322655Y-76214785D01*
X177322654Y-76214785D01*
X177175165Y-76313335D01*
X177049735Y-76438765D01*
X176951185Y-76586254D01*
X176951185Y-76586255D01*
X176883306Y-76750132D01*
X176883306Y-76750134D01*
X176848700Y-76924106D01*
X173569699Y-76924106D01*
X173535094Y-76750134D01*
X173467214Y-76586255D01*
X173467214Y-76586254D01*
X173368664Y-76438765D01*
X173243234Y-76313335D01*
X173095744Y-76214785D01*
X172931866Y-76146906D01*
X172757893Y-76112300D01*
X172757891Y-76112300D01*
X172580509Y-76112300D01*
X172580506Y-76112300D01*
X172406534Y-76146906D01*
X172406532Y-76146906D01*
X172242655Y-76214785D01*
X172242654Y-76214785D01*
X172095165Y-76313335D01*
X171969735Y-76438765D01*
X171871185Y-76586254D01*
X171871185Y-76586255D01*
X171803306Y-76750132D01*
X171803306Y-76750134D01*
X171768700Y-76924106D01*
X170826500Y-76924106D01*
X170826500Y-76873309D01*
X170791894Y-76699334D01*
X170745055Y-76586253D01*
X170724014Y-76535455D01*
X170724014Y-76535454D01*
X170625464Y-76387965D01*
X170500034Y-76262535D01*
X170352544Y-76163985D01*
X170188666Y-76096106D01*
X170014693Y-76061500D01*
X170014691Y-76061500D01*
X169837309Y-76061500D01*
X169837306Y-76061500D01*
X169663334Y-76096106D01*
X169663332Y-76096106D01*
X169499455Y-76163985D01*
X169499454Y-76163985D01*
X169351965Y-76262535D01*
X169226535Y-76387965D01*
X169127985Y-76535454D01*
X169127985Y-76535455D01*
X169060106Y-76699332D01*
X169060106Y-76699334D01*
X169025500Y-76873306D01*
X165746499Y-76873306D01*
X165711894Y-76699334D01*
X165665055Y-76586253D01*
X165644014Y-76535455D01*
X165644014Y-76535454D01*
X165545464Y-76387965D01*
X165420034Y-76262535D01*
X165272544Y-76163985D01*
X165108666Y-76096106D01*
X164934693Y-76061500D01*
X164934691Y-76061500D01*
X164757309Y-76061500D01*
X164757306Y-76061500D01*
X164583334Y-76096106D01*
X164583332Y-76096106D01*
X164419455Y-76163985D01*
X164419454Y-76163985D01*
X164271965Y-76262535D01*
X164146535Y-76387965D01*
X164047985Y-76535454D01*
X164047985Y-76535455D01*
X163980106Y-76699332D01*
X163980106Y-76699334D01*
X163945500Y-76873306D01*
X159150500Y-76873306D01*
X159150500Y-76741459D01*
X159112051Y-76548165D01*
X159036632Y-76366086D01*
X158927139Y-76202218D01*
X158787782Y-76062861D01*
X158623914Y-75953368D01*
X158623915Y-75953368D01*
X158623913Y-75953367D01*
X158441835Y-75877949D01*
X158248543Y-75839500D01*
X158248541Y-75839500D01*
X158051459Y-75839500D01*
X158051456Y-75839500D01*
X157858165Y-75877949D01*
X157858163Y-75877949D01*
X157676086Y-75953367D01*
X157512218Y-76062861D01*
X157512214Y-76062864D01*
X157372864Y-76202214D01*
X157372861Y-76202218D01*
X157263367Y-76366086D01*
X157187949Y-76548163D01*
X157187949Y-76548165D01*
X157149500Y-76741456D01*
X133750499Y-76741456D01*
X133712051Y-76548165D01*
X133636632Y-76366086D01*
X133527139Y-76202218D01*
X133387782Y-76062861D01*
X133223914Y-75953368D01*
X133223915Y-75953368D01*
X133223913Y-75953367D01*
X133041835Y-75877949D01*
X132848543Y-75839500D01*
X132848541Y-75839500D01*
X132651459Y-75839500D01*
X132651456Y-75839500D01*
X132458165Y-75877949D01*
X132458163Y-75877949D01*
X132276086Y-75953367D01*
X132112218Y-76062861D01*
X132112214Y-76062864D01*
X131972864Y-76202214D01*
X131972861Y-76202218D01*
X131863367Y-76366086D01*
X131787949Y-76548163D01*
X131787949Y-76548165D01*
X131749500Y-76741456D01*
X114241700Y-76741456D01*
X114241700Y-73493113D01*
X114260607Y-73434922D01*
X114310107Y-73398958D01*
X114351786Y-73394736D01*
X114375737Y-73397435D01*
X115632563Y-72140608D01*
X115653096Y-72203800D01*
X115760285Y-72414171D01*
X115899064Y-72605184D01*
X116066016Y-72772136D01*
X116257029Y-72910915D01*
X116467400Y-73018104D01*
X116530589Y-73038635D01*
X115273764Y-74295460D01*
X115492862Y-74433129D01*
X115816683Y-74589072D01*
X115816685Y-74589073D01*
X116155927Y-74707779D01*
X116506333Y-74787757D01*
X116506339Y-74787758D01*
X116863475Y-74827999D01*
X116863493Y-74828000D01*
X117222907Y-74828000D01*
X117222924Y-74827999D01*
X117580060Y-74787758D01*
X117580066Y-74787757D01*
X117930472Y-74707779D01*
X118269714Y-74589073D01*
X118269716Y-74589072D01*
X118593537Y-74433129D01*
X118812634Y-74295460D01*
X118783773Y-74266599D01*
X118718630Y-74201456D01*
X131749500Y-74201456D01*
X131749500Y-74201459D01*
X131749500Y-74398541D01*
X131787520Y-74589680D01*
X131787949Y-74591834D01*
X131787949Y-74591836D01*
X131863367Y-74773913D01*
X131872618Y-74787758D01*
X131972861Y-74937782D01*
X132112218Y-75077139D01*
X132276086Y-75186632D01*
X132458165Y-75262051D01*
X132651459Y-75300500D01*
X132651460Y-75300500D01*
X132848540Y-75300500D01*
X132848541Y-75300500D01*
X133041835Y-75262051D01*
X133223914Y-75186632D01*
X133387782Y-75077139D01*
X133527139Y-74937782D01*
X133636632Y-74773914D01*
X133712051Y-74591835D01*
X133750500Y-74398541D01*
X133750500Y-74201459D01*
X133712051Y-74008165D01*
X133636632Y-73826086D01*
X133527139Y-73662218D01*
X133387782Y-73522861D01*
X133223914Y-73413368D01*
X133223915Y-73413368D01*
X133223913Y-73413367D01*
X133041835Y-73337949D01*
X132848543Y-73299500D01*
X132848541Y-73299500D01*
X132651459Y-73299500D01*
X132651456Y-73299500D01*
X132458165Y-73337949D01*
X132458163Y-73337949D01*
X132276086Y-73413367D01*
X132112218Y-73522861D01*
X132112214Y-73522864D01*
X131972864Y-73662214D01*
X131972861Y-73662218D01*
X131863367Y-73826086D01*
X131787949Y-74008163D01*
X131787949Y-74008165D01*
X131749500Y-74201456D01*
X118718630Y-74201456D01*
X117555809Y-73038636D01*
X117619000Y-73018104D01*
X117829371Y-72910915D01*
X118020384Y-72772136D01*
X118187336Y-72605184D01*
X118326115Y-72414171D01*
X118433304Y-72203800D01*
X118453836Y-72140609D01*
X119710660Y-73397434D01*
X119848327Y-73178340D01*
X119941672Y-72984508D01*
X154693500Y-72984508D01*
X154693500Y-73116292D01*
X154710126Y-73178340D01*
X154727609Y-73243590D01*
X154793496Y-73357709D01*
X154793498Y-73357711D01*
X154793500Y-73357714D01*
X154886686Y-73450900D01*
X154886688Y-73450901D01*
X154886690Y-73450903D01*
X155000810Y-73516790D01*
X155000808Y-73516790D01*
X155000812Y-73516791D01*
X155000814Y-73516792D01*
X155128108Y-73550900D01*
X155128110Y-73550900D01*
X155259890Y-73550900D01*
X155259892Y-73550900D01*
X155387186Y-73516792D01*
X155387188Y-73516790D01*
X155387190Y-73516790D01*
X155501309Y-73450903D01*
X155501309Y-73450902D01*
X155501314Y-73450900D01*
X155592319Y-73359894D01*
X155646834Y-73332119D01*
X155662321Y-73330900D01*
X157473150Y-73330900D01*
X157531341Y-73349807D01*
X157567305Y-73399307D01*
X157567305Y-73460493D01*
X157531341Y-73509993D01*
X157528188Y-73512189D01*
X157512281Y-73522818D01*
X157512215Y-73522863D01*
X157372864Y-73662214D01*
X157372861Y-73662218D01*
X157263367Y-73826086D01*
X157187949Y-74008163D01*
X157187949Y-74008165D01*
X157149500Y-74201456D01*
X157149500Y-74201459D01*
X157149500Y-74398541D01*
X157187520Y-74589680D01*
X157187949Y-74591834D01*
X157187949Y-74591836D01*
X157263367Y-74773913D01*
X157272618Y-74787758D01*
X157372861Y-74937782D01*
X157512218Y-75077139D01*
X157676086Y-75186632D01*
X157858165Y-75262051D01*
X158051459Y-75300500D01*
X158051460Y-75300500D01*
X158248540Y-75300500D01*
X158248541Y-75300500D01*
X158441835Y-75262051D01*
X158623914Y-75186632D01*
X158787782Y-75077139D01*
X158927139Y-74937782D01*
X159036632Y-74773914D01*
X159112051Y-74591835D01*
X159150500Y-74398541D01*
X159150500Y-74201459D01*
X159112051Y-74008165D01*
X159036632Y-73826086D01*
X158927139Y-73662218D01*
X158787782Y-73522861D01*
X158771847Y-73512213D01*
X158733969Y-73464166D01*
X158731567Y-73403028D01*
X158765559Y-73352154D01*
X158822963Y-73330976D01*
X158826850Y-73330900D01*
X163266406Y-73330900D01*
X163324597Y-73349807D01*
X163336409Y-73359895D01*
X163904498Y-73927985D01*
X164418343Y-74441830D01*
X164418344Y-74441831D01*
X164418343Y-74441831D01*
X164460442Y-74483929D01*
X164470569Y-74494056D01*
X164488358Y-74504326D01*
X164488360Y-74504328D01*
X164507202Y-74515206D01*
X164534531Y-74530984D01*
X164534532Y-74530984D01*
X164534534Y-74530985D01*
X164570201Y-74540542D01*
X164605868Y-74550099D01*
X164605870Y-74550100D01*
X164605871Y-74550100D01*
X164605872Y-74550100D01*
X165224704Y-74550100D01*
X165282895Y-74569007D01*
X165316168Y-74611215D01*
X165329061Y-74642341D01*
X165370968Y-74743514D01*
X165480461Y-74907382D01*
X165619818Y-75046739D01*
X165783686Y-75156232D01*
X165965765Y-75231651D01*
X166159059Y-75270100D01*
X166159060Y-75270100D01*
X166356140Y-75270100D01*
X166356141Y-75270100D01*
X166361560Y-75269022D01*
X168656202Y-75269022D01*
X168659104Y-75269599D01*
X168659111Y-75269600D01*
X168856090Y-75269600D01*
X168858994Y-75269021D01*
X168757599Y-75167626D01*
X168656202Y-75269022D01*
X166361560Y-75269022D01*
X166549435Y-75231651D01*
X166731514Y-75156232D01*
X166895382Y-75046739D01*
X167034739Y-74907382D01*
X167144232Y-74743514D01*
X167219651Y-74561435D01*
X167258100Y-74368141D01*
X167258100Y-74171104D01*
X167757600Y-74171104D01*
X167757600Y-74368089D01*
X167758177Y-74370995D01*
X167859573Y-74269600D01*
X167806912Y-74216939D01*
X168357600Y-74216939D01*
X168357600Y-74322261D01*
X168384859Y-74423994D01*
X168437520Y-74515206D01*
X168511994Y-74589680D01*
X168603206Y-74642341D01*
X168704939Y-74669600D01*
X168810261Y-74669600D01*
X168911994Y-74642341D01*
X169003206Y-74589680D01*
X169077680Y-74515206D01*
X169130341Y-74423994D01*
X169157600Y-74322261D01*
X169157600Y-74269599D01*
X169655626Y-74269599D01*
X169757021Y-74370994D01*
X169757600Y-74368089D01*
X169757600Y-74171111D01*
X169757599Y-74171104D01*
X169757022Y-74168203D01*
X169655626Y-74269599D01*
X169157600Y-74269599D01*
X169157600Y-74216939D01*
X169130341Y-74115206D01*
X169077680Y-74023994D01*
X169003206Y-73949520D01*
X168911994Y-73896859D01*
X168810261Y-73869600D01*
X168704939Y-73869600D01*
X168603206Y-73896859D01*
X168511994Y-73949520D01*
X168437520Y-74023994D01*
X168384859Y-74115206D01*
X168357600Y-74216939D01*
X167806912Y-74216939D01*
X167758176Y-74168203D01*
X167757600Y-74171104D01*
X167258100Y-74171104D01*
X167258100Y-74171059D01*
X167219651Y-73977765D01*
X167144232Y-73795686D01*
X167034739Y-73631818D01*
X166895382Y-73492461D01*
X166731514Y-73382968D01*
X166549435Y-73307549D01*
X166361552Y-73270176D01*
X168656203Y-73270176D01*
X168757600Y-73371573D01*
X168858995Y-73270177D01*
X168856090Y-73269600D01*
X168659104Y-73269600D01*
X168656203Y-73270176D01*
X166361552Y-73270176D01*
X166356143Y-73269100D01*
X166356141Y-73269100D01*
X166159059Y-73269100D01*
X166159056Y-73269100D01*
X165965765Y-73307549D01*
X165965763Y-73307549D01*
X165783686Y-73382967D01*
X165619818Y-73492461D01*
X165619814Y-73492464D01*
X165480464Y-73631814D01*
X165480461Y-73631818D01*
X165370967Y-73795687D01*
X165316168Y-73927985D01*
X165276432Y-73974511D01*
X165224704Y-73989100D01*
X164799995Y-73989100D01*
X164741804Y-73970193D01*
X164729991Y-73960104D01*
X163648057Y-72878171D01*
X163648056Y-72878169D01*
X163595831Y-72825944D01*
X163531869Y-72789016D01*
X163531868Y-72789015D01*
X163531865Y-72789014D01*
X163460531Y-72769900D01*
X163460529Y-72769900D01*
X163460528Y-72769900D01*
X155662321Y-72769900D01*
X155604130Y-72750993D01*
X155592323Y-72740909D01*
X155501314Y-72649900D01*
X155501311Y-72649898D01*
X155501309Y-72649896D01*
X155387189Y-72584009D01*
X155387191Y-72584009D01*
X155320247Y-72566072D01*
X155259892Y-72549900D01*
X155128108Y-72549900D01*
X155067753Y-72566072D01*
X155000809Y-72584009D01*
X154886690Y-72649896D01*
X154793496Y-72743090D01*
X154727609Y-72857209D01*
X154714720Y-72905314D01*
X154693500Y-72984508D01*
X119941672Y-72984508D01*
X119965483Y-72935064D01*
X119965483Y-72935062D01*
X120004272Y-72854517D01*
X120004273Y-72854514D01*
X120122979Y-72515272D01*
X120202957Y-72164866D01*
X120202958Y-72164860D01*
X120228317Y-71939800D01*
X172836613Y-71939800D01*
X172845276Y-71983356D01*
X172845277Y-71983359D01*
X172899172Y-72113475D01*
X172899178Y-72113486D01*
X172977422Y-72230585D01*
X172977430Y-72230594D01*
X173017799Y-72270963D01*
X173017800Y-72270963D01*
X173017800Y-71939801D01*
X173017799Y-71939800D01*
X172836613Y-71939800D01*
X120228317Y-71939800D01*
X120232564Y-71902110D01*
X120232564Y-71902106D01*
X120243199Y-71807709D01*
X120243200Y-71807707D01*
X120243200Y-71448292D01*
X120243199Y-71448275D01*
X120235139Y-71376747D01*
X173167800Y-71376747D01*
X173167800Y-71472853D01*
X173192674Y-71565685D01*
X173240727Y-71648916D01*
X173308684Y-71716873D01*
X173391915Y-71764926D01*
X173484747Y-71789800D01*
X173580853Y-71789800D01*
X173673685Y-71764926D01*
X173756916Y-71716873D01*
X173824873Y-71648916D01*
X173872926Y-71565685D01*
X173897800Y-71472853D01*
X173897800Y-71376747D01*
X173872926Y-71283915D01*
X173824873Y-71200684D01*
X173756916Y-71132727D01*
X173673685Y-71084674D01*
X173580853Y-71059800D01*
X173484747Y-71059800D01*
X173391915Y-71084674D01*
X173308684Y-71132727D01*
X173240727Y-71200684D01*
X173192674Y-71283915D01*
X173167800Y-71376747D01*
X120235139Y-71376747D01*
X120202958Y-71091139D01*
X120202957Y-71091133D01*
X120172671Y-70958440D01*
X120161569Y-70909799D01*
X172836613Y-70909799D01*
X172836614Y-70909800D01*
X173017799Y-70909800D01*
X173017800Y-70909799D01*
X173017800Y-70578636D01*
X174047800Y-70578636D01*
X174047800Y-72270963D01*
X174088169Y-72230594D01*
X174088177Y-72230585D01*
X174166421Y-72113486D01*
X174166424Y-72113480D01*
X174191064Y-72053993D01*
X174230800Y-72007466D01*
X174290295Y-71993182D01*
X174346823Y-72016596D01*
X174373993Y-72053991D01*
X174398731Y-72113714D01*
X174398735Y-72113723D01*
X174458924Y-72203800D01*
X174477035Y-72230905D01*
X174576695Y-72330565D01*
X174615580Y-72356547D01*
X174693876Y-72408864D01*
X174693882Y-72408866D01*
X174693884Y-72408868D01*
X174824096Y-72462804D01*
X174962329Y-72490300D01*
X174962330Y-72490300D01*
X175103270Y-72490300D01*
X175103271Y-72490300D01*
X175241504Y-72462804D01*
X175371716Y-72408868D01*
X175371719Y-72408865D01*
X175371723Y-72408864D01*
X175411134Y-72382529D01*
X175488905Y-72330565D01*
X175588565Y-72230905D01*
X175654765Y-72131829D01*
X175702813Y-72093951D01*
X175763951Y-72091549D01*
X175814825Y-72125542D01*
X175830523Y-72154134D01*
X175865007Y-72252683D01*
X175945645Y-72361944D01*
X175945647Y-72361946D01*
X175945650Y-72361950D01*
X175945653Y-72361952D01*
X175945655Y-72361954D01*
X176054916Y-72442592D01*
X176054917Y-72442592D01*
X176054918Y-72442593D01*
X176183101Y-72487446D01*
X176213525Y-72490299D01*
X176213527Y-72490300D01*
X176213534Y-72490300D01*
X176852073Y-72490300D01*
X176852073Y-72490299D01*
X176882499Y-72487446D01*
X177010682Y-72442593D01*
X177119950Y-72361950D01*
X177200593Y-72252682D01*
X177245446Y-72124499D01*
X177248299Y-72094073D01*
X177248300Y-72094073D01*
X177248300Y-70755527D01*
X177248299Y-70755525D01*
X177246911Y-70740727D01*
X177245446Y-70725101D01*
X177200593Y-70596918D01*
X177187100Y-70578636D01*
X177119954Y-70487655D01*
X177119952Y-70487653D01*
X177119950Y-70487650D01*
X177119946Y-70487647D01*
X177119944Y-70487645D01*
X177010683Y-70407007D01*
X176882503Y-70362155D01*
X176882494Y-70362153D01*
X176852074Y-70359300D01*
X176852066Y-70359300D01*
X176213534Y-70359300D01*
X176213525Y-70359300D01*
X176183105Y-70362153D01*
X176183096Y-70362155D01*
X176054916Y-70407007D01*
X175945655Y-70487645D01*
X175945645Y-70487655D01*
X175865007Y-70596916D01*
X175830523Y-70695465D01*
X175793457Y-70744146D01*
X175734857Y-70761742D01*
X175677105Y-70741533D01*
X175654764Y-70717769D01*
X175639861Y-70695465D01*
X175588565Y-70618695D01*
X175488905Y-70519035D01*
X175469329Y-70505954D01*
X175371723Y-70440735D01*
X175371714Y-70440731D01*
X175241502Y-70386795D01*
X175103273Y-70359300D01*
X175103271Y-70359300D01*
X174962329Y-70359300D01*
X174962326Y-70359300D01*
X174824097Y-70386795D01*
X174693885Y-70440731D01*
X174693876Y-70440735D01*
X174576696Y-70519034D01*
X174477034Y-70618696D01*
X174398735Y-70735876D01*
X174398731Y-70735885D01*
X174373993Y-70795608D01*
X174334256Y-70842134D01*
X174274761Y-70856417D01*
X174218233Y-70833002D01*
X174191065Y-70795607D01*
X174166427Y-70736124D01*
X174166421Y-70736113D01*
X174088177Y-70619014D01*
X174088169Y-70619005D01*
X174047800Y-70578636D01*
X173017800Y-70578636D01*
X173017799Y-70578636D01*
X172977430Y-70619005D01*
X172977422Y-70619014D01*
X172899178Y-70736113D01*
X172899172Y-70736124D01*
X172845277Y-70866240D01*
X172845276Y-70866243D01*
X172836613Y-70909799D01*
X120161569Y-70909799D01*
X120122979Y-70740727D01*
X120004273Y-70401485D01*
X120004272Y-70401483D01*
X119848329Y-70077662D01*
X119710660Y-69858564D01*
X118453835Y-71115389D01*
X118433304Y-71052200D01*
X118326115Y-70841829D01*
X118187336Y-70650816D01*
X118020384Y-70483864D01*
X117829371Y-70345085D01*
X117619000Y-70237896D01*
X117555808Y-70217363D01*
X118812635Y-68960537D01*
X118809936Y-68936586D01*
X118822208Y-68876644D01*
X118867369Y-68835363D01*
X118908313Y-68826500D01*
X182077096Y-68826500D01*
X182135287Y-68845407D01*
G37*
%TD.AperFunction*%
%TA.AperFunction,Conductor*%
G36*
X186563461Y-118914235D02*
G01*
X186587414Y-118911536D01*
X186647356Y-118923808D01*
X186688637Y-118968970D01*
X186697500Y-119009913D01*
X186697500Y-119847300D01*
X186678593Y-119905491D01*
X186629093Y-119941455D01*
X186598500Y-119946300D01*
X185761113Y-119946300D01*
X185702922Y-119927393D01*
X185666958Y-119877893D01*
X185662736Y-119836214D01*
X185665435Y-119812261D01*
X184408609Y-118555436D01*
X184471800Y-118534904D01*
X184682171Y-118427715D01*
X184873184Y-118288936D01*
X185040136Y-118121984D01*
X185178915Y-117930971D01*
X185286104Y-117720600D01*
X185306636Y-117657409D01*
X186563461Y-118914235D01*
G37*
%TD.AperFunction*%
%TA.AperFunction,Conductor*%
G36*
X186656691Y-68845407D02*
G01*
X186692655Y-68894907D01*
X186697500Y-68925500D01*
X186697500Y-69813685D01*
X186678593Y-69871876D01*
X186629093Y-69907840D01*
X186587416Y-69912063D01*
X186563461Y-69909363D01*
X185306635Y-71166189D01*
X185286104Y-71103000D01*
X185178915Y-70892629D01*
X185040136Y-70701616D01*
X184873184Y-70534664D01*
X184682171Y-70395885D01*
X184471800Y-70288696D01*
X184408608Y-70268163D01*
X185665435Y-69011337D01*
X185662233Y-69009326D01*
X185623021Y-68962357D01*
X185618905Y-68901310D01*
X185651458Y-68849503D01*
X185708245Y-68826724D01*
X185714904Y-68826500D01*
X186598500Y-68826500D01*
X186656691Y-68845407D01*
G37*
%TD.AperFunction*%
%TA.AperFunction,Conductor*%
G36*
X115236277Y-68845407D02*
G01*
X115272241Y-68894907D01*
X115276463Y-68936586D01*
X115273763Y-68960537D01*
X116530590Y-70217364D01*
X116467400Y-70237896D01*
X116257029Y-70345085D01*
X116066016Y-70483864D01*
X115899064Y-70650816D01*
X115760285Y-70841829D01*
X115653096Y-71052200D01*
X115632564Y-71115390D01*
X114375738Y-69858564D01*
X114351785Y-69861263D01*
X114291843Y-69848989D01*
X114250563Y-69803827D01*
X114241700Y-69762885D01*
X114241700Y-68925500D01*
X114260607Y-68867309D01*
X114310107Y-68831345D01*
X114340700Y-68826500D01*
X115178086Y-68826500D01*
X115236277Y-68845407D01*
G37*
%TD.AperFunction*%
%TD*%
M02*
