%TF.GenerationSoftware,KiCad,Pcbnew,9.0.0*%
%TF.CreationDate,2025-08-04T22:37:53+02:00*%
%TF.ProjectId,Self balancing cube,53656c66-2062-4616-9c61-6e63696e6720,rev?*%
%TF.SameCoordinates,Original*%
%TF.FileFunction,Legend,Top*%
%TF.FilePolarity,Positive*%
%FSLAX46Y46*%
G04 Gerber Fmt 4.6, Leading zero omitted, Abs format (unit mm)*
G04 Created by KiCad (PCBNEW 9.0.0) date 2025-08-04 22:37:53*
%MOMM*%
%LPD*%
G01*
G04 APERTURE LIST*
%ADD10C,0.100000*%
%ADD11C,0.150000*%
%ADD12C,0.120000*%
G04 APERTURE END LIST*
D10*
X129794000Y-115316000D02*
X120446800Y-115316000D01*
X120446800Y-113538000D01*
X117246400Y-113538000D01*
X117246400Y-110896400D01*
X129794000Y-110896400D01*
X129794000Y-115316000D01*
X120446800Y-115671600D02*
X129794000Y-115671600D01*
X129794000Y-120142000D01*
X120446800Y-120142000D01*
X120446800Y-115671600D01*
X127876131Y-108665814D02*
X127626131Y-108308671D01*
X127447560Y-108665814D02*
X127447560Y-107915814D01*
X127447560Y-107915814D02*
X127733274Y-107915814D01*
X127733274Y-107915814D02*
X127804703Y-107951528D01*
X127804703Y-107951528D02*
X127840417Y-107987242D01*
X127840417Y-107987242D02*
X127876131Y-108058671D01*
X127876131Y-108058671D02*
X127876131Y-108165814D01*
X127876131Y-108165814D02*
X127840417Y-108237242D01*
X127840417Y-108237242D02*
X127804703Y-108272957D01*
X127804703Y-108272957D02*
X127733274Y-108308671D01*
X127733274Y-108308671D02*
X127447560Y-108308671D01*
X128161846Y-107987242D02*
X128197560Y-107951528D01*
X128197560Y-107951528D02*
X128268989Y-107915814D01*
X128268989Y-107915814D02*
X128447560Y-107915814D01*
X128447560Y-107915814D02*
X128518989Y-107951528D01*
X128518989Y-107951528D02*
X128554703Y-107987242D01*
X128554703Y-107987242D02*
X128590417Y-108058671D01*
X128590417Y-108058671D02*
X128590417Y-108130100D01*
X128590417Y-108130100D02*
X128554703Y-108237242D01*
X128554703Y-108237242D02*
X128126131Y-108665814D01*
X128126131Y-108665814D02*
X128590417Y-108665814D01*
X173748531Y-78998614D02*
X173498531Y-78641471D01*
X173319960Y-78998614D02*
X173319960Y-78248614D01*
X173319960Y-78248614D02*
X173605674Y-78248614D01*
X173605674Y-78248614D02*
X173677103Y-78284328D01*
X173677103Y-78284328D02*
X173712817Y-78320042D01*
X173712817Y-78320042D02*
X173748531Y-78391471D01*
X173748531Y-78391471D02*
X173748531Y-78498614D01*
X173748531Y-78498614D02*
X173712817Y-78570042D01*
X173712817Y-78570042D02*
X173677103Y-78605757D01*
X173677103Y-78605757D02*
X173605674Y-78641471D01*
X173605674Y-78641471D02*
X173319960Y-78641471D01*
X174391389Y-78498614D02*
X174391389Y-78998614D01*
X174212817Y-78212900D02*
X174034246Y-78748614D01*
X174034246Y-78748614D02*
X174498531Y-78748614D01*
X131570989Y-117722152D02*
X130809084Y-118007866D01*
X130809084Y-118007866D02*
X131570989Y-118293580D01*
X132380512Y-117865009D02*
X132523369Y-117912628D01*
X132523369Y-117912628D02*
X132570988Y-117960247D01*
X132570988Y-117960247D02*
X132618607Y-118055485D01*
X132618607Y-118055485D02*
X132618607Y-118198342D01*
X132618607Y-118198342D02*
X132570988Y-118293580D01*
X132570988Y-118293580D02*
X132523369Y-118341200D01*
X132523369Y-118341200D02*
X132428131Y-118388819D01*
X132428131Y-118388819D02*
X132047179Y-118388819D01*
X132047179Y-118388819D02*
X132047179Y-117388819D01*
X132047179Y-117388819D02*
X132380512Y-117388819D01*
X132380512Y-117388819D02*
X132475750Y-117436438D01*
X132475750Y-117436438D02*
X132523369Y-117484057D01*
X132523369Y-117484057D02*
X132570988Y-117579295D01*
X132570988Y-117579295D02*
X132570988Y-117674533D01*
X132570988Y-117674533D02*
X132523369Y-117769771D01*
X132523369Y-117769771D02*
X132475750Y-117817390D01*
X132475750Y-117817390D02*
X132380512Y-117865009D01*
X132380512Y-117865009D02*
X132047179Y-117865009D01*
X133475750Y-118388819D02*
X133475750Y-117865009D01*
X133475750Y-117865009D02*
X133428131Y-117769771D01*
X133428131Y-117769771D02*
X133332893Y-117722152D01*
X133332893Y-117722152D02*
X133142417Y-117722152D01*
X133142417Y-117722152D02*
X133047179Y-117769771D01*
X133475750Y-118341200D02*
X133380512Y-118388819D01*
X133380512Y-118388819D02*
X133142417Y-118388819D01*
X133142417Y-118388819D02*
X133047179Y-118341200D01*
X133047179Y-118341200D02*
X132999560Y-118245961D01*
X132999560Y-118245961D02*
X132999560Y-118150723D01*
X132999560Y-118150723D02*
X133047179Y-118055485D01*
X133047179Y-118055485D02*
X133142417Y-118007866D01*
X133142417Y-118007866D02*
X133380512Y-118007866D01*
X133380512Y-118007866D02*
X133475750Y-117960247D01*
X133809084Y-117722152D02*
X134190036Y-117722152D01*
X133951941Y-117388819D02*
X133951941Y-118245961D01*
X133951941Y-118245961D02*
X133999560Y-118341200D01*
X133999560Y-118341200D02*
X134094798Y-118388819D01*
X134094798Y-118388819D02*
X134190036Y-118388819D01*
X134380513Y-117722152D02*
X134761465Y-117722152D01*
X134523370Y-117388819D02*
X134523370Y-118245961D01*
X134523370Y-118245961D02*
X134570989Y-118341200D01*
X134570989Y-118341200D02*
X134666227Y-118388819D01*
X134666227Y-118388819D02*
X134761465Y-118388819D01*
X135475751Y-118341200D02*
X135380513Y-118388819D01*
X135380513Y-118388819D02*
X135190037Y-118388819D01*
X135190037Y-118388819D02*
X135094799Y-118341200D01*
X135094799Y-118341200D02*
X135047180Y-118245961D01*
X135047180Y-118245961D02*
X135047180Y-117865009D01*
X135047180Y-117865009D02*
X135094799Y-117769771D01*
X135094799Y-117769771D02*
X135190037Y-117722152D01*
X135190037Y-117722152D02*
X135380513Y-117722152D01*
X135380513Y-117722152D02*
X135475751Y-117769771D01*
X135475751Y-117769771D02*
X135523370Y-117865009D01*
X135523370Y-117865009D02*
X135523370Y-117960247D01*
X135523370Y-117960247D02*
X135047180Y-118055485D01*
X135951942Y-118388819D02*
X135951942Y-117722152D01*
X135951942Y-117912628D02*
X135999561Y-117817390D01*
X135999561Y-117817390D02*
X136047180Y-117769771D01*
X136047180Y-117769771D02*
X136142418Y-117722152D01*
X136142418Y-117722152D02*
X136237656Y-117722152D01*
X136475752Y-117722152D02*
X136713847Y-118388819D01*
X136951942Y-117722152D02*
X136713847Y-118388819D01*
X136713847Y-118388819D02*
X136618609Y-118626914D01*
X136618609Y-118626914D02*
X136570990Y-118674533D01*
X136570990Y-118674533D02*
X136475752Y-118722152D01*
X179634246Y-78353300D02*
X179741389Y-78389014D01*
X179741389Y-78389014D02*
X179919960Y-78389014D01*
X179919960Y-78389014D02*
X179991389Y-78353300D01*
X179991389Y-78353300D02*
X180027103Y-78317585D01*
X180027103Y-78317585D02*
X180062817Y-78246157D01*
X180062817Y-78246157D02*
X180062817Y-78174728D01*
X180062817Y-78174728D02*
X180027103Y-78103300D01*
X180027103Y-78103300D02*
X179991389Y-78067585D01*
X179991389Y-78067585D02*
X179919960Y-78031871D01*
X179919960Y-78031871D02*
X179777103Y-77996157D01*
X179777103Y-77996157D02*
X179705674Y-77960442D01*
X179705674Y-77960442D02*
X179669960Y-77924728D01*
X179669960Y-77924728D02*
X179634246Y-77853300D01*
X179634246Y-77853300D02*
X179634246Y-77781871D01*
X179634246Y-77781871D02*
X179669960Y-77710442D01*
X179669960Y-77710442D02*
X179705674Y-77674728D01*
X179705674Y-77674728D02*
X179777103Y-77639014D01*
X179777103Y-77639014D02*
X179955674Y-77639014D01*
X179955674Y-77639014D02*
X180062817Y-77674728D01*
X180312817Y-77889014D02*
X180455675Y-78389014D01*
X180455675Y-78389014D02*
X180598532Y-78031871D01*
X180598532Y-78031871D02*
X180741389Y-78389014D01*
X180741389Y-78389014D02*
X180884246Y-77889014D01*
X180991389Y-78460442D02*
X181562817Y-78460442D01*
X182098532Y-78389014D02*
X181741389Y-78389014D01*
X181741389Y-78389014D02*
X181741389Y-77639014D01*
X182634246Y-78353300D02*
X182562818Y-78389014D01*
X182562818Y-78389014D02*
X182419961Y-78389014D01*
X182419961Y-78389014D02*
X182348532Y-78353300D01*
X182348532Y-78353300D02*
X182312818Y-78281871D01*
X182312818Y-78281871D02*
X182312818Y-77996157D01*
X182312818Y-77996157D02*
X182348532Y-77924728D01*
X182348532Y-77924728D02*
X182419961Y-77889014D01*
X182419961Y-77889014D02*
X182562818Y-77889014D01*
X182562818Y-77889014D02*
X182634246Y-77924728D01*
X182634246Y-77924728D02*
X182669961Y-77996157D01*
X182669961Y-77996157D02*
X182669961Y-78067585D01*
X182669961Y-78067585D02*
X182312818Y-78139014D01*
X183312818Y-78389014D02*
X183312818Y-77639014D01*
X183312818Y-78353300D02*
X183241389Y-78389014D01*
X183241389Y-78389014D02*
X183098532Y-78389014D01*
X183098532Y-78389014D02*
X183027103Y-78353300D01*
X183027103Y-78353300D02*
X182991389Y-78317585D01*
X182991389Y-78317585D02*
X182955675Y-78246157D01*
X182955675Y-78246157D02*
X182955675Y-78031871D01*
X182955675Y-78031871D02*
X182991389Y-77960442D01*
X182991389Y-77960442D02*
X183027103Y-77924728D01*
X183027103Y-77924728D02*
X183098532Y-77889014D01*
X183098532Y-77889014D02*
X183241389Y-77889014D01*
X183241389Y-77889014D02*
X183312818Y-77924728D01*
X122491331Y-104093814D02*
X122241331Y-103736671D01*
X122062760Y-104093814D02*
X122062760Y-103343814D01*
X122062760Y-103343814D02*
X122348474Y-103343814D01*
X122348474Y-103343814D02*
X122419903Y-103379528D01*
X122419903Y-103379528D02*
X122455617Y-103415242D01*
X122455617Y-103415242D02*
X122491331Y-103486671D01*
X122491331Y-103486671D02*
X122491331Y-103593814D01*
X122491331Y-103593814D02*
X122455617Y-103665242D01*
X122455617Y-103665242D02*
X122419903Y-103700957D01*
X122419903Y-103700957D02*
X122348474Y-103736671D01*
X122348474Y-103736671D02*
X122062760Y-103736671D01*
X122741331Y-103343814D02*
X123205617Y-103343814D01*
X123205617Y-103343814D02*
X122955617Y-103629528D01*
X122955617Y-103629528D02*
X123062760Y-103629528D01*
X123062760Y-103629528D02*
X123134189Y-103665242D01*
X123134189Y-103665242D02*
X123169903Y-103700957D01*
X123169903Y-103700957D02*
X123205617Y-103772385D01*
X123205617Y-103772385D02*
X123205617Y-103950957D01*
X123205617Y-103950957D02*
X123169903Y-104022385D01*
X123169903Y-104022385D02*
X123134189Y-104058100D01*
X123134189Y-104058100D02*
X123062760Y-104093814D01*
X123062760Y-104093814D02*
X122848474Y-104093814D01*
X122848474Y-104093814D02*
X122777046Y-104058100D01*
X122777046Y-104058100D02*
X122741331Y-104022385D01*
X178408684Y-97205219D02*
X178408684Y-96205219D01*
X178408684Y-96205219D02*
X178742017Y-96919504D01*
X178742017Y-96919504D02*
X179075350Y-96205219D01*
X179075350Y-96205219D02*
X179075350Y-97205219D01*
X179694398Y-97205219D02*
X179599160Y-97157600D01*
X179599160Y-97157600D02*
X179551541Y-97109980D01*
X179551541Y-97109980D02*
X179503922Y-97014742D01*
X179503922Y-97014742D02*
X179503922Y-96729028D01*
X179503922Y-96729028D02*
X179551541Y-96633790D01*
X179551541Y-96633790D02*
X179599160Y-96586171D01*
X179599160Y-96586171D02*
X179694398Y-96538552D01*
X179694398Y-96538552D02*
X179837255Y-96538552D01*
X179837255Y-96538552D02*
X179932493Y-96586171D01*
X179932493Y-96586171D02*
X179980112Y-96633790D01*
X179980112Y-96633790D02*
X180027731Y-96729028D01*
X180027731Y-96729028D02*
X180027731Y-97014742D01*
X180027731Y-97014742D02*
X179980112Y-97109980D01*
X179980112Y-97109980D02*
X179932493Y-97157600D01*
X179932493Y-97157600D02*
X179837255Y-97205219D01*
X179837255Y-97205219D02*
X179694398Y-97205219D01*
X180313446Y-96538552D02*
X180694398Y-96538552D01*
X180456303Y-96205219D02*
X180456303Y-97062361D01*
X180456303Y-97062361D02*
X180503922Y-97157600D01*
X180503922Y-97157600D02*
X180599160Y-97205219D01*
X180599160Y-97205219D02*
X180694398Y-97205219D01*
X181170589Y-97205219D02*
X181075351Y-97157600D01*
X181075351Y-97157600D02*
X181027732Y-97109980D01*
X181027732Y-97109980D02*
X180980113Y-97014742D01*
X180980113Y-97014742D02*
X180980113Y-96729028D01*
X180980113Y-96729028D02*
X181027732Y-96633790D01*
X181027732Y-96633790D02*
X181075351Y-96586171D01*
X181075351Y-96586171D02*
X181170589Y-96538552D01*
X181170589Y-96538552D02*
X181313446Y-96538552D01*
X181313446Y-96538552D02*
X181408684Y-96586171D01*
X181408684Y-96586171D02*
X181456303Y-96633790D01*
X181456303Y-96633790D02*
X181503922Y-96729028D01*
X181503922Y-96729028D02*
X181503922Y-97014742D01*
X181503922Y-97014742D02*
X181456303Y-97109980D01*
X181456303Y-97109980D02*
X181408684Y-97157600D01*
X181408684Y-97157600D02*
X181313446Y-97205219D01*
X181313446Y-97205219D02*
X181170589Y-97205219D01*
X181932494Y-97205219D02*
X181932494Y-96538552D01*
X181932494Y-96729028D02*
X181980113Y-96633790D01*
X181980113Y-96633790D02*
X182027732Y-96586171D01*
X182027732Y-96586171D02*
X182122970Y-96538552D01*
X182122970Y-96538552D02*
X182218208Y-96538552D01*
X182313447Y-97300457D02*
X183075351Y-97300457D01*
X183837256Y-97205219D02*
X183265828Y-97205219D01*
X183551542Y-97205219D02*
X183551542Y-96205219D01*
X183551542Y-96205219D02*
X183456304Y-96348076D01*
X183456304Y-96348076D02*
X183361066Y-96443314D01*
X183361066Y-96443314D02*
X183265828Y-96490933D01*
X178357884Y-110057619D02*
X178357884Y-109057619D01*
X178357884Y-109057619D02*
X178691217Y-109771904D01*
X178691217Y-109771904D02*
X179024550Y-109057619D01*
X179024550Y-109057619D02*
X179024550Y-110057619D01*
X179643598Y-110057619D02*
X179548360Y-110010000D01*
X179548360Y-110010000D02*
X179500741Y-109962380D01*
X179500741Y-109962380D02*
X179453122Y-109867142D01*
X179453122Y-109867142D02*
X179453122Y-109581428D01*
X179453122Y-109581428D02*
X179500741Y-109486190D01*
X179500741Y-109486190D02*
X179548360Y-109438571D01*
X179548360Y-109438571D02*
X179643598Y-109390952D01*
X179643598Y-109390952D02*
X179786455Y-109390952D01*
X179786455Y-109390952D02*
X179881693Y-109438571D01*
X179881693Y-109438571D02*
X179929312Y-109486190D01*
X179929312Y-109486190D02*
X179976931Y-109581428D01*
X179976931Y-109581428D02*
X179976931Y-109867142D01*
X179976931Y-109867142D02*
X179929312Y-109962380D01*
X179929312Y-109962380D02*
X179881693Y-110010000D01*
X179881693Y-110010000D02*
X179786455Y-110057619D01*
X179786455Y-110057619D02*
X179643598Y-110057619D01*
X180262646Y-109390952D02*
X180643598Y-109390952D01*
X180405503Y-109057619D02*
X180405503Y-109914761D01*
X180405503Y-109914761D02*
X180453122Y-110010000D01*
X180453122Y-110010000D02*
X180548360Y-110057619D01*
X180548360Y-110057619D02*
X180643598Y-110057619D01*
X181119789Y-110057619D02*
X181024551Y-110010000D01*
X181024551Y-110010000D02*
X180976932Y-109962380D01*
X180976932Y-109962380D02*
X180929313Y-109867142D01*
X180929313Y-109867142D02*
X180929313Y-109581428D01*
X180929313Y-109581428D02*
X180976932Y-109486190D01*
X180976932Y-109486190D02*
X181024551Y-109438571D01*
X181024551Y-109438571D02*
X181119789Y-109390952D01*
X181119789Y-109390952D02*
X181262646Y-109390952D01*
X181262646Y-109390952D02*
X181357884Y-109438571D01*
X181357884Y-109438571D02*
X181405503Y-109486190D01*
X181405503Y-109486190D02*
X181453122Y-109581428D01*
X181453122Y-109581428D02*
X181453122Y-109867142D01*
X181453122Y-109867142D02*
X181405503Y-109962380D01*
X181405503Y-109962380D02*
X181357884Y-110010000D01*
X181357884Y-110010000D02*
X181262646Y-110057619D01*
X181262646Y-110057619D02*
X181119789Y-110057619D01*
X181881694Y-110057619D02*
X181881694Y-109390952D01*
X181881694Y-109581428D02*
X181929313Y-109486190D01*
X181929313Y-109486190D02*
X181976932Y-109438571D01*
X181976932Y-109438571D02*
X182072170Y-109390952D01*
X182072170Y-109390952D02*
X182167408Y-109390952D01*
X182262647Y-110152857D02*
X183024551Y-110152857D01*
X183167409Y-109057619D02*
X183786456Y-109057619D01*
X183786456Y-109057619D02*
X183453123Y-109438571D01*
X183453123Y-109438571D02*
X183595980Y-109438571D01*
X183595980Y-109438571D02*
X183691218Y-109486190D01*
X183691218Y-109486190D02*
X183738837Y-109533809D01*
X183738837Y-109533809D02*
X183786456Y-109629047D01*
X183786456Y-109629047D02*
X183786456Y-109867142D01*
X183786456Y-109867142D02*
X183738837Y-109962380D01*
X183738837Y-109962380D02*
X183691218Y-110010000D01*
X183691218Y-110010000D02*
X183595980Y-110057619D01*
X183595980Y-110057619D02*
X183310266Y-110057619D01*
X183310266Y-110057619D02*
X183215028Y-110010000D01*
X183215028Y-110010000D02*
X183167409Y-109962380D01*
X178072684Y-111021466D02*
X178834589Y-111021466D01*
X178453636Y-111402419D02*
X178453636Y-110640514D01*
X170941084Y-71373466D02*
X171702989Y-71373466D01*
X171322036Y-71754419D02*
X171322036Y-70992514D01*
X116185046Y-99862819D02*
X116851712Y-99862819D01*
X116851712Y-99862819D02*
X116423141Y-100862819D01*
X117375522Y-100291390D02*
X117280284Y-100243771D01*
X117280284Y-100243771D02*
X117232665Y-100196152D01*
X117232665Y-100196152D02*
X117185046Y-100100914D01*
X117185046Y-100100914D02*
X117185046Y-100053295D01*
X117185046Y-100053295D02*
X117232665Y-99958057D01*
X117232665Y-99958057D02*
X117280284Y-99910438D01*
X117280284Y-99910438D02*
X117375522Y-99862819D01*
X117375522Y-99862819D02*
X117565998Y-99862819D01*
X117565998Y-99862819D02*
X117661236Y-99910438D01*
X117661236Y-99910438D02*
X117708855Y-99958057D01*
X117708855Y-99958057D02*
X117756474Y-100053295D01*
X117756474Y-100053295D02*
X117756474Y-100100914D01*
X117756474Y-100100914D02*
X117708855Y-100196152D01*
X117708855Y-100196152D02*
X117661236Y-100243771D01*
X117661236Y-100243771D02*
X117565998Y-100291390D01*
X117565998Y-100291390D02*
X117375522Y-100291390D01*
X117375522Y-100291390D02*
X117280284Y-100339009D01*
X117280284Y-100339009D02*
X117232665Y-100386628D01*
X117232665Y-100386628D02*
X117185046Y-100481866D01*
X117185046Y-100481866D02*
X117185046Y-100672342D01*
X117185046Y-100672342D02*
X117232665Y-100767580D01*
X117232665Y-100767580D02*
X117280284Y-100815200D01*
X117280284Y-100815200D02*
X117375522Y-100862819D01*
X117375522Y-100862819D02*
X117565998Y-100862819D01*
X117565998Y-100862819D02*
X117661236Y-100815200D01*
X117661236Y-100815200D02*
X117708855Y-100767580D01*
X117708855Y-100767580D02*
X117756474Y-100672342D01*
X117756474Y-100672342D02*
X117756474Y-100481866D01*
X117756474Y-100481866D02*
X117708855Y-100386628D01*
X117708855Y-100386628D02*
X117661236Y-100339009D01*
X117661236Y-100339009D02*
X117565998Y-100291390D01*
X118375522Y-99862819D02*
X118470760Y-99862819D01*
X118470760Y-99862819D02*
X118565998Y-99910438D01*
X118565998Y-99910438D02*
X118613617Y-99958057D01*
X118613617Y-99958057D02*
X118661236Y-100053295D01*
X118661236Y-100053295D02*
X118708855Y-100243771D01*
X118708855Y-100243771D02*
X118708855Y-100481866D01*
X118708855Y-100481866D02*
X118661236Y-100672342D01*
X118661236Y-100672342D02*
X118613617Y-100767580D01*
X118613617Y-100767580D02*
X118565998Y-100815200D01*
X118565998Y-100815200D02*
X118470760Y-100862819D01*
X118470760Y-100862819D02*
X118375522Y-100862819D01*
X118375522Y-100862819D02*
X118280284Y-100815200D01*
X118280284Y-100815200D02*
X118232665Y-100767580D01*
X118232665Y-100767580D02*
X118185046Y-100672342D01*
X118185046Y-100672342D02*
X118137427Y-100481866D01*
X118137427Y-100481866D02*
X118137427Y-100243771D01*
X118137427Y-100243771D02*
X118185046Y-100053295D01*
X118185046Y-100053295D02*
X118232665Y-99958057D01*
X118232665Y-99958057D02*
X118280284Y-99910438D01*
X118280284Y-99910438D02*
X118375522Y-99862819D01*
X119613617Y-99862819D02*
X119137427Y-99862819D01*
X119137427Y-99862819D02*
X119089808Y-100339009D01*
X119089808Y-100339009D02*
X119137427Y-100291390D01*
X119137427Y-100291390D02*
X119232665Y-100243771D01*
X119232665Y-100243771D02*
X119470760Y-100243771D01*
X119470760Y-100243771D02*
X119565998Y-100291390D01*
X119565998Y-100291390D02*
X119613617Y-100339009D01*
X119613617Y-100339009D02*
X119661236Y-100434247D01*
X119661236Y-100434247D02*
X119661236Y-100672342D01*
X119661236Y-100672342D02*
X119613617Y-100767580D01*
X119613617Y-100767580D02*
X119565998Y-100815200D01*
X119565998Y-100815200D02*
X119470760Y-100862819D01*
X119470760Y-100862819D02*
X119232665Y-100862819D01*
X119232665Y-100862819D02*
X119137427Y-100815200D01*
X119137427Y-100815200D02*
X119089808Y-100767580D01*
X125132931Y-88650614D02*
X124882931Y-88293471D01*
X124704360Y-88650614D02*
X124704360Y-87900614D01*
X124704360Y-87900614D02*
X124990074Y-87900614D01*
X124990074Y-87900614D02*
X125061503Y-87936328D01*
X125061503Y-87936328D02*
X125097217Y-87972042D01*
X125097217Y-87972042D02*
X125132931Y-88043471D01*
X125132931Y-88043471D02*
X125132931Y-88150614D01*
X125132931Y-88150614D02*
X125097217Y-88222042D01*
X125097217Y-88222042D02*
X125061503Y-88257757D01*
X125061503Y-88257757D02*
X124990074Y-88293471D01*
X124990074Y-88293471D02*
X124704360Y-88293471D01*
X125847217Y-88650614D02*
X125418646Y-88650614D01*
X125632931Y-88650614D02*
X125632931Y-87900614D01*
X125632931Y-87900614D02*
X125561503Y-88007757D01*
X125561503Y-88007757D02*
X125490074Y-88079185D01*
X125490074Y-88079185D02*
X125418646Y-88114900D01*
X119900531Y-105038385D02*
X119864817Y-105074100D01*
X119864817Y-105074100D02*
X119757674Y-105109814D01*
X119757674Y-105109814D02*
X119686246Y-105109814D01*
X119686246Y-105109814D02*
X119579103Y-105074100D01*
X119579103Y-105074100D02*
X119507674Y-105002671D01*
X119507674Y-105002671D02*
X119471960Y-104931242D01*
X119471960Y-104931242D02*
X119436246Y-104788385D01*
X119436246Y-104788385D02*
X119436246Y-104681242D01*
X119436246Y-104681242D02*
X119471960Y-104538385D01*
X119471960Y-104538385D02*
X119507674Y-104466957D01*
X119507674Y-104466957D02*
X119579103Y-104395528D01*
X119579103Y-104395528D02*
X119686246Y-104359814D01*
X119686246Y-104359814D02*
X119757674Y-104359814D01*
X119757674Y-104359814D02*
X119864817Y-104395528D01*
X119864817Y-104395528D02*
X119900531Y-104431242D01*
X120614817Y-105109814D02*
X120186246Y-105109814D01*
X120400531Y-105109814D02*
X120400531Y-104359814D01*
X120400531Y-104359814D02*
X120329103Y-104466957D01*
X120329103Y-104466957D02*
X120257674Y-104538385D01*
X120257674Y-104538385D02*
X120186246Y-104574100D01*
X131520189Y-112946952D02*
X130758284Y-113232666D01*
X130758284Y-113232666D02*
X131520189Y-113518380D01*
X132329712Y-113089809D02*
X132472569Y-113137428D01*
X132472569Y-113137428D02*
X132520188Y-113185047D01*
X132520188Y-113185047D02*
X132567807Y-113280285D01*
X132567807Y-113280285D02*
X132567807Y-113423142D01*
X132567807Y-113423142D02*
X132520188Y-113518380D01*
X132520188Y-113518380D02*
X132472569Y-113566000D01*
X132472569Y-113566000D02*
X132377331Y-113613619D01*
X132377331Y-113613619D02*
X131996379Y-113613619D01*
X131996379Y-113613619D02*
X131996379Y-112613619D01*
X131996379Y-112613619D02*
X132329712Y-112613619D01*
X132329712Y-112613619D02*
X132424950Y-112661238D01*
X132424950Y-112661238D02*
X132472569Y-112708857D01*
X132472569Y-112708857D02*
X132520188Y-112804095D01*
X132520188Y-112804095D02*
X132520188Y-112899333D01*
X132520188Y-112899333D02*
X132472569Y-112994571D01*
X132472569Y-112994571D02*
X132424950Y-113042190D01*
X132424950Y-113042190D02*
X132329712Y-113089809D01*
X132329712Y-113089809D02*
X131996379Y-113089809D01*
X132996379Y-113613619D02*
X132996379Y-112613619D01*
X132996379Y-112613619D02*
X133377331Y-112613619D01*
X133377331Y-112613619D02*
X133472569Y-112661238D01*
X133472569Y-112661238D02*
X133520188Y-112708857D01*
X133520188Y-112708857D02*
X133567807Y-112804095D01*
X133567807Y-112804095D02*
X133567807Y-112946952D01*
X133567807Y-112946952D02*
X133520188Y-113042190D01*
X133520188Y-113042190D02*
X133472569Y-113089809D01*
X133472569Y-113089809D02*
X133377331Y-113137428D01*
X133377331Y-113137428D02*
X132996379Y-113137428D01*
X164445046Y-87699352D02*
X164635522Y-88366019D01*
X164635522Y-88366019D02*
X164825998Y-87889828D01*
X164825998Y-87889828D02*
X165016474Y-88366019D01*
X165016474Y-88366019D02*
X165206950Y-87699352D01*
X165540284Y-88318400D02*
X165635522Y-88366019D01*
X165635522Y-88366019D02*
X165825998Y-88366019D01*
X165825998Y-88366019D02*
X165921236Y-88318400D01*
X165921236Y-88318400D02*
X165968855Y-88223161D01*
X165968855Y-88223161D02*
X165968855Y-88175542D01*
X165968855Y-88175542D02*
X165921236Y-88080304D01*
X165921236Y-88080304D02*
X165825998Y-88032685D01*
X165825998Y-88032685D02*
X165683141Y-88032685D01*
X165683141Y-88032685D02*
X165587903Y-87985066D01*
X165587903Y-87985066D02*
X165540284Y-87889828D01*
X165540284Y-87889828D02*
X165540284Y-87842209D01*
X165540284Y-87842209D02*
X165587903Y-87746971D01*
X165587903Y-87746971D02*
X165683141Y-87699352D01*
X165683141Y-87699352D02*
X165825998Y-87699352D01*
X165825998Y-87699352D02*
X165921236Y-87746971D01*
X166349808Y-87461257D02*
X166397427Y-87413638D01*
X166397427Y-87413638D02*
X166492665Y-87366019D01*
X166492665Y-87366019D02*
X166730760Y-87366019D01*
X166730760Y-87366019D02*
X166825998Y-87413638D01*
X166825998Y-87413638D02*
X166873617Y-87461257D01*
X166873617Y-87461257D02*
X166921236Y-87556495D01*
X166921236Y-87556495D02*
X166921236Y-87651733D01*
X166921236Y-87651733D02*
X166873617Y-87794590D01*
X166873617Y-87794590D02*
X166302189Y-88366019D01*
X166302189Y-88366019D02*
X166921236Y-88366019D01*
X167492665Y-87794590D02*
X167397427Y-87746971D01*
X167397427Y-87746971D02*
X167349808Y-87699352D01*
X167349808Y-87699352D02*
X167302189Y-87604114D01*
X167302189Y-87604114D02*
X167302189Y-87556495D01*
X167302189Y-87556495D02*
X167349808Y-87461257D01*
X167349808Y-87461257D02*
X167397427Y-87413638D01*
X167397427Y-87413638D02*
X167492665Y-87366019D01*
X167492665Y-87366019D02*
X167683141Y-87366019D01*
X167683141Y-87366019D02*
X167778379Y-87413638D01*
X167778379Y-87413638D02*
X167825998Y-87461257D01*
X167825998Y-87461257D02*
X167873617Y-87556495D01*
X167873617Y-87556495D02*
X167873617Y-87604114D01*
X167873617Y-87604114D02*
X167825998Y-87699352D01*
X167825998Y-87699352D02*
X167778379Y-87746971D01*
X167778379Y-87746971D02*
X167683141Y-87794590D01*
X167683141Y-87794590D02*
X167492665Y-87794590D01*
X167492665Y-87794590D02*
X167397427Y-87842209D01*
X167397427Y-87842209D02*
X167349808Y-87889828D01*
X167349808Y-87889828D02*
X167302189Y-87985066D01*
X167302189Y-87985066D02*
X167302189Y-88175542D01*
X167302189Y-88175542D02*
X167349808Y-88270780D01*
X167349808Y-88270780D02*
X167397427Y-88318400D01*
X167397427Y-88318400D02*
X167492665Y-88366019D01*
X167492665Y-88366019D02*
X167683141Y-88366019D01*
X167683141Y-88366019D02*
X167778379Y-88318400D01*
X167778379Y-88318400D02*
X167825998Y-88270780D01*
X167825998Y-88270780D02*
X167873617Y-88175542D01*
X167873617Y-88175542D02*
X167873617Y-87985066D01*
X167873617Y-87985066D02*
X167825998Y-87889828D01*
X167825998Y-87889828D02*
X167778379Y-87842209D01*
X167778379Y-87842209D02*
X167683141Y-87794590D01*
X168825998Y-88366019D02*
X168254570Y-88366019D01*
X168540284Y-88366019D02*
X168540284Y-87366019D01*
X168540284Y-87366019D02*
X168445046Y-87508876D01*
X168445046Y-87508876D02*
X168349808Y-87604114D01*
X168349808Y-87604114D02*
X168254570Y-87651733D01*
X169206951Y-87461257D02*
X169254570Y-87413638D01*
X169254570Y-87413638D02*
X169349808Y-87366019D01*
X169349808Y-87366019D02*
X169587903Y-87366019D01*
X169587903Y-87366019D02*
X169683141Y-87413638D01*
X169683141Y-87413638D02*
X169730760Y-87461257D01*
X169730760Y-87461257D02*
X169778379Y-87556495D01*
X169778379Y-87556495D02*
X169778379Y-87651733D01*
X169778379Y-87651733D02*
X169730760Y-87794590D01*
X169730760Y-87794590D02*
X169159332Y-88366019D01*
X169159332Y-88366019D02*
X169778379Y-88366019D01*
X163219484Y-91236266D02*
X163981389Y-91236266D01*
X163600436Y-91617219D02*
X163600436Y-90855314D01*
X178069884Y-98219866D02*
X178831789Y-98219866D01*
X178450836Y-98600819D02*
X178450836Y-97838914D01*
X173684284Y-88366019D02*
X173684284Y-87699352D01*
X173684284Y-87794590D02*
X173731903Y-87746971D01*
X173731903Y-87746971D02*
X173827141Y-87699352D01*
X173827141Y-87699352D02*
X173969998Y-87699352D01*
X173969998Y-87699352D02*
X174065236Y-87746971D01*
X174065236Y-87746971D02*
X174112855Y-87842209D01*
X174112855Y-87842209D02*
X174112855Y-88366019D01*
X174112855Y-87842209D02*
X174160474Y-87746971D01*
X174160474Y-87746971D02*
X174255712Y-87699352D01*
X174255712Y-87699352D02*
X174398569Y-87699352D01*
X174398569Y-87699352D02*
X174493808Y-87746971D01*
X174493808Y-87746971D02*
X174541427Y-87842209D01*
X174541427Y-87842209D02*
X174541427Y-88366019D01*
X175017617Y-87699352D02*
X175017617Y-88699352D01*
X175017617Y-87746971D02*
X175112855Y-87699352D01*
X175112855Y-87699352D02*
X175303331Y-87699352D01*
X175303331Y-87699352D02*
X175398569Y-87746971D01*
X175398569Y-87746971D02*
X175446188Y-87794590D01*
X175446188Y-87794590D02*
X175493807Y-87889828D01*
X175493807Y-87889828D02*
X175493807Y-88175542D01*
X175493807Y-88175542D02*
X175446188Y-88270780D01*
X175446188Y-88270780D02*
X175398569Y-88318400D01*
X175398569Y-88318400D02*
X175303331Y-88366019D01*
X175303331Y-88366019D02*
X175112855Y-88366019D01*
X175112855Y-88366019D02*
X175017617Y-88318400D01*
X176350950Y-87699352D02*
X176350950Y-88366019D01*
X175922379Y-87699352D02*
X175922379Y-88223161D01*
X175922379Y-88223161D02*
X175969998Y-88318400D01*
X175969998Y-88318400D02*
X176065236Y-88366019D01*
X176065236Y-88366019D02*
X176208093Y-88366019D01*
X176208093Y-88366019D02*
X176303331Y-88318400D01*
X176303331Y-88318400D02*
X176350950Y-88270780D01*
X177255712Y-87366019D02*
X177065236Y-87366019D01*
X177065236Y-87366019D02*
X176969998Y-87413638D01*
X176969998Y-87413638D02*
X176922379Y-87461257D01*
X176922379Y-87461257D02*
X176827141Y-87604114D01*
X176827141Y-87604114D02*
X176779522Y-87794590D01*
X176779522Y-87794590D02*
X176779522Y-88175542D01*
X176779522Y-88175542D02*
X176827141Y-88270780D01*
X176827141Y-88270780D02*
X176874760Y-88318400D01*
X176874760Y-88318400D02*
X176969998Y-88366019D01*
X176969998Y-88366019D02*
X177160474Y-88366019D01*
X177160474Y-88366019D02*
X177255712Y-88318400D01*
X177255712Y-88318400D02*
X177303331Y-88270780D01*
X177303331Y-88270780D02*
X177350950Y-88175542D01*
X177350950Y-88175542D02*
X177350950Y-87937447D01*
X177350950Y-87937447D02*
X177303331Y-87842209D01*
X177303331Y-87842209D02*
X177255712Y-87794590D01*
X177255712Y-87794590D02*
X177160474Y-87746971D01*
X177160474Y-87746971D02*
X176969998Y-87746971D01*
X176969998Y-87746971D02*
X176874760Y-87794590D01*
X176874760Y-87794590D02*
X176827141Y-87842209D01*
X176827141Y-87842209D02*
X176779522Y-87937447D01*
X177969998Y-87366019D02*
X178065236Y-87366019D01*
X178065236Y-87366019D02*
X178160474Y-87413638D01*
X178160474Y-87413638D02*
X178208093Y-87461257D01*
X178208093Y-87461257D02*
X178255712Y-87556495D01*
X178255712Y-87556495D02*
X178303331Y-87746971D01*
X178303331Y-87746971D02*
X178303331Y-87985066D01*
X178303331Y-87985066D02*
X178255712Y-88175542D01*
X178255712Y-88175542D02*
X178208093Y-88270780D01*
X178208093Y-88270780D02*
X178160474Y-88318400D01*
X178160474Y-88318400D02*
X178065236Y-88366019D01*
X178065236Y-88366019D02*
X177969998Y-88366019D01*
X177969998Y-88366019D02*
X177874760Y-88318400D01*
X177874760Y-88318400D02*
X177827141Y-88270780D01*
X177827141Y-88270780D02*
X177779522Y-88175542D01*
X177779522Y-88175542D02*
X177731903Y-87985066D01*
X177731903Y-87985066D02*
X177731903Y-87746971D01*
X177731903Y-87746971D02*
X177779522Y-87556495D01*
X177779522Y-87556495D02*
X177827141Y-87461257D01*
X177827141Y-87461257D02*
X177874760Y-87413638D01*
X177874760Y-87413638D02*
X177969998Y-87366019D01*
X179208093Y-87366019D02*
X178731903Y-87366019D01*
X178731903Y-87366019D02*
X178684284Y-87842209D01*
X178684284Y-87842209D02*
X178731903Y-87794590D01*
X178731903Y-87794590D02*
X178827141Y-87746971D01*
X178827141Y-87746971D02*
X179065236Y-87746971D01*
X179065236Y-87746971D02*
X179160474Y-87794590D01*
X179160474Y-87794590D02*
X179208093Y-87842209D01*
X179208093Y-87842209D02*
X179255712Y-87937447D01*
X179255712Y-87937447D02*
X179255712Y-88175542D01*
X179255712Y-88175542D02*
X179208093Y-88270780D01*
X179208093Y-88270780D02*
X179160474Y-88318400D01*
X179160474Y-88318400D02*
X179065236Y-88366019D01*
X179065236Y-88366019D02*
X178827141Y-88366019D01*
X178827141Y-88366019D02*
X178731903Y-88318400D01*
X178731903Y-88318400D02*
X178684284Y-88270780D01*
X179874760Y-87366019D02*
X179969998Y-87366019D01*
X179969998Y-87366019D02*
X180065236Y-87413638D01*
X180065236Y-87413638D02*
X180112855Y-87461257D01*
X180112855Y-87461257D02*
X180160474Y-87556495D01*
X180160474Y-87556495D02*
X180208093Y-87746971D01*
X180208093Y-87746971D02*
X180208093Y-87985066D01*
X180208093Y-87985066D02*
X180160474Y-88175542D01*
X180160474Y-88175542D02*
X180112855Y-88270780D01*
X180112855Y-88270780D02*
X180065236Y-88318400D01*
X180065236Y-88318400D02*
X179969998Y-88366019D01*
X179969998Y-88366019D02*
X179874760Y-88366019D01*
X179874760Y-88366019D02*
X179779522Y-88318400D01*
X179779522Y-88318400D02*
X179731903Y-88270780D01*
X179731903Y-88270780D02*
X179684284Y-88175542D01*
X179684284Y-88175542D02*
X179636665Y-87985066D01*
X179636665Y-87985066D02*
X179636665Y-87746971D01*
X179636665Y-87746971D02*
X179684284Y-87556495D01*
X179684284Y-87556495D02*
X179731903Y-87461257D01*
X179731903Y-87461257D02*
X179779522Y-87413638D01*
X179779522Y-87413638D02*
X179874760Y-87366019D01*
X124269331Y-98332785D02*
X124233617Y-98368500D01*
X124233617Y-98368500D02*
X124126474Y-98404214D01*
X124126474Y-98404214D02*
X124055046Y-98404214D01*
X124055046Y-98404214D02*
X123947903Y-98368500D01*
X123947903Y-98368500D02*
X123876474Y-98297071D01*
X123876474Y-98297071D02*
X123840760Y-98225642D01*
X123840760Y-98225642D02*
X123805046Y-98082785D01*
X123805046Y-98082785D02*
X123805046Y-97975642D01*
X123805046Y-97975642D02*
X123840760Y-97832785D01*
X123840760Y-97832785D02*
X123876474Y-97761357D01*
X123876474Y-97761357D02*
X123947903Y-97689928D01*
X123947903Y-97689928D02*
X124055046Y-97654214D01*
X124055046Y-97654214D02*
X124126474Y-97654214D01*
X124126474Y-97654214D02*
X124233617Y-97689928D01*
X124233617Y-97689928D02*
X124269331Y-97725642D01*
X124519331Y-97654214D02*
X124983617Y-97654214D01*
X124983617Y-97654214D02*
X124733617Y-97939928D01*
X124733617Y-97939928D02*
X124840760Y-97939928D01*
X124840760Y-97939928D02*
X124912189Y-97975642D01*
X124912189Y-97975642D02*
X124947903Y-98011357D01*
X124947903Y-98011357D02*
X124983617Y-98082785D01*
X124983617Y-98082785D02*
X124983617Y-98261357D01*
X124983617Y-98261357D02*
X124947903Y-98332785D01*
X124947903Y-98332785D02*
X124912189Y-98368500D01*
X124912189Y-98368500D02*
X124840760Y-98404214D01*
X124840760Y-98404214D02*
X124626474Y-98404214D01*
X124626474Y-98404214D02*
X124555046Y-98368500D01*
X124555046Y-98368500D02*
X124519331Y-98332785D01*
X122418360Y-75696614D02*
X122418360Y-74946614D01*
X122418360Y-75232328D02*
X122489789Y-75196614D01*
X122489789Y-75196614D02*
X122632646Y-75196614D01*
X122632646Y-75196614D02*
X122704074Y-75232328D01*
X122704074Y-75232328D02*
X122739789Y-75268042D01*
X122739789Y-75268042D02*
X122775503Y-75339471D01*
X122775503Y-75339471D02*
X122775503Y-75553757D01*
X122775503Y-75553757D02*
X122739789Y-75625185D01*
X122739789Y-75625185D02*
X122704074Y-75660900D01*
X122704074Y-75660900D02*
X122632646Y-75696614D01*
X122632646Y-75696614D02*
X122489789Y-75696614D01*
X122489789Y-75696614D02*
X122418360Y-75660900D01*
X123418360Y-75196614D02*
X123418360Y-75696614D01*
X123096931Y-75196614D02*
X123096931Y-75589471D01*
X123096931Y-75589471D02*
X123132645Y-75660900D01*
X123132645Y-75660900D02*
X123204074Y-75696614D01*
X123204074Y-75696614D02*
X123311217Y-75696614D01*
X123311217Y-75696614D02*
X123382645Y-75660900D01*
X123382645Y-75660900D02*
X123418360Y-75625185D01*
X123704073Y-75196614D02*
X124096931Y-75196614D01*
X124096931Y-75196614D02*
X123704073Y-75696614D01*
X123704073Y-75696614D02*
X124096931Y-75696614D01*
X124311216Y-75196614D02*
X124704074Y-75196614D01*
X124704074Y-75196614D02*
X124311216Y-75696614D01*
X124311216Y-75696614D02*
X124704074Y-75696614D01*
X125275502Y-75660900D02*
X125204074Y-75696614D01*
X125204074Y-75696614D02*
X125061217Y-75696614D01*
X125061217Y-75696614D02*
X124989788Y-75660900D01*
X124989788Y-75660900D02*
X124954074Y-75589471D01*
X124954074Y-75589471D02*
X124954074Y-75303757D01*
X124954074Y-75303757D02*
X124989788Y-75232328D01*
X124989788Y-75232328D02*
X125061217Y-75196614D01*
X125061217Y-75196614D02*
X125204074Y-75196614D01*
X125204074Y-75196614D02*
X125275502Y-75232328D01*
X125275502Y-75232328D02*
X125311217Y-75303757D01*
X125311217Y-75303757D02*
X125311217Y-75375185D01*
X125311217Y-75375185D02*
X124954074Y-75446614D01*
X125632645Y-75696614D02*
X125632645Y-75196614D01*
X125632645Y-75339471D02*
X125668359Y-75268042D01*
X125668359Y-75268042D02*
X125704074Y-75232328D01*
X125704074Y-75232328D02*
X125775502Y-75196614D01*
X125775502Y-75196614D02*
X125846931Y-75196614D01*
X178459484Y-103656819D02*
X178459484Y-102656819D01*
X178459484Y-102656819D02*
X178792817Y-103371104D01*
X178792817Y-103371104D02*
X179126150Y-102656819D01*
X179126150Y-102656819D02*
X179126150Y-103656819D01*
X179745198Y-103656819D02*
X179649960Y-103609200D01*
X179649960Y-103609200D02*
X179602341Y-103561580D01*
X179602341Y-103561580D02*
X179554722Y-103466342D01*
X179554722Y-103466342D02*
X179554722Y-103180628D01*
X179554722Y-103180628D02*
X179602341Y-103085390D01*
X179602341Y-103085390D02*
X179649960Y-103037771D01*
X179649960Y-103037771D02*
X179745198Y-102990152D01*
X179745198Y-102990152D02*
X179888055Y-102990152D01*
X179888055Y-102990152D02*
X179983293Y-103037771D01*
X179983293Y-103037771D02*
X180030912Y-103085390D01*
X180030912Y-103085390D02*
X180078531Y-103180628D01*
X180078531Y-103180628D02*
X180078531Y-103466342D01*
X180078531Y-103466342D02*
X180030912Y-103561580D01*
X180030912Y-103561580D02*
X179983293Y-103609200D01*
X179983293Y-103609200D02*
X179888055Y-103656819D01*
X179888055Y-103656819D02*
X179745198Y-103656819D01*
X180364246Y-102990152D02*
X180745198Y-102990152D01*
X180507103Y-102656819D02*
X180507103Y-103513961D01*
X180507103Y-103513961D02*
X180554722Y-103609200D01*
X180554722Y-103609200D02*
X180649960Y-103656819D01*
X180649960Y-103656819D02*
X180745198Y-103656819D01*
X181221389Y-103656819D02*
X181126151Y-103609200D01*
X181126151Y-103609200D02*
X181078532Y-103561580D01*
X181078532Y-103561580D02*
X181030913Y-103466342D01*
X181030913Y-103466342D02*
X181030913Y-103180628D01*
X181030913Y-103180628D02*
X181078532Y-103085390D01*
X181078532Y-103085390D02*
X181126151Y-103037771D01*
X181126151Y-103037771D02*
X181221389Y-102990152D01*
X181221389Y-102990152D02*
X181364246Y-102990152D01*
X181364246Y-102990152D02*
X181459484Y-103037771D01*
X181459484Y-103037771D02*
X181507103Y-103085390D01*
X181507103Y-103085390D02*
X181554722Y-103180628D01*
X181554722Y-103180628D02*
X181554722Y-103466342D01*
X181554722Y-103466342D02*
X181507103Y-103561580D01*
X181507103Y-103561580D02*
X181459484Y-103609200D01*
X181459484Y-103609200D02*
X181364246Y-103656819D01*
X181364246Y-103656819D02*
X181221389Y-103656819D01*
X181983294Y-103656819D02*
X181983294Y-102990152D01*
X181983294Y-103180628D02*
X182030913Y-103085390D01*
X182030913Y-103085390D02*
X182078532Y-103037771D01*
X182078532Y-103037771D02*
X182173770Y-102990152D01*
X182173770Y-102990152D02*
X182269008Y-102990152D01*
X182364247Y-103752057D02*
X183126151Y-103752057D01*
X183316628Y-102752057D02*
X183364247Y-102704438D01*
X183364247Y-102704438D02*
X183459485Y-102656819D01*
X183459485Y-102656819D02*
X183697580Y-102656819D01*
X183697580Y-102656819D02*
X183792818Y-102704438D01*
X183792818Y-102704438D02*
X183840437Y-102752057D01*
X183840437Y-102752057D02*
X183888056Y-102847295D01*
X183888056Y-102847295D02*
X183888056Y-102942533D01*
X183888056Y-102942533D02*
X183840437Y-103085390D01*
X183840437Y-103085390D02*
X183269009Y-103656819D01*
X183269009Y-103656819D02*
X183888056Y-103656819D01*
X165518931Y-72526385D02*
X165483217Y-72562100D01*
X165483217Y-72562100D02*
X165376074Y-72597814D01*
X165376074Y-72597814D02*
X165304646Y-72597814D01*
X165304646Y-72597814D02*
X165197503Y-72562100D01*
X165197503Y-72562100D02*
X165126074Y-72490671D01*
X165126074Y-72490671D02*
X165090360Y-72419242D01*
X165090360Y-72419242D02*
X165054646Y-72276385D01*
X165054646Y-72276385D02*
X165054646Y-72169242D01*
X165054646Y-72169242D02*
X165090360Y-72026385D01*
X165090360Y-72026385D02*
X165126074Y-71954957D01*
X165126074Y-71954957D02*
X165197503Y-71883528D01*
X165197503Y-71883528D02*
X165304646Y-71847814D01*
X165304646Y-71847814D02*
X165376074Y-71847814D01*
X165376074Y-71847814D02*
X165483217Y-71883528D01*
X165483217Y-71883528D02*
X165518931Y-71919242D01*
X165804646Y-71919242D02*
X165840360Y-71883528D01*
X165840360Y-71883528D02*
X165911789Y-71847814D01*
X165911789Y-71847814D02*
X166090360Y-71847814D01*
X166090360Y-71847814D02*
X166161789Y-71883528D01*
X166161789Y-71883528D02*
X166197503Y-71919242D01*
X166197503Y-71919242D02*
X166233217Y-71990671D01*
X166233217Y-71990671D02*
X166233217Y-72062100D01*
X166233217Y-72062100D02*
X166197503Y-72169242D01*
X166197503Y-72169242D02*
X165768931Y-72597814D01*
X165768931Y-72597814D02*
X166233217Y-72597814D01*
X165874531Y-78947814D02*
X165624531Y-78590671D01*
X165445960Y-78947814D02*
X165445960Y-78197814D01*
X165445960Y-78197814D02*
X165731674Y-78197814D01*
X165731674Y-78197814D02*
X165803103Y-78233528D01*
X165803103Y-78233528D02*
X165838817Y-78269242D01*
X165838817Y-78269242D02*
X165874531Y-78340671D01*
X165874531Y-78340671D02*
X165874531Y-78447814D01*
X165874531Y-78447814D02*
X165838817Y-78519242D01*
X165838817Y-78519242D02*
X165803103Y-78554957D01*
X165803103Y-78554957D02*
X165731674Y-78590671D01*
X165731674Y-78590671D02*
X165445960Y-78590671D01*
X166553103Y-78197814D02*
X166195960Y-78197814D01*
X166195960Y-78197814D02*
X166160246Y-78554957D01*
X166160246Y-78554957D02*
X166195960Y-78519242D01*
X166195960Y-78519242D02*
X166267389Y-78483528D01*
X166267389Y-78483528D02*
X166445960Y-78483528D01*
X166445960Y-78483528D02*
X166517389Y-78519242D01*
X166517389Y-78519242D02*
X166553103Y-78554957D01*
X166553103Y-78554957D02*
X166588817Y-78626385D01*
X166588817Y-78626385D02*
X166588817Y-78804957D01*
X166588817Y-78804957D02*
X166553103Y-78876385D01*
X166553103Y-78876385D02*
X166517389Y-78912100D01*
X166517389Y-78912100D02*
X166445960Y-78947814D01*
X166445960Y-78947814D02*
X166267389Y-78947814D01*
X166267389Y-78947814D02*
X166195960Y-78912100D01*
X166195960Y-78912100D02*
X166160246Y-78876385D01*
X119209960Y-88366442D02*
X119138531Y-88330728D01*
X119138531Y-88330728D02*
X119067103Y-88259300D01*
X119067103Y-88259300D02*
X118959960Y-88152157D01*
X118959960Y-88152157D02*
X118888531Y-88116442D01*
X118888531Y-88116442D02*
X118817103Y-88116442D01*
X118852817Y-88295014D02*
X118781389Y-88259300D01*
X118781389Y-88259300D02*
X118709960Y-88187871D01*
X118709960Y-88187871D02*
X118674246Y-88045014D01*
X118674246Y-88045014D02*
X118674246Y-87795014D01*
X118674246Y-87795014D02*
X118709960Y-87652157D01*
X118709960Y-87652157D02*
X118781389Y-87580728D01*
X118781389Y-87580728D02*
X118852817Y-87545014D01*
X118852817Y-87545014D02*
X118995674Y-87545014D01*
X118995674Y-87545014D02*
X119067103Y-87580728D01*
X119067103Y-87580728D02*
X119138531Y-87652157D01*
X119138531Y-87652157D02*
X119174246Y-87795014D01*
X119174246Y-87795014D02*
X119174246Y-88045014D01*
X119174246Y-88045014D02*
X119138531Y-88187871D01*
X119138531Y-88187871D02*
X119067103Y-88259300D01*
X119067103Y-88259300D02*
X118995674Y-88295014D01*
X118995674Y-88295014D02*
X118852817Y-88295014D01*
X119888531Y-88295014D02*
X119459960Y-88295014D01*
X119674245Y-88295014D02*
X119674245Y-87545014D01*
X119674245Y-87545014D02*
X119602817Y-87652157D01*
X119602817Y-87652157D02*
X119531388Y-87723585D01*
X119531388Y-87723585D02*
X119459960Y-87759300D01*
X172160284Y-91287066D02*
X172922189Y-91287066D01*
X172541236Y-91668019D02*
X172541236Y-90906114D01*
X178072684Y-104620666D02*
X178834589Y-104620666D01*
X178453636Y-105001619D02*
X178453636Y-104239714D01*
D11*
X126568248Y-80185466D02*
X127330153Y-80185466D01*
X126949200Y-80566419D02*
X126949200Y-79804514D01*
D10*
%TO.C,U2*%
X131720000Y-68620000D02*
X159420000Y-68620000D01*
X131720000Y-120120000D02*
X131720000Y-68620000D01*
X159420000Y-68620000D02*
X159420000Y-120120000D01*
X159420000Y-120120000D02*
X131720000Y-120120000D01*
D12*
%TO.C,C1*%
X118354800Y-108253200D02*
X118354800Y-105513200D01*
X123594800Y-105513200D02*
X118354800Y-105513200D01*
X123594800Y-108253200D02*
X118354800Y-108253200D01*
X123594800Y-108253200D02*
X123594800Y-105513200D01*
%TO.C,J8*%
X163848800Y-107610000D02*
X163848800Y-108410000D01*
X164048800Y-107810000D02*
X164048800Y-111530000D01*
X164048800Y-108720000D02*
X164448800Y-108720000D01*
X164048800Y-109720000D02*
X164448800Y-109720000D01*
X164048800Y-111530000D02*
X177768800Y-111530000D01*
X164448800Y-108210000D02*
X164448800Y-111130000D01*
X164448800Y-111130000D02*
X177368800Y-111130000D01*
X164648800Y-107610000D02*
X163848800Y-107610000D01*
X165058800Y-107610000D02*
X165058800Y-107810000D01*
X165358800Y-107610000D02*
X165058800Y-107610000D01*
X165358800Y-107710000D02*
X165058800Y-107710000D01*
X165358800Y-107810000D02*
X165358800Y-107610000D01*
X166308800Y-110730000D02*
X166508800Y-110730000D01*
X166308800Y-111130000D02*
X166308800Y-110730000D01*
X166408800Y-111130000D02*
X166408800Y-110730000D01*
X166508800Y-110730000D02*
X166508800Y-111130000D01*
X167808800Y-110730000D02*
X168008800Y-110730000D01*
X167808800Y-111130000D02*
X167808800Y-110730000D01*
X167908800Y-111130000D02*
X167908800Y-110730000D01*
X168008800Y-110730000D02*
X168008800Y-111130000D01*
X169308800Y-110730000D02*
X169508800Y-110730000D01*
X169308800Y-111130000D02*
X169308800Y-110730000D01*
X169408800Y-111130000D02*
X169408800Y-110730000D01*
X169508800Y-110730000D02*
X169508800Y-111130000D01*
X170808800Y-110730000D02*
X171008800Y-110730000D01*
X170808800Y-111130000D02*
X170808800Y-110730000D01*
X170908800Y-111130000D02*
X170908800Y-110730000D01*
X171008800Y-110730000D02*
X171008800Y-111130000D01*
X172308800Y-110730000D02*
X172508800Y-110730000D01*
X172308800Y-111130000D02*
X172308800Y-110730000D01*
X172408800Y-111130000D02*
X172408800Y-110730000D01*
X172508800Y-110730000D02*
X172508800Y-111130000D01*
X173808800Y-110730000D02*
X174008800Y-110730000D01*
X173808800Y-111130000D02*
X173808800Y-110730000D01*
X173908800Y-111130000D02*
X173908800Y-110730000D01*
X174008800Y-110730000D02*
X174008800Y-111130000D01*
X175308800Y-110730000D02*
X175508800Y-110730000D01*
X175308800Y-111130000D02*
X175308800Y-110730000D01*
X175408800Y-111130000D02*
X175408800Y-110730000D01*
X175508800Y-110730000D02*
X175508800Y-111130000D01*
X177368800Y-108210000D02*
X164448800Y-108210000D01*
X177368800Y-111130000D02*
X177368800Y-108210000D01*
X177768800Y-107810000D02*
X164048800Y-107810000D01*
X177768800Y-108720000D02*
X177368800Y-108720000D01*
X177768800Y-109720000D02*
X177368800Y-109720000D01*
X177768800Y-111530000D02*
X177768800Y-107810000D01*
%TO.C,C2*%
X164887600Y-72899600D02*
X164887600Y-75639600D01*
X164887600Y-72899600D02*
X170127600Y-72899600D01*
X164887600Y-75639600D02*
X170127600Y-75639600D01*
X170127600Y-72899600D02*
X170127600Y-75639600D01*
%TO.C,J7*%
X163848800Y-101209200D02*
X163848800Y-102009200D01*
X164048800Y-101409200D02*
X164048800Y-105129200D01*
X164048800Y-102319200D02*
X164448800Y-102319200D01*
X164048800Y-103319200D02*
X164448800Y-103319200D01*
X164048800Y-105129200D02*
X177768800Y-105129200D01*
X164448800Y-101809200D02*
X164448800Y-104729200D01*
X164448800Y-104729200D02*
X177368800Y-104729200D01*
X164648800Y-101209200D02*
X163848800Y-101209200D01*
X165058800Y-101209200D02*
X165058800Y-101409200D01*
X165358800Y-101209200D02*
X165058800Y-101209200D01*
X165358800Y-101309200D02*
X165058800Y-101309200D01*
X165358800Y-101409200D02*
X165358800Y-101209200D01*
X166308800Y-104329200D02*
X166508800Y-104329200D01*
X166308800Y-104729200D02*
X166308800Y-104329200D01*
X166408800Y-104729200D02*
X166408800Y-104329200D01*
X166508800Y-104329200D02*
X166508800Y-104729200D01*
X167808800Y-104329200D02*
X168008800Y-104329200D01*
X167808800Y-104729200D02*
X167808800Y-104329200D01*
X167908800Y-104729200D02*
X167908800Y-104329200D01*
X168008800Y-104329200D02*
X168008800Y-104729200D01*
X169308800Y-104329200D02*
X169508800Y-104329200D01*
X169308800Y-104729200D02*
X169308800Y-104329200D01*
X169408800Y-104729200D02*
X169408800Y-104329200D01*
X169508800Y-104329200D02*
X169508800Y-104729200D01*
X170808800Y-104329200D02*
X171008800Y-104329200D01*
X170808800Y-104729200D02*
X170808800Y-104329200D01*
X170908800Y-104729200D02*
X170908800Y-104329200D01*
X171008800Y-104329200D02*
X171008800Y-104729200D01*
X172308800Y-104329200D02*
X172508800Y-104329200D01*
X172308800Y-104729200D02*
X172308800Y-104329200D01*
X172408800Y-104729200D02*
X172408800Y-104329200D01*
X172508800Y-104329200D02*
X172508800Y-104729200D01*
X173808800Y-104329200D02*
X174008800Y-104329200D01*
X173808800Y-104729200D02*
X173808800Y-104329200D01*
X173908800Y-104729200D02*
X173908800Y-104329200D01*
X174008800Y-104329200D02*
X174008800Y-104729200D01*
X175308800Y-104329200D02*
X175508800Y-104329200D01*
X175308800Y-104729200D02*
X175308800Y-104329200D01*
X175408800Y-104729200D02*
X175408800Y-104329200D01*
X175508800Y-104329200D02*
X175508800Y-104729200D01*
X177368800Y-101809200D02*
X164448800Y-101809200D01*
X177368800Y-104729200D02*
X177368800Y-101809200D01*
X177768800Y-101409200D02*
X164048800Y-101409200D01*
X177768800Y-102319200D02*
X177368800Y-102319200D01*
X177768800Y-103319200D02*
X177368800Y-103319200D01*
X177768800Y-105129200D02*
X177768800Y-101409200D01*
%TO.C,R2*%
X125165600Y-108701600D02*
X125165600Y-104861600D01*
X127005600Y-108701600D02*
X127005600Y-104861600D01*
%TO.C,R5*%
X165466000Y-76042000D02*
X169306000Y-76042000D01*
X165466000Y-77882000D02*
X169306000Y-77882000D01*
%TO.C,C3*%
X129355600Y-94152400D02*
G75*
G02*
X122815600Y-94152400I-3270000J0D01*
G01*
X122815600Y-94152400D02*
G75*
G02*
X129355600Y-94152400I3270000J0D01*
G01*
%TO.C,J14*%
X171922800Y-69114800D02*
X171922800Y-72834800D01*
X171922800Y-70924800D02*
X172322800Y-70924800D01*
X171922800Y-71924800D02*
X172322800Y-71924800D01*
X171922800Y-72834800D02*
X178142800Y-72834800D01*
X172322800Y-69514800D02*
X172322800Y-72434800D01*
X172322800Y-72434800D02*
X177742800Y-72434800D01*
X174182800Y-69914800D02*
X174182800Y-69514800D01*
X174282800Y-69514800D02*
X174282800Y-69914800D01*
X174382800Y-69514800D02*
X174382800Y-69914800D01*
X174382800Y-69914800D02*
X174182800Y-69914800D01*
X175682800Y-69914800D02*
X175682800Y-69514800D01*
X175782800Y-69514800D02*
X175782800Y-69914800D01*
X175882800Y-69514800D02*
X175882800Y-69914800D01*
X175882800Y-69914800D02*
X175682800Y-69914800D01*
X176832800Y-72834800D02*
X176832800Y-73034800D01*
X176832800Y-72934800D02*
X177132800Y-72934800D01*
X176832800Y-73034800D02*
X177132800Y-73034800D01*
X177132800Y-73034800D02*
X177132800Y-72834800D01*
X177542800Y-73034800D02*
X178342800Y-73034800D01*
X177742800Y-69514800D02*
X172322800Y-69514800D01*
X177742800Y-72434800D02*
X177742800Y-69514800D01*
X178142800Y-69114800D02*
X171922800Y-69114800D01*
X178142800Y-70924800D02*
X177742800Y-70924800D01*
X178142800Y-71924800D02*
X177742800Y-71924800D01*
X178142800Y-72834800D02*
X178142800Y-69114800D01*
X178342800Y-73034800D02*
X178342800Y-72234800D01*
%TO.C,Q1*%
X118994800Y-86788400D02*
X118994800Y-83188400D01*
X114544800Y-84988400D02*
G75*
G02*
X118983278Y-83149922I2600000J0D01*
G01*
X118983278Y-86826878D02*
G75*
G02*
X114544799Y-84988400I-1838478J1838478D01*
G01*
%TO.C,U1*%
X115754400Y-89317200D02*
X120395400Y-89317200D01*
X115754400Y-92586200D02*
X117264400Y-92586200D01*
X115754400Y-96287200D02*
X117264400Y-96287200D01*
X115754400Y-99557200D02*
X115754400Y-89317200D01*
X115754400Y-99557200D02*
X120395400Y-99557200D01*
X117264400Y-99557200D02*
X117264400Y-89317200D01*
X120395400Y-99557200D02*
X120395400Y-89317200D01*
%TO.C,R4*%
X173289200Y-76092800D02*
X177129200Y-76092800D01*
X173289200Y-77932800D02*
X177129200Y-77932800D01*
%TO.C,SW2*%
X178009600Y-81560800D02*
X178009600Y-83060800D01*
X179259600Y-85560800D02*
X183759600Y-85560800D01*
X183759600Y-79060800D02*
X179259600Y-79060800D01*
X185009600Y-83060800D02*
X185009600Y-81560800D01*
%TO.C,J6*%
X163846000Y-94808400D02*
X163846000Y-95608400D01*
X164046000Y-95008400D02*
X164046000Y-98728400D01*
X164046000Y-95918400D02*
X164446000Y-95918400D01*
X164046000Y-96918400D02*
X164446000Y-96918400D01*
X164046000Y-98728400D02*
X177766000Y-98728400D01*
X164446000Y-95408400D02*
X164446000Y-98328400D01*
X164446000Y-98328400D02*
X177366000Y-98328400D01*
X164646000Y-94808400D02*
X163846000Y-94808400D01*
X165056000Y-94808400D02*
X165056000Y-95008400D01*
X165356000Y-94808400D02*
X165056000Y-94808400D01*
X165356000Y-94908400D02*
X165056000Y-94908400D01*
X165356000Y-95008400D02*
X165356000Y-94808400D01*
X166306000Y-97928400D02*
X166506000Y-97928400D01*
X166306000Y-98328400D02*
X166306000Y-97928400D01*
X166406000Y-98328400D02*
X166406000Y-97928400D01*
X166506000Y-97928400D02*
X166506000Y-98328400D01*
X167806000Y-97928400D02*
X168006000Y-97928400D01*
X167806000Y-98328400D02*
X167806000Y-97928400D01*
X167906000Y-98328400D02*
X167906000Y-97928400D01*
X168006000Y-97928400D02*
X168006000Y-98328400D01*
X169306000Y-97928400D02*
X169506000Y-97928400D01*
X169306000Y-98328400D02*
X169306000Y-97928400D01*
X169406000Y-98328400D02*
X169406000Y-97928400D01*
X169506000Y-97928400D02*
X169506000Y-98328400D01*
X170806000Y-97928400D02*
X171006000Y-97928400D01*
X170806000Y-98328400D02*
X170806000Y-97928400D01*
X170906000Y-98328400D02*
X170906000Y-97928400D01*
X171006000Y-97928400D02*
X171006000Y-98328400D01*
X172306000Y-97928400D02*
X172506000Y-97928400D01*
X172306000Y-98328400D02*
X172306000Y-97928400D01*
X172406000Y-98328400D02*
X172406000Y-97928400D01*
X172506000Y-97928400D02*
X172506000Y-98328400D01*
X173806000Y-97928400D02*
X174006000Y-97928400D01*
X173806000Y-98328400D02*
X173806000Y-97928400D01*
X173906000Y-98328400D02*
X173906000Y-97928400D01*
X174006000Y-97928400D02*
X174006000Y-98328400D01*
X175306000Y-97928400D02*
X175506000Y-97928400D01*
X175306000Y-98328400D02*
X175306000Y-97928400D01*
X175406000Y-98328400D02*
X175406000Y-97928400D01*
X175506000Y-97928400D02*
X175506000Y-98328400D01*
X177366000Y-95408400D02*
X164446000Y-95408400D01*
X177366000Y-98328400D02*
X177366000Y-95408400D01*
X177766000Y-95008400D02*
X164046000Y-95008400D01*
X177766000Y-95918400D02*
X177366000Y-95918400D01*
X177766000Y-96918400D02*
X177366000Y-96918400D01*
X177766000Y-98728400D02*
X177766000Y-95008400D01*
%TO.C,R3*%
X125364000Y-101188000D02*
X121524000Y-101188000D01*
X125364000Y-103028000D02*
X121524000Y-103028000D01*
%TO.C,R1*%
X128716800Y-85440000D02*
X124876800Y-85440000D01*
X128716800Y-87280000D02*
X124876800Y-87280000D01*
%TO.C,J12*%
X173142000Y-88876000D02*
X173142000Y-92596000D01*
X173142000Y-90686000D02*
X173542000Y-90686000D01*
X173142000Y-91686000D02*
X173542000Y-91686000D01*
X173142000Y-92596000D02*
X180862000Y-92596000D01*
X173542000Y-89276000D02*
X173542000Y-92196000D01*
X173542000Y-92196000D02*
X180462000Y-92196000D01*
X175402000Y-89676000D02*
X175402000Y-89276000D01*
X175502000Y-89276000D02*
X175502000Y-89676000D01*
X175602000Y-89276000D02*
X175602000Y-89676000D01*
X175602000Y-89676000D02*
X175402000Y-89676000D01*
X176902000Y-89676000D02*
X176902000Y-89276000D01*
X177002000Y-89276000D02*
X177002000Y-89676000D01*
X177102000Y-89276000D02*
X177102000Y-89676000D01*
X177102000Y-89676000D02*
X176902000Y-89676000D01*
X178402000Y-89676000D02*
X178402000Y-89276000D01*
X178502000Y-89276000D02*
X178502000Y-89676000D01*
X178602000Y-89276000D02*
X178602000Y-89676000D01*
X178602000Y-89676000D02*
X178402000Y-89676000D01*
X179552000Y-92596000D02*
X179552000Y-92796000D01*
X179552000Y-92696000D02*
X179852000Y-92696000D01*
X179552000Y-92796000D02*
X179852000Y-92796000D01*
X179852000Y-92796000D02*
X179852000Y-92596000D01*
X180262000Y-92796000D02*
X181062000Y-92796000D01*
X180462000Y-89276000D02*
X173542000Y-89276000D01*
X180462000Y-92196000D02*
X180462000Y-89276000D01*
X180862000Y-88876000D02*
X173142000Y-88876000D01*
X180862000Y-90686000D02*
X180462000Y-90686000D01*
X180862000Y-91686000D02*
X180462000Y-91686000D01*
X180862000Y-92596000D02*
X180862000Y-88876000D01*
X181062000Y-92796000D02*
X181062000Y-91996000D01*
%TO.C,J13*%
X164174400Y-88876000D02*
X164174400Y-92596000D01*
X164174400Y-90686000D02*
X164574400Y-90686000D01*
X164174400Y-91686000D02*
X164574400Y-91686000D01*
X164174400Y-92596000D02*
X170394400Y-92596000D01*
X164574400Y-89276000D02*
X164574400Y-92196000D01*
X164574400Y-92196000D02*
X169994400Y-92196000D01*
X166434400Y-89676000D02*
X166434400Y-89276000D01*
X166534400Y-89276000D02*
X166534400Y-89676000D01*
X166634400Y-89276000D02*
X166634400Y-89676000D01*
X166634400Y-89676000D02*
X166434400Y-89676000D01*
X167934400Y-89676000D02*
X167934400Y-89276000D01*
X168034400Y-89276000D02*
X168034400Y-89676000D01*
X168134400Y-89276000D02*
X168134400Y-89676000D01*
X168134400Y-89676000D02*
X167934400Y-89676000D01*
X169084400Y-92596000D02*
X169084400Y-92796000D01*
X169084400Y-92696000D02*
X169384400Y-92696000D01*
X169084400Y-92796000D02*
X169384400Y-92796000D01*
X169384400Y-92796000D02*
X169384400Y-92596000D01*
X169794400Y-92796000D02*
X170594400Y-92796000D01*
X169994400Y-89276000D02*
X164574400Y-89276000D01*
X169994400Y-92196000D02*
X169994400Y-89276000D01*
X170394400Y-88876000D02*
X164174400Y-88876000D01*
X170394400Y-90686000D02*
X169994400Y-90686000D01*
X170394400Y-91686000D02*
X169994400Y-91686000D01*
X170394400Y-92596000D02*
X170394400Y-88876000D01*
X170594400Y-92796000D02*
X170594400Y-91996000D01*
%TO.C,BZ1*%
X130255200Y-78130400D02*
G75*
G02*
X118055200Y-78130400I-6100000J0D01*
G01*
X118055200Y-78130400D02*
G75*
G02*
X130255200Y-78130400I6100000J0D01*
G01*
%TD*%
M02*
