M48
; DRILL file {KiCad 9.0.0} date 2025-08-04T22:37:56+0200
; FORMAT={-:-/ absolute / metric / decimal}
; #@! TF.CreationDate,2025-08-04T22:37:56+02:00
; #@! TF.GenerationSoftware,Kicad,Pcbnew,9.0.0
; #@! TF.FileFunction,Plated,1,2,PTH
FMAT,2
METRIC
; #@! TA.AperFunction,Plated,PTH,ViaDrill
T1C0.300
; #@! TA.AperFunction,Plated,PTH,ComponentDrill
T2C0.700
; #@! TA.AperFunction,Plated,PTH,ComponentDrill
T3C0.730
; #@! TA.AperFunction,Plated,PTH,ComponentDrill
T4C0.750
; #@! TA.AperFunction,Plated,PTH,ComponentDrill
T5C0.800
; #@! TA.AperFunction,Plated,PTH,ComponentDrill
T6C0.900
; #@! TA.AperFunction,Plated,PTH,ComponentDrill
T7C1.000
; #@! TA.AperFunction,Plated,PTH,ComponentDrill
T8C1.100
; #@! TA.AperFunction,Plated,PTH,ComponentDrill
T9C2.500
; #@! TA.AperFunction,Plated,PTH,ComponentDrill
T10C3.000
%
G90
G05
T1
X155.194Y-73.05
X156.82Y-87.528
X163.322Y-92.71
T2
X120.904Y-102.108
X124.257Y-86.36
X125.984Y-102.108
X126.086Y-104.242
X126.086Y-109.322
X129.337Y-86.36
X164.846Y-76.962
X169.926Y-76.962
X172.669Y-77.013
X177.749Y-77.013
T3
X165.656Y-96.418
X165.659Y-102.819
X165.659Y-109.22
X165.784Y-91.186
X167.156Y-96.418
X167.159Y-102.819
X167.159Y-109.22
X167.284Y-91.186
X168.656Y-96.418
X168.659Y-102.819
X168.659Y-109.22
X168.784Y-91.186
X170.156Y-96.418
X170.159Y-102.819
X170.159Y-109.22
X171.656Y-96.418
X171.659Y-102.819
X171.659Y-109.22
X173.156Y-96.418
X173.159Y-102.819
X173.159Y-109.22
X173.533Y-71.425
X174.656Y-96.418
X174.659Y-102.819
X174.659Y-109.22
X174.752Y-91.186
X175.033Y-71.425
X176.156Y-96.418
X176.159Y-102.819
X176.159Y-109.22
X176.252Y-91.186
X176.533Y-71.425
X177.752Y-91.186
X179.252Y-91.186
T4
X117.145Y-83.718
X117.145Y-84.988
X117.145Y-86.258
T5
X119.725Y-106.883
X122.225Y-106.883
X126.086Y-92.902
X126.086Y-95.402
X166.258Y-74.27
X168.758Y-74.27
T6
X132.75Y-74.3
X132.75Y-76.84
X132.75Y-79.38
X132.75Y-81.92
X132.75Y-84.46
X132.75Y-87.0
X132.75Y-89.54
X132.75Y-92.08
X132.75Y-94.62
X132.75Y-97.16
X132.75Y-99.7
X132.75Y-102.24
X132.75Y-104.78
X132.75Y-107.32
X132.75Y-109.86
X158.15Y-74.3
X158.15Y-76.84
X158.15Y-79.38
X158.15Y-81.92
X158.15Y-84.46
X158.15Y-87.0
X158.15Y-89.54
X158.15Y-92.08
X158.15Y-94.62
X158.15Y-97.16
X158.15Y-99.7
X158.15Y-102.24
X158.15Y-104.78
X158.15Y-107.32
X158.15Y-109.86
T7
X120.355Y-78.13
X127.955Y-78.13
T8
X118.567Y-112.268
X119.024Y-91.897
X119.024Y-94.437
X119.024Y-96.977
X178.26Y-80.061
X178.26Y-84.561
X184.76Y-80.061
X184.76Y-84.561
T9
X122.631Y-113.132
X122.631Y-117.907
X127.61Y-113.132
X127.61Y-117.907
T10
X117.043Y-71.628
X117.043Y-117.145
X183.896Y-71.679
X183.896Y-117.145
M30
